<svg xmlns="http://www.w3.org/2000/svg" width="100" height="100" shape-rendering="geometricPrecision" text-rendering="geometricPrecision" image-rendering="optimizeQuality" fill-rule="evenodd" clip-rule="evenodd"><defs><clipPath id="a"><path d="M50 0c28 0 50 22 50 50s-22 50-50 50S0 78 0 50 22 0 50 0z"/></clipPath><linearGradient id="b" gradientUnits="userSpaceOnUse" x1="0" y1="50" x2="100" y2="50"><stop offset="0" stop-color="#16344e"/><stop offset="1" stop-color="#7a8d8f"/></linearGradient><linearGradient id="c" gradientUnits="userSpaceOnUse" x1="24.211" y1="50" x2="75.789" y2="50"><stop offset="0" stop-color="#decf00"/><stop offset="1" stop-color="#faed26"/></linearGradient></defs><g clip-path="url(#a)"><path d="M50 0c28 0 50 22 50 50s-22 50-50 50S0 78 0 50 22 0 50 0z" fill="url(#b)"/><path d="M44-1v17c-11 4-20 11-20 20s7 14 16 18c7 4 10 5 10 9s-13 8-25 8l1 18c3 0 15-1 18-3v15h15l-1-18c6-3 18-11 18-22 0-8-6-14-15-18-8-4-11-5-11-8 0-5 11-7 23-7L72 9c-3 0-12 2-14 2l1-12H44z" fill="url(#c)" fill-rule="nonzero" stroke="#fefefe" stroke-width="2.778"/></g><path d="M50 0c28 0 50 22 50 50s-22 50-50 50S0 78 0 50 22 0 50 0z" fill="none"/></svg>