<?xml version="1.0" encoding="UTF-8"?>
<!DOCTYPE svg PUBLIC "-//W3C//DTD SVG 1.1//EN" "http://www.w3.org/Graphics/SVG/1.1/DTD/svg11.dtd">
<!-- Creator: CorelDRAW X7 -->
<svg xmlns="http://www.w3.org/2000/svg" xml:space="preserve" width="1200px" height="263px" version="1.1" style="shape-rendering:geometricPrecision; text-rendering:geometricPrecision; image-rendering:optimizeQuality; fill-rule:evenodd; clip-rule:evenodd"
viewBox="0 0 1200 263"
 xmlns:xlink="http://www.w3.org/1999/xlink">
 <defs>
  <style type="text/css">
   <![CDATA[
    .fil5 {fill:#5A5560}
    .fil4 {fill:#9D8D8F}
    .fil7 {fill:#FAED26}
    .fil2 {fill:#5A5560;fill-rule:nonzero}
    .fil3 {fill:#9B786F;fill-rule:nonzero}
    .fil1 {fill:#9D8D8F;fill-rule:nonzero}
    .fil6 {fill:#FAED26;fill-rule:nonzero}
    .fil0 {fill:white;fill-rule:nonzero}
   ]]>
  </style>
 </defs>
 <g id="Layer_x0020_1">
  <metadata id="CorelCorpID_0Corel-Layer"/>
  <g id="_2918614130240">
   <g>
    <path class="fil0" d="M374 70c0,4 -1,7 -2,10 -1,3 -3,5 -5,8 -3,2 -6,4 -10,5 -3,1 -8,2 -13,2 -4,0 -7,-1 -10,-1 -4,0 -6,0 -9,-1l0 -16 2 0c2,1 3,1 5,2 2,0 4,1 7,1 4,0 7,-1 9,-2 2,-1 3,-2 4,-4 1,-2 1,-4 1,-6 1,-2 1,-4 1,-8l0 -31 -18 0 0 -14 38 0 0 55zm76 -3l-43 0c0,5 2,8 5,11 3,2 8,4 15,4 4,0 8,-1 11,-3 4,-1 7,-3 9,-4l2 0 0 15c-4,2 -8,3 -12,4 -4,1 -8,1 -12,1 -12,0 -21,-3 -28,-8 -6,-5 -9,-13 -9,-23 0,-10 3,-18 9,-23 6,-6 14,-9 24,-9 10,0 17,3 22,7 5,5 7,12 7,22l0 6zm-18 -11c-1,-4 -2,-7 -3,-9 -2,-2 -5,-3 -9,-3 -4,0 -7,1 -9,3 -3,2 -4,5 -4,9l25 0zm111 -31l-2 0 -2 -1c-2,0 -4,0 -5,0 -4,0 -6,0 -8,2 -1,1 -2,4 -2,8l0 0 15 0 0 13 -14 0 0 46 -19 0 0 -46 -22 0 0 46 -19 0 0 -46 -8 0 0 -13 8 0 0 -2c0,-14 8,-22 24,-22 5,0 9,1 13,2l0 13 -1 0 -3 -1c-1,0 -3,0 -5,0 -3,0 -6,0 -7,2 -2,1 -2,4 -2,8l0 0 22 0 0 -2c0,-14 8,-22 23,-22 5,0 10,1 14,2l0 13zm122 68l-25 0 -24 -31 -4 6 0 25 -21 0 0 -78 21 0 0 35 28 -35 23 0 -30 36 32 42zm28 0l-19 0 0 -59 19 0 0 59zm0 -68l-20 0 0 -14 20 0 0 14zm77 68l-19 0 0 -29c0,-2 0,-5 0,-7 0,-3 -1,-4 -1,-6 -1,-1 -2,-2 -3,-2 -2,-1 -4,-1 -6,-1 -2,0 -3,0 -5,1 -2,0 -4,1 -6,2l0 42 -19 0 0 -59 19 0 0 7c3,-3 7,-5 10,-7 3,-1 6,-2 10,-2 6,0 11,2 15,6 4,4 5,9 5,17l0 38zm76 -6c0,5 -1,10 -3,14 -1,3 -3,6 -6,8 -3,3 -7,4 -11,5 -4,1 -8,2 -13,2 -4,0 -8,-1 -12,-1 -5,-1 -8,-1 -11,-2l0 -15 2 0c3,1 6,2 9,3 3,1 6,1 9,1 3,0 6,0 9,-1 2,-1 3,-2 5,-3 1,-1 1,-2 2,-4 0,-2 1,-4 1,-6l0 -2c-3,2 -5,4 -8,5 -3,1 -6,1 -9,1 -9,0 -15,-2 -20,-7 -4,-5 -6,-13 -6,-23 0,-5 0,-9 2,-13 1,-3 3,-6 6,-9 2,-2 5,-4 8,-6 4,-1 7,-2 11,-2 3,0 6,1 8,1 3,1 5,2 8,4l0 -3 19 0 0 53zm-19 -12l0 -27c-1,-1 -3,-1 -4,-1 -2,-1 -3,-1 -5,-1 -5,0 -8,2 -11,5 -2,2 -4,6 -4,12 0,5 1,9 4,11 2,3 5,4 9,4 2,0 4,0 6,-1 2,-1 3,-1 5,-2z"/>
    <path class="fil1" d="M361 121l-23 0 0 8 21 0 0 9 -21 0 0 19 -13 0 0 -45 36 0 0 9zm53 20c0,6 -2,10 -6,13 -4,3 -9,4 -17,4 -7,0 -12,-1 -16,-4 -4,-3 -6,-7 -6,-13l0 -29 13 0 0 28c0,3 1,6 2,7 2,2 4,3 7,3 4,0 6,-1 7,-3 2,-1 3,-3 3,-7l0 -28 13 0 0 29zm48 16l-36 0 0 -45 13 0 0 37 23 0 0 8zm44 0l-36 0 0 -45 13 0 0 37 23 0 0 8zm71 -14c0,5 -2,8 -6,11 -4,3 -10,4 -17,4 -4,0 -8,0 -11,-1 -3,0 -6,-1 -9,-2l0 -11 2 0c2,2 5,3 9,4 3,1 6,2 9,2 1,0 2,0 3,0 1,0 3,-1 3,-1 1,0 2,-1 3,-1 0,-1 1,-2 1,-3 0,-1 -1,-2 -2,-2 -1,-1 -2,-2 -4,-2 -2,0 -4,-1 -6,-1 -2,-1 -4,-1 -6,-2 -4,-1 -7,-2 -9,-5 -2,-2 -2,-4 -2,-7 0,-5 2,-8 6,-11 4,-3 9,-4 16,-4 3,0 6,0 10,1 3,1 6,1 8,2l0 11 -1 0c-2,-2 -5,-3 -8,-4 -3,-1 -6,-1 -9,-1 -1,0 -2,0 -3,0 -1,0 -2,0 -3,0 -1,1 -2,1 -2,2 -1,0 -1,1 -1,2 0,1 0,2 1,3 1,0 3,1 6,1 2,1 4,1 5,1 2,1 4,1 6,2 4,1 6,3 8,4 2,2 3,5 3,8zm48 -22l-16 0 0 36 -13 0 0 -36 -15 0 0 -9 44 0 0 9zm54 36l-13 0 -4 -9 -18 0 -4 9 -13 0 19 -45 15 0 18 45zm-20 -17l-6 -16 -6 16 12 0zm50 18c-4,0 -7,0 -10,-1 -4,-1 -6,-3 -9,-5 -2,-2 -4,-4 -5,-7 -1,-3 -2,-6 -2,-10 0,-4 1,-7 2,-10 1,-3 3,-6 5,-8 2,-2 5,-3 8,-4 4,-1 7,-2 11,-2 2,0 4,0 6,0 1,1 3,1 4,1 2,1 3,1 4,1 2,1 3,1 4,2l0 11 -2 0c-1,-1 -1,-1 -2,-2 -1,-1 -2,-1 -4,-2 -1,-1 -2,-1 -4,-1 -1,-1 -2,-1 -4,-1 -2,0 -4,0 -5,1 -2,0 -3,1 -5,2 -1,1 -2,3 -3,5 -1,2 -1,4 -1,7 0,3 0,5 1,7 1,2 2,3 3,4 2,2 3,2 5,3 2,0 3,1 5,1 2,0 3,-1 5,-1 1,-1 3,-1 4,-2 1,0 2,-1 3,-2 1,0 2,-1 2,-1l2 0 0 10c-2,1 -3,1 -4,2 -1,0 -2,1 -4,1 -1,0 -3,1 -4,1 -2,0 -4,0 -6,0zm74 -1l-16 0 -15 -18 -3 4 0 14 -13 0 0 -45 13 0 0 21 18 -21 15 0 -20 21 21 24z"/>
    <path class="fil2" d="M364 197c0,4 -2,8 -6,11 -4,3 -9,4 -15,4 -4,0 -7,0 -10,-1 -3,-1 -5,-2 -8,-3l0 -10 1 0c3,2 6,3 8,4 3,1 6,2 9,2 1,0 2,0 3,-1 1,0 2,0 3,0 1,-1 1,-1 2,-2 1,0 1,-1 1,-2 0,-1 -1,-2 -1,-3 -1,0 -2,-1 -4,-1 -2,-1 -4,-1 -6,-1 -1,-1 -3,-1 -5,-2 -4,-1 -6,-3 -8,-5 -2,-2 -3,-5 -3,-8 0,-4 2,-7 6,-10 4,-3 9,-4 15,-4 3,0 6,0 9,1 2,0 5,1 7,2l0 10 -1 0c-2,-1 -4,-2 -7,-3 -3,-1 -5,-2 -8,-2 -1,0 -2,0 -3,0 -1,1 -2,1 -3,1 0,1 -1,1 -2,2 0,0 -1,1 -1,2 0,1 1,2 2,2 1,1 2,2 5,2 2,1 3,1 5,1 1,1 3,1 5,2 3,1 6,2 7,4 2,2 3,5 3,8zm52 -9c0,8 -2,13 -6,18 -4,4 -10,6 -17,6 -8,0 -13,-2 -17,-6 -5,-5 -7,-10 -7,-18 0,-7 2,-13 7,-17 4,-4 9,-6 17,-6 7,0 13,2 17,6 4,4 6,10 6,17zm-15 12c1,-1 2,-3 2,-5 1,-2 1,-4 1,-7 0,-2 0,-5 -1,-7 -1,-1 -1,-3 -2,-4 -1,-1 -3,-2 -4,-3 -1,0 -3,-1 -4,-1 -2,0 -3,1 -4,1 -2,1 -3,2 -4,3 -1,1 -2,2 -3,4 0,2 0,5 0,7 0,3 0,5 0,7 1,2 2,4 3,5 1,1 2,2 3,3 2,0 3,1 5,1 1,0 3,-1 4,-1 1,-1 3,-2 4,-3zm57 -25l-21 0 0 8 19 0 0 9 -19 0 0 19 -12 0 0 -45 33 0 0 9zm43 0l-14 0 0 36 -12 0 0 -36 -14 0 0 -9 40 0 0 9zm70 -9l-12 45 -13 0 -8 -29 -8 29 -13 0 -12 -45 12 0 7 31 8 -31 12 0 8 31 7 -31 12 0zm50 45l-12 0 -3 -9 -17 0 -3 9 -12 0 17 -45 13 0 17 45zm-18 -17l-6 -16 -5 16 11 0zm50 -14c0,-2 0,-2 -1,-3 0,-1 -1,-2 -2,-2 -1,-1 -2,-1 -3,-1 -1,0 -2,0 -4,0l-4 0 0 12 4 0c2,0 3,0 4,0 2,0 3,-1 4,-1 0,-1 1,-2 1,-2 1,-1 1,-2 1,-3zm18 31l-14 0 -13 -17 -5 0 0 17 -12 0 0 -45 20 0c3,0 5,0 7,0 2,0 4,1 5,2 2,1 3,2 4,4 2,2 2,4 2,6 0,4 -1,6 -2,8 -2,3 -4,4 -7,6l15 19zm38 0l-33 0 0 -45 33 0 0 9 -21 0 0 7 20 0 0 9 -20 0 0 11 21 0 0 9zm74 -23c0,5 -1,9 -3,12 -2,3 -4,6 -7,8 -2,1 -5,2 -7,2 -3,1 -6,1 -10,1l-16 0 0 -45 17 0c4,0 7,0 9,1 3,0 5,1 7,2 3,2 6,5 8,8 1,3 2,7 2,11zm-12 0c0,-3 0,-5 -1,-7 -2,-2 -3,-4 -6,-5 -1,-1 -2,-1 -3,-1 -2,-1 -3,-1 -6,-1l-3 0 0 29 3 0c3,0 5,-1 6,-1 1,0 3,-1 4,-1 2,-1 4,-3 5,-5 1,-2 1,-5 1,-8zm54 23l-33 0 0 -45 33 0 0 9 -21 0 0 7 20 0 0 9 -20 0 0 11 21 0 0 9zm51 -45l-16 45 -14 0 -16 -45 12 0 11 32 11 -32 12 0zm40 45l-33 0 0 -45 33 0 0 9 -22 0 0 7 20 0 0 9 -20 0 0 11 22 0 0 9zm42 0l-33 0 0 -45 12 0 0 36 21 0 0 9zm51 -23c0,8 -2,13 -6,18 -4,4 -10,6 -17,6 -7,0 -13,-2 -17,-6 -4,-5 -6,-10 -6,-18 0,-7 2,-13 6,-17 4,-4 10,-6 17,-6 7,0 13,2 17,6 4,4 6,10 6,17zm-15 12c1,-1 2,-3 2,-5 1,-2 1,-4 1,-7 0,-2 0,-5 -1,-7 0,-1 -1,-3 -2,-4 -1,-1 -2,-2 -4,-3 -1,0 -3,-1 -4,-1 -2,0 -3,1 -4,1 -2,1 -3,2 -4,3 -1,1 -2,2 -2,4 -1,2 -1,5 -1,7 0,3 0,5 1,7 0,2 1,4 2,5 1,1 2,2 4,3 1,0 2,1 4,1 1,0 3,-1 4,-1 2,-1 3,-2 4,-3zm62 -20c0,2 -1,4 -1,6 -1,2 -2,4 -3,5 -2,2 -4,3 -6,4 -3,1 -5,1 -9,1l-7 0 0 15 -12 0 0 -45 20 0c3,0 5,0 7,0 2,1 4,2 5,3 2,1 3,2 4,4 1,2 2,4 2,7zm-12 0c0,-1 -1,-2 -1,-3 -1,-1 -2,-2 -3,-2 -1,0 -2,-1 -3,-1 -1,0 -3,0 -5,0l-2 0 0 14 3 0c2,0 4,0 5,-1 2,0 3,0 4,-1 0,-1 1,-1 1,-2 0,-1 1,-2 1,-4zm53 31l-33 0 0 -45 33 0 0 9 -21 0 0 7 20 0 0 9 -20 0 0 11 21 0 0 9zm35 -31c0,-2 0,-2 0,-3 -1,-1 -2,-2 -3,-2 -1,-1 -2,-1 -3,-1 -1,0 -2,0 -3,0l-4 0 0 12 3 0c2,0 4,0 5,0 1,0 2,-1 3,-1 1,-1 1,-2 2,-2 0,-1 0,-2 0,-3zm19 31l-15 0 -12 -17 -5 0 0 17 -12 0 0 -45 19 0c3,0 5,0 7,0 2,0 4,1 6,2 2,1 3,2 4,4 1,2 1,4 1,6 0,4 0,6 -2,8 -1,3 -4,4 -7,6l16 19z"/>
    <g>
     <path class="fil3" d="M335 247c-1,0 -2,0 -4,0 -1,-1 -2,-1 -3,-2 -1,-1 -2,-2 -2,-3 -1,-1 -1,-3 -1,-4 0,-2 0,-3 1,-4 0,-1 1,-2 2,-3 1,-1 2,-2 3,-2 2,0 3,-1 4,-1 1,0 2,0 3,0 0,1 1,1 2,1 0,0 1,0 1,0 1,0 1,1 2,1l0 4 -1 0c0,0 0,0 -1,0 0,-1 -1,-1 -1,-1 -1,0 -1,-1 -2,-1 0,0 -1,0 -2,0 0,0 -1,0 -2,0 0,0 -1,1 -2,1 0,1 -1,1 -1,2 0,1 0,2 0,3 0,1 0,2 0,3 0,0 1,1 1,1 1,1 2,1 2,1 1,1 2,1 2,1 1,0 2,0 2,-1 1,0 1,0 2,0 0,0 1,-1 1,-1 1,0 1,0 1,-1l1 0 0 5c-1,0 -1,0 -2,0 0,0 -1,1 -1,1 -1,0 -2,0 -2,0 -1,0 -1,0 -3,0zm26 -10l0 0c0,0 -1,0 -1,0 -1,0 -1,0 -1,0 -1,0 -2,0 -2,0 -1,0 -1,1 -2,1l0 9 -5 0 0 -14 5 0 0 2c1,-1 2,-1 3,-1 1,-1 1,-1 2,-1 0,0 0,0 1,0 0,0 0,0 0,0l0 4zm22 4l-11 0c0,1 0,2 1,2 1,1 2,1 4,1 1,0 2,0 3,0 1,-1 1,-1 2,-1l1 0 0 3c-2,1 -3,1 -4,1 -1,0 -2,0 -3,0 -3,0 -5,0 -7,-2 -2,-1 -2,-3 -2,-5 0,-2 0,-4 2,-5 2,-2 4,-2 6,-2 3,0 5,0 6,1 1,2 2,3 2,5l0 2zm-5 -3c0,-1 0,-1 -1,-2 0,0 -1,-1 -2,-1 -1,0 -2,1 -2,1 -1,1 -1,1 -1,2l6 0zm21 5l0 -3c0,0 -1,1 -2,1 0,0 -1,0 -1,0 -1,0 -1,0 -2,1 0,0 0,0 0,1 0,0 0,0 0,0 0,0 0,1 1,1 0,0 0,0 0,0 1,0 1,0 2,0 0,0 1,0 1,0 1,0 1,0 1,-1zm0 2c0,1 0,1 -1,1 0,0 0,1 -1,1 0,0 -1,0 -1,0 -1,0 -1,0 -2,0 -1,0 -3,0 -3,-1 -1,-1 -2,-2 -2,-3 0,-1 0,-2 1,-3 0,0 1,-1 2,-1 1,0 2,-1 3,-1 2,0 3,0 4,0l0 0c0,-1 0,-2 -1,-2 0,0 -1,0 -3,0 0,0 -1,0 -2,0 -1,0 -2,1 -2,1l-1 0 0 -4c1,0 2,0 3,0 1,0 2,0 3,0 3,0 5,0 6,1 2,1 2,2 2,4l0 9 -5 0 0 -2zm23 2c0,0 -1,0 -1,0 -1,0 -2,0 -2,0 -2,0 -4,0 -5,-1 -1,-1 -1,-2 -1,-3l0 -7 -2 0 0 -3 2 0 0 -4 5 0 0 4 4 0 0 3 -4 0 0 5c0,0 0,1 0,1 0,1 0,1 0,1 0,1 0,1 1,1 0,0 1,0 1,0 0,0 1,0 1,0 1,0 1,0 1,0l0 0 0 3zm12 0l-5 0 0 -14 5 0 0 14zm0 -16l-5 0 0 -3 5 0 0 3zm24 2l-6 14 -5 0 -6 -14 5 0 3 10 4 -10 5 0zm22 8l-12 0c0,1 1,2 2,2 1,1 2,1 3,1 2,0 3,0 3,0 1,-1 2,-1 3,-1l0 0 0 3c-1,1 -2,1 -3,1 -1,0 -2,0 -3,0 -3,0 -5,0 -7,-2 -2,-1 -3,-3 -3,-5 0,-2 1,-4 3,-5 1,-2 3,-2 6,-2 3,0 4,0 6,1 1,2 2,3 2,5l0 2zm-5 -3c0,-1 -1,-1 -1,-2 -1,0 -1,-1 -2,-1 -1,0 -2,1 -3,1 0,1 -1,1 -1,2l7 0zm18 4l-5 9 -3 0 3 -9 5 0zm25 5l-12 0 0 -3 3 0 0 -12 -3 0 0 -3 12 0 0 3 -4 0 0 12 4 0 0 3zm23 0l-5 0 0 -7c0,0 0,-1 0,-2 0,0 0,-1 0,-1 -1,0 -1,0 -1,0 0,-1 -1,-1 -2,-1 0,0 -1,0 -1,1 0,0 -1,0 -1,0l0 10 -5 0 0 -14 5 0 0 2c0,-1 1,-1 2,-2 1,0 2,0 3,0 1,0 3,0 4,1 1,1 1,2 1,4l0 9zm18 0c0,0 -1,0 -2,0 0,0 -1,0 -2,0 -2,0 -3,0 -4,-1 -1,-1 -1,-2 -1,-3l0 -7 -2 0 0 -3 2 0 0 -4 5 0 0 4 4 0 0 3 -4 0 0 5c0,0 0,1 0,1 0,1 0,1 0,1 0,1 0,1 0,1 1,0 1,0 2,0 0,0 0,0 1,0 0,0 1,0 1,0l0 0 0 3zm22 -6l-11 0c0,1 0,2 1,2 1,1 2,1 4,1 1,0 2,0 3,0 1,-1 2,-1 2,-1l1 0 0 3c-1,1 -2,1 -3,1 -1,0 -3,0 -4,0 -3,0 -5,0 -7,-2 -1,-1 -2,-3 -2,-5 0,-2 1,-4 2,-5 2,-2 4,-2 6,-2 3,0 5,0 6,1 1,2 2,3 2,5l0 2zm-5 -3c0,-1 0,-1 -1,-2 0,0 -1,-1 -2,-1 -1,0 -2,1 -2,1 -1,1 -1,1 -1,2l6 0zm17 9l-5 0 0 -19 5 0 0 19zm14 0l-5 0 0 -19 5 0 0 19zm13 0l-5 0 0 -14 5 0 0 14zm0 -16l-5 0 0 -3 5 0 0 3zm23 14c0,2 0,3 0,4 -1,0 -1,1 -2,2 -1,0 -2,0 -3,1 -1,0 -2,0 -3,0 -1,0 -2,0 -3,0 -1,0 -2,0 -3,-1l0 -3 1 0c0,0 1,0 2,1 1,0 1,0 2,0 1,0 2,0 2,0 1,-1 1,-1 2,-1 0,0 0,-1 0,-1 0,0 0,-1 0,-1l0 -1c0,1 -1,1 -2,1 0,1 -1,1 -2,1 -2,0 -4,-1 -5,-2 -1,-1 -2,-3 -2,-5 0,-1 0,-2 1,-3 0,-1 1,-2 1,-2 1,-1 2,-1 3,-2 0,0 1,0 2,0 1,0 2,0 2,0 1,0 2,0 2,1l1 -1 4 0 0 12zm-5 -2l0 -7c0,0 0,0 -1,0 0,0 0,0 -1,0 -1,0 -2,0 -3,1 0,1 -1,2 -1,3 0,1 1,2 1,3 1,0 2,0 3,0 0,0 1,0 1,0 1,0 1,0 1,0zm29 -2l-11 0c0,1 0,2 1,2 1,1 2,1 4,1 1,0 2,0 3,0 1,-1 1,-1 2,-1l1 0 0 3c-2,1 -3,1 -4,1 -1,0 -2,0 -3,0 -3,0 -5,0 -7,-2 -2,-1 -2,-3 -2,-5 0,-2 0,-4 2,-5 1,-2 4,-2 6,-2 3,0 5,0 6,1 1,2 2,3 2,5l0 2zm-5 -3c0,-1 0,-1 -1,-2 0,0 -1,-1 -2,-1 -1,0 -2,1 -2,1 -1,1 -1,1 -1,2l6 0zm27 9l-4 0 0 -7c0,0 0,-1 -1,-2 0,0 0,-1 0,-1 0,0 0,0 -1,0 0,-1 0,-1 -1,-1 -1,0 -1,0 -1,1 -1,0 -1,0 -2,0l0 10 -5 0 0 -14 5 0 0 2c1,-1 2,-1 3,-2 0,0 1,0 2,0 2,0 3,0 4,1 1,1 1,2 1,4l0 9zm19 0c-1,0 -1,0 -2,0 -1,0 -1,0 -2,0 -2,0 -4,0 -4,-1 -1,-1 -2,-2 -2,-3l0 -7 -2 0 0 -3 2 0 0 -4 5 0 0 4 5 0 0 3 -5 0 0 5c0,0 0,1 0,1 0,1 0,1 0,1 0,1 1,1 1,1 0,0 1,0 1,0 1,0 1,0 1,0 1,0 1,0 1,0l1 0 0 3zm13 -5l-5 9 -3 0 2 -9 6 0zm30 -1c0,2 -1,3 -3,5 -2,1 -4,1 -7,1 -2,0 -3,0 -4,0 -2,0 -3,-1 -4,-1l0 -5 1 0c1,1 2,2 3,2 2,1 3,1 4,1 1,0 1,0 2,0 0,0 0,0 1,0 0,-1 1,-1 1,-1 0,0 0,-1 0,-1 0,0 0,-1 0,-1 -1,0 -1,-1 -2,-1 -1,0 -2,0 -2,0 -1,0 -2,0 -3,-1 -2,0 -3,-1 -4,-2 0,-1 -1,-2 -1,-3 0,-2 1,-3 3,-4 2,-1 4,-2 6,-2 2,0 3,0 4,1 2,0 3,0 4,1l0 4 -1 0c-1,-1 -2,-1 -3,-2 -1,0 -2,0 -3,0 -1,0 -1,0 -2,0 0,0 -1,0 -1,0 0,0 -1,0 -1,1 0,0 0,0 0,0 0,1 0,1 0,2 1,0 1,0 3,0 0,0 1,1 2,1 0,0 1,0 2,0 2,1 3,1 3,2 1,1 2,2 2,3zm15 6c-2,0 -3,0 -4,0 -1,0 -2,-1 -3,-1 -1,-1 -1,-2 -2,-3 0,-1 0,-2 0,-3 0,-1 0,-2 0,-3 1,-1 1,-2 2,-3 1,0 2,-1 3,-1 1,0 2,0 4,0 1,0 2,0 2,0 1,0 2,1 3,1l0 4 -1 0c0,0 0,-1 0,-1 -1,0 -1,0 -1,0 -1,-1 -1,-1 -2,-1 0,0 -1,0 -1,0 -2,0 -3,0 -3,1 -1,1 -1,2 -1,3 0,1 0,2 1,3 0,1 2,1 3,1 0,0 1,0 1,0 1,0 1,0 2,-1 0,0 0,0 1,0 0,0 0,0 0,-1l1 0 0 4c-1,1 -2,1 -3,1 0,0 -1,0 -2,0zm21 -4l0 -3c0,0 -1,1 -2,1 -1,0 -1,0 -2,0 0,0 -1,0 -1,1 0,0 0,0 0,1 0,0 0,0 0,0 0,0 0,1 0,1 1,0 1,0 1,0 0,0 1,0 1,0 1,0 1,0 2,0 0,0 1,0 1,-1zm0 2c0,1 0,1 -1,1 0,0 0,1 -1,1 0,0 -1,0 -1,0 -1,0 -1,0 -2,0 -1,0 -3,0 -4,-1 -1,-1 -1,-2 -1,-3 0,-1 0,-2 1,-3 0,0 1,-1 2,-1 1,0 2,-1 3,-1 1,0 3,0 4,0l0 0c0,-1 0,-2 -1,-2 0,0 -1,0 -3,0 -1,0 -1,0 -2,0 -1,0 -2,1 -2,1l-1 0 0 -4c1,0 2,0 3,0 1,0 2,0 3,0 3,0 5,0 6,1 1,1 2,2 2,4l0 9 -5 0 0 -2zm18 2l-5 0 0 -19 5 0 0 19zm18 -4l0 -3c-1,0 -1,1 -2,1 -1,0 -1,0 -2,0 0,0 -1,0 -1,1 0,0 0,0 0,1 0,0 0,0 0,0 0,0 0,1 0,1 0,0 1,0 1,0 0,0 1,0 1,0 1,0 1,0 2,0 0,0 1,0 1,-1zm0 2c0,1 0,1 -1,1 0,0 -1,1 -1,1 0,0 -1,0 -1,0 -1,0 -2,0 -2,0 -2,0 -3,0 -4,-1 -1,-1 -1,-2 -1,-3 0,-1 0,-2 0,-3 1,0 2,-1 3,-1 0,0 2,-1 3,-1 1,0 3,0 4,0l0 0c0,-1 0,-2 -1,-2 -1,0 -2,0 -3,0 -1,0 -2,0 -3,0 0,0 -1,1 -2,1l0 0 0 -4c1,0 1,0 3,0 1,0 2,0 3,0 3,0 5,0 6,1 1,1 2,2 2,4l0 9 -5 0 0 -2zm29 -5c0,2 0,4 -2,5 -1,1 -3,2 -5,2 -1,0 -1,0 -2,0 -1,0 -1,-1 -2,-1l0 1 -5 0 0 -19 5 0 0 7c1,-1 2,-1 3,-2 0,0 1,0 2,0 2,0 4,0 5,2 1,1 1,3 1,5zm-5 0c0,-1 0,-2 0,-3 -1,-1 -2,-1 -3,-1 0,0 -1,0 -1,0 -1,0 -1,1 -2,1l0 7c1,0 1,0 1,0 1,0 1,0 1,0 2,0 3,0 3,-1 1,-1 1,-2 1,-3zm18 7l-5 0 0 -19 5 0 0 19zm23 -6l-11 0c0,1 0,2 1,2 1,1 2,1 4,1 1,0 2,0 3,0 1,-1 2,-1 2,-1l1 0 0 3c-1,1 -2,1 -3,1 -1,0 -2,0 -4,0 -3,0 -5,0 -7,-2 -1,-1 -2,-3 -2,-5 0,-2 1,-4 2,-5 2,-2 4,-2 7,-2 2,0 4,0 5,1 1,2 2,3 2,5l0 2zm-5 -3c0,-1 0,-1 -1,-2 0,0 -1,-1 -2,-1 -1,0 -1,1 -2,1 -1,1 -1,1 -1,2l6 0zm27 5l0 -3c0,0 -1,1 -2,1 0,0 -1,0 -1,0 -1,0 -1,0 -2,1 0,0 0,0 0,1 0,0 0,0 0,0 0,0 0,1 1,1 0,0 0,0 0,0 1,0 1,0 2,0 0,0 1,0 1,0 1,0 1,0 1,-1zm0 2c0,1 0,1 -1,1 0,0 0,1 -1,1 0,0 -1,0 -1,0 -1,0 -1,0 -2,0 -1,0 -3,0 -4,-1 0,-1 -1,-2 -1,-3 0,-1 0,-2 1,-3 0,0 1,-1 2,-1 1,0 2,-1 3,-1 2,0 3,0 4,0l0 0c0,-1 0,-2 -1,-2 0,0 -1,0 -3,0 0,0 -1,0 -2,0 -1,0 -2,1 -2,1l-1 0 0 -4c1,0 2,0 3,0 1,0 2,0 3,0 3,0 5,0 6,1 2,1 2,2 2,4l0 9 -5 0 0 -2zm29 2l-5 0 0 -7c0,0 0,-1 0,-2 0,0 0,-1 0,-1 -1,0 -1,0 -1,0 0,-1 -1,-1 -2,-1 0,0 -1,0 -1,1 0,0 -1,0 -1,0l0 10 -5 0 0 -14 5 0 0 2c0,-1 1,-1 2,-2 1,0 2,0 3,0 1,0 3,0 4,1 1,1 1,2 1,4l0 9zm23 0l-5 0 0 -2c-1,1 -1,2 -2,2 -1,0 -2,0 -3,0 -1,0 -3,0 -4,-2 -1,-1 -2,-3 -2,-5 0,-1 0,-2 1,-3 0,-1 1,-2 1,-2 1,-1 2,-1 3,-2 0,0 1,0 2,0 1,0 2,0 3,0 0,0 1,0 1,1l0 -6 5 0 0 19zm-5 -4l0 -7c0,0 0,0 -1,0 0,0 0,0 -1,0 -1,0 -2,0 -3,1 0,1 -1,2 -1,3 0,1 1,2 1,3 1,1 1,1 3,1 0,0 1,0 1,0 1,0 1,-1 1,-1zm39 -5c0,1 -1,3 -1,4 -1,2 -2,3 -4,3 -1,1 -2,1 -3,2 -1,0 -3,0 -4,0l-7 0 0 -18 7 0c2,0 3,0 4,0 2,0 3,1 3,1 2,1 3,2 4,3 1,2 1,3 1,5zm-6 0c0,-1 0,-2 0,-3 -1,-1 -2,-2 -3,-2 0,-1 -1,-1 -1,-1 -1,0 -2,0 -3,0l-1 0 0 11 1 0c2,0 2,0 3,0 1,0 1,0 2,0 1,-1 1,-1 2,-2 0,-1 0,-2 0,-3zm29 3l-12 0c0,1 1,2 2,2 1,1 2,1 3,1 1,0 2,0 3,0 1,-1 2,-1 3,-1l0 0 0 3c-1,1 -2,1 -3,1 -1,0 -2,0 -3,0 -3,0 -6,0 -7,-2 -2,-1 -3,-3 -3,-5 0,-2 1,-4 3,-5 1,-2 3,-2 6,-2 3,0 4,0 6,1 1,2 2,3 2,5l0 2zm-5 -3c0,-1 -1,-1 -1,-2 -1,0 -1,-1 -2,-1 -1,0 -2,1 -3,1 0,1 -1,1 -1,2l7 0zm17 9l-5 0 0 -19 5 0 0 19zm13 0l-5 0 0 -14 5 0 0 14zm0 -16l-5 0 0 -3 5 0 0 3zm24 2l-6 14 -5 0 -6 -14 5 0 3 10 4 -10 5 0zm22 8l-12 0c0,1 1,2 2,2 1,1 2,1 3,1 2,0 3,0 3,0 1,-1 2,-1 3,-1l0 0 0 3c-1,1 -2,1 -3,1 -1,0 -2,0 -3,0 -3,0 -5,0 -7,-2 -2,-1 -3,-3 -3,-5 0,-2 1,-4 3,-5 1,-2 3,-2 6,-2 3,0 4,0 6,1 1,2 2,3 2,5l0 2zm-5 -3c0,-1 -1,-1 -1,-2 -1,0 -1,-1 -2,-1 -1,0 -2,1 -3,1 0,1 -1,1 -1,2l7 0zm23 -1l0 0c-1,0 -1,0 -1,0 -1,0 -1,0 -2,0 0,0 -1,0 -1,0 -1,0 -2,1 -2,1l0 9 -5 0 0 -14 5 0 0 2c1,-1 2,-1 3,-1 0,-1 1,-1 2,-1 0,0 0,0 0,0 1,0 1,0 1,0l0 4zm22 4l-12 0c1,1 1,2 2,2 1,1 2,1 4,1 1,0 2,0 3,0 1,-1 1,-1 2,-1l0 0 0 3c-1,1 -2,1 -3,1 -1,0 -2,0 -3,0 -3,0 -5,0 -7,-2 -2,-1 -2,-3 -2,-5 0,-2 0,-4 2,-5 1,-2 4,-2 6,-2 3,0 5,0 6,1 1,2 2,3 2,5l0 2zm-5 -3c0,-1 0,-1 -1,-2 0,0 -1,-1 -2,-1 -1,0 -2,1 -3,1 0,1 0,1 -1,2l7 0z"/>
     <path class="fil3" d="M1152 247l-5 0 0 -2c-1,1 -2,2 -2,2 -1,0 -2,0 -3,0 -2,0 -3,0 -4,-2 -2,-1 -2,-3 -2,-5 0,-1 0,-2 0,-3 1,-1 1,-2 2,-2 1,-1 1,-1 2,-2 1,0 2,0 3,0 1,0 2,0 2,0 1,0 1,0 2,1l0 -6 5 0 0 19zm-5 -4l0 -7c0,0 -1,0 -1,0 -1,0 -1,0 -1,0 -1,0 -2,0 -3,1 -1,1 -1,2 -1,3 0,1 0,2 1,3 0,1 1,1 2,1 1,0 1,0 2,0 0,0 1,-1 1,-1z"/>
    </g>
   </g>
   <rect class="fil4" x="11" y="10" width="242" height="242"/>
   <g>
    <rect class="fil5" x="11" y="10" width="78.3279" height="241.5"/>
    <path class="fil6" d="M15 196c11,0 17,-2 21,-5 3,-4 5,-11 5,-23l0 -129 42 0 0 130c0,20 -4,35 -12,43 -8,8 -22,12 -41,13l-15 -29z"/>
   </g>
   <g>
    <rect class="fil7" x="94" y="10" width="159" height="242"/>
    <polygon class="fil2" points="100,183 100,39 139,39 139,103 192,39 236,39 181,105 250,183 199,183 139,115 139,183 "/>
   </g>
  </g>
 </g>
</svg>
