<svg xmlns="http://www.w3.org/2000/svg" width="100" height="22" shape-rendering="geometricPrecision" text-rendering="geometricPrecision" image-rendering="optimizeQuality" fill-rule="evenodd" clip-rule="evenodd"><defs><style>.fil0,.fil3{fill:#8b786f;fill-rule:nonzero}.fil0{fill:#feffff}</style><linearGradient id="id0" gradientUnits="userSpaceOnUse" x1=".92" y1="10.938" x2="7.447" y2="10.938"><stop offset="0" stop-color="#4a5560"/><stop offset="1" stop-color="#16344e"/></linearGradient><linearGradient id="id1" gradientUnits="userSpaceOnUse" x1="8.339" y1="9.244" x2="20.783" y2="9.244"><stop offset="0" stop-color="#8d8d8f"/><stop offset="1" stop-color="#16344e"/></linearGradient></defs><g id="Layer_x0020_1"><g id="_1981227306736"><path class="fil0" d="M31 6v1s0 0 0 0c-1 0-1 1-1 1h-2-1V6h0l1 1s0 0 0 0h1V6s0 0 0 0V2h-1V1h3v5zm7 0h-4s0 0 0 0c1 1 1 1 2 1h1V6h0v2h-1-1c-1 0-1 0-2-1 0 0-1-1-1-2 0 0 1-1 1-2h4c0 1 1 1 1 2v1zm-2-1V4h-1-1v1h2zm9-3h-1s0 0 0 0v1h1v1h-1v4h-2V4h-2v4h-1V4h-1V3h1c0-2 0-2 2-2h1v1h0-1-1v1h2c0-2 1-2 2-2h1v1zm10 6h-2l-2-3v3h-2V1h2v3l2-3h2l-2 3 2 4zm3 0h-2V3h2v5zm0-6h-2V1h2v1zm6 6h-1V5s0 0 0 0 0-1-1-1c0 0 0 0 0 0s0 0 0 0h-1s0 0 0 0v4h-2V3h3s0 0 0 0h2v5zm6-1v2c-1 0-1 0-1 1h-2c-1 0-1-1-1-1V8h1s0 0 0 0h2s0 0 0 0V7h0s-1 0-1 1h-1l-1-1c-1 0-1-1-1-2V4c1 0 1 0 1-1h2s0 0 0 0h2v4zm-1-1V4s0 0 0 0h-1-1v2h1s0 0 0 0h1z" stroke="#16344e" stroke-width=".075"/><path d="M30 10h-2v1h2v1h-2v1h-1V9h3v1zm4 2v1h-3V9h1v3h1V9h1v3zm4 1h-3V9h2v3h1v1zm4 0h-3V9h1v3h2v1zm6-1v1h-2-1v-1h2-1l-1-1v-1c0-1 1-1 1-1h1s1 0 1 1h-1-1v1h2v1zm4-2h-1v3h-1v-3h-2V9h4v1zm5 3h-2v-1h-1l-1 1h-1l2-4h1l2 4zm-2-1l-1-2v2h1zm4 1h-1c-1 0-1-1-1-1v-1-1h1V9h2s0 1 1 1h-2-1v2h3v1h-2zm6 0h-1l-1-1h-1v1h-1V9h1v2l2-2h1l-1 2 1 2z" fill="#8d8d8f" fill-rule="nonzero"/><path d="M30 16v1c0 1-1 1-1 1h-1l-1-1v-1c0 1 1 1 1 1h1v-1h-1-1v-1s0-1 1-1h2v1h-1v-1c-1 0-1 0-1 1h1c1 0 1 1 1 1zm5 0l-1 1-1 1c-1 0-1-1-2-1v-1-2h3c0 1 1 1 1 2zm-2 1l1-1v-1h-1v-1s-1 0-1 1v2h1zm5-2h-2 2v1h-2v2h-1v-4h3v1zm4 0h-1v3h-1v-3h-2v-1h4v1zm6-1l-1 4h-2v-3l-1 3h-1l-1-4h1l1 2v-2h1l1 2 1-2h1zm4 4h-1l-1-1h-1v1h-1l1-4h1l2 4zm-2-2v-1l-1 1h1zm4-1h-1v1h1v-1zm2 3h-1l-1-2h-1v2h-1v-4h3v2l1 2zm3 0h-3v-4h3v1h-2 2v1h-2v1h2v1zm6-2v1h-1v1h-2v-4h2c1 0 1 0 1 1v1zm-1 0v-1h-1v2h1v-1zm5 2h-3v-4h3v1h-2 2v1h-2v1h2v1zm4-4l-1 4h-1l-2-4h1l1 2 1-2h1zm3 4h-2v-4h2v1h-1 1v1h-1v1h1v1zm4 0h-3v-4h1v3h2v1zm4-2v1c-1 0-1 1-2 1l-1-1c-1 0-1-1-1-1 0-1 0-1 1-2h3v2zm-1 1v-1-1l-1-1v1h-1v2h2zm5-2v1h-1-1v2h-1v-4h3v1zm-1 0h-1v1h1v-1zm4 3h-2v-4h2v1h-1 1v1h-1v1h1v1zm3-3h-1v1c1 0 1 0 1-1zm2 3h-1l-1-2h-1v2h-1v-4h3v2l1 2z" fill="#4a5560" fill-rule="nonzero"/><path class="fil3" d="M28 21c-1 0-1-1-1-1v-1h2v1h-1v-1 1h1l-1 1zm2-1v1h-1v-2h1v1zm2 0h-1 1v1h-1v-1-1s1 0 1 1zm-1 0zm2 0zm0 0v1l-1-1h1v-1h1v2h-1v-1zm2 1l-1-1v-1h1v2zm1 0v-2 2zm0-2zm2 0v2h-1v-2 1l1-1zm2 1h-1 1v1h-1v-1-1c1 0 1 0 1 1zm0 0h-1 1zm1 0v1h-1l1-1zm2 1h-1v-2h1v2zm2 0v-1h-1v1-2 0h1v2zm2 0h-1v-2h1v1h-1 1v1zm1-1h-1 1v1s-1 0-1-1 1-1 1-1v1zm0 0h-1 1zm1 1v-2 2zm2 0h-1v-2h1v2zm1 0h-1v-2h1v2zm0-2h-1 1zm2 1v1h-1-1 1v-1 1l-1-1 1-1h1v1zm-1 0zm3 0h-1 1v1h-1l-1-1 1-1v1h1zm-1 0zm2 1v-1 1h-1v-2h1v2zm2 0h-1v-2h1v2zm1-1v1h-1l1-1zm3 0h-1v1h-1v-1h0v-1h1v1h1zm1 1h-1v-1c0-1 0-1 1-1v1h-1 1v1zm2-1h-1 1zm0 0v1h-1v-1h1-1v-1h1v2-1zm1 1v-2 2zm2-1h-1 1zm0 0l-1 1v-1h0v-1h1v2-1zm2 0c0 1 0 1-1 1v-2 0h1v1zm0 0h-1 1zm1 1v-2 2zm2-1h-1 1v1h-1v-1-1c1 0 1 0 1 1zm0 0h-1 1zm2 0h-1 1zm0 0v1h-1v-1h1-1v-1h1v2-1zm2 1v-1h-1v1-2 1l1-1v2zm2 0v-1 1h-1v-1-1h1v2zm0-1h-1 1zm3 0l-1 1h-1v-2h2v1zm0 0h-1v-1 1h1zm2 0h-1 1v1h-1v-1-1s1 0 1 1zm-1 0zm2 1h-1v-2h1v2zm1 0v-2 2zm0-2zm2 0l-1 2v-2 1l1-1zm2 1h-1 1v1h-1v-1h-1 1v-1s1 0 1 1zm-1 0zm2 0v1h-1v-2h1v1zm2 0h-1 1v1c-1 0-1 0-1-1s0-1 1-1v1zm0 0h-1 1zM96 21v-1l-1 1v-1-1h1v2zm0-1h-1 1z"/></g><path fill="#16344e" stroke="#46344e" stroke-width=".347" d="M1 1h20.125v20.125H1z"/><g id="_1981227304272"><path fill="url(#id0)" d="M1 1h6.527v20.125H1z"/><path class="fil0" d="M1 16h2V3h4v11c0 2 0 3-1 4-1 0-2 1-4 1l-1-3z"/></g><g id="_1981227304336"><path fill="#feffff" d="M8 1h13.249v20.125H8z"/><path fill="url(#id1)" fill-rule="nonzero" d="M8 15V3h4v6l4-6h4l-5 6 6 6h-4l-5-5v5z"/></g></g></svg>