<?xml version="1.0" encoding="UTF-8"?>
<!DOCTYPE svg PUBLIC "-//W3C//DTD SVG 1.1//EN" "http://www.w3.org/Graphics/SVG/1.1/DTD/svg11.dtd">
<!-- Creator: CorelDRAW X7 -->
<svg xmlns="http://www.w3.org/2000/svg" xml:space="preserve" width="100px" height="22px" version="1.1" style="shape-rendering:geometricPrecision; text-rendering:geometricPrecision; image-rendering:optimizeQuality; fill-rule:evenodd; clip-rule:evenodd"
viewBox="0 0 100 22"
 xmlns:xlink="http://www.w3.org/1999/xlink">
 <defs>
  <style type="text/css">
   <![CDATA[
    .str1 {stroke:#46344E;stroke-width:0.347146}
    .str0 {stroke:#16344E;stroke-width:0.075}
    .fil4 {fill:#16344E}
    .fil6 {fill:#FEFFFF}
    .fil2 {fill:#4A5560;fill-rule:nonzero}
    .fil3 {fill:#8B786F;fill-rule:nonzero}
    .fil1 {fill:#8D8D8F;fill-rule:nonzero}
    .fil0 {fill:#FEFFFF;fill-rule:nonzero}
    .fil5 {fill:url(#id0)}
    .fil7 {fill:url(#id1);fill-rule:nonzero}
   ]]>
  </style>
  <linearGradient id="id0" gradientUnits="userSpaceOnUse" x1="0.920177" y1="10.9375" x2="7.44744" y2="10.9375">
   <stop offset="0" style="stop-opacity:1; stop-color:#4A5560"/>
   <stop offset="1" style="stop-opacity:1; stop-color:#16344E"/>
  </linearGradient>
  <linearGradient id="id1" gradientUnits="userSpaceOnUse" x1="8.33917" y1="9.2436" x2="20.7833" y2="9.2436">
   <stop offset="0" style="stop-opacity:1; stop-color:#8D8D8F"/>
   <stop offset="1" style="stop-opacity:1; stop-color:#16344E"/>
  </linearGradient>
 </defs>
 <g id="Layer_x0020_1">
  <metadata id="CorelCorpID_0Corel-Layer"/>
  <g id="_1981227306736">
   <path class="fil0 str0" d="M31 6c0,0 0,0 0,1 0,0 0,0 0,0 -1,0 -1,1 -1,1 -1,0 -1,0 -1,0 -1,0 -1,0 -1,0 0,0 -1,0 -1,0l0 -2 0 0c0,0 1,1 1,1 0,0 0,0 0,0 1,0 1,0 1,0 0,-1 0,-1 0,-1 0,0 0,0 0,0 0,0 0,-1 0,-1l0 -3 -1 0 0 -1 3 0 0 5zm7 0l-4 0c0,0 0,0 0,0 1,1 1,1 2,1 0,0 0,0 1,0 0,-1 0,-1 0,-1l0 0 0 2c0,0 0,0 -1,0 0,0 0,0 -1,0 -1,0 -1,0 -2,-1 0,0 -1,-1 -1,-2 0,0 1,-1 1,-2 1,0 1,0 2,0 1,0 2,0 2,0 0,1 1,1 1,2l0 1zm-2 -1c0,-1 0,-1 0,-1 0,0 -1,0 -1,0 0,0 -1,0 -1,0 0,0 0,0 0,1l2 0zm9 -3l0 0 0 0c0,0 0,0 -1,0 0,0 0,0 0,0 0,0 0,0 0,1l0 0 1 0 0 1 -1 0 0 4 -2 0 0 -4 -2 0 0 4 -1 0 0 -4 -1 0 0 -1 1 0 0 0c0,-2 0,-2 2,-2 0,0 1,0 1,0l0 1 0 0 0 0c-1,0 -1,0 -1,0 0,0 0,0 -1,0 0,0 0,0 0,1l0 0 2 0 0 0c0,-2 1,-2 2,-2 1,0 1,0 1,0l0 1zm10 6l-2 0 -2 -3 0 1 0 2 -2 0 0 -7 2 0 0 3 2 -3 2 0 -2 3 2 4zm3 0l-2 0 0 -5 2 0 0 5zm0 -6l-2 0 0 -1 2 0 0 1zm6 6l-1 0 0 -3c0,0 0,0 0,0 0,0 0,-1 -1,-1 0,0 0,0 0,0 0,0 0,0 0,0 0,0 -1,0 -1,0 0,0 0,0 0,0l0 4 -2 0 0 -5 2 0 0 0c0,0 0,0 1,0 0,0 0,0 0,0 1,0 1,0 2,0 0,0 0,1 0,2l0 3zm6 -1c0,1 0,1 0,1 0,1 0,1 0,1 -1,0 -1,0 -1,1 0,0 -1,0 -1,0 -1,0 -1,0 -1,0 -1,0 -1,-1 -1,-1l0 -1 0 0c0,0 0,0 1,0 0,0 0,0 0,0 1,0 1,0 1,0 0,0 1,0 1,0 0,0 0,0 0,0 0,0 0,-1 0,-1l0 0c0,0 -1,0 -1,1 0,0 0,0 -1,0 0,0 -1,-1 -1,-1 -1,0 -1,-1 -1,-2 0,0 0,-1 0,-1 1,0 1,0 1,-1 0,0 0,0 1,0 0,0 0,0 1,0 0,0 0,0 0,0 0,0 1,0 1,0l0 0 1 0 0 4zm-1 -1l0 -2c0,0 0,0 0,0 -1,0 -1,0 -1,0 0,0 -1,0 -1,0 0,0 0,1 0,1 0,1 0,1 0,1 0,0 1,0 1,0 0,0 0,0 0,0 1,0 1,0 1,0z"/>
   <path class="fil1" d="M30 10l-2 0 0 1 2 0 0 1 -2 0 0 1 -1 0 0 -4 3 0 0 1zm4 2c0,0 0,1 0,1 0,0 -1,0 -1,0 -1,0 -1,0 -2,0 0,0 0,-1 0,-1l0 -3 1 0 0 3c0,0 0,0 0,0 0,0 0,0 1,0 0,0 0,0 0,0 0,0 0,0 0,0l0 -3 1 0 0 3zm4 1l-3 0 0 -4 2 0 0 3 1 0 0 1zm4 0l-3 0 0 -4 1 0 0 3 2 0 0 1zm6 -1c0,0 0,1 0,1 -1,0 -1,0 -2,0 0,0 -1,0 -1,0 0,0 0,0 0,0l0 -1 0 0c0,0 0,0 0,0 1,0 1,0 1,0 0,0 0,0 0,0 1,0 1,0 1,0 0,0 0,0 0,0 0,0 0,0 0,0 0,0 0,0 0,0 0,0 0,0 0,0 -1,0 -1,0 -1,0 0,0 0,0 0,0 -1,-1 -1,-1 -1,-1 0,0 0,0 0,-1 0,0 0,0 0,0 0,-1 1,-1 1,-1 1,0 1,0 1,0 0,0 1,0 1,1l0 0 0 0c0,0 -1,0 -1,0 0,0 0,0 -1,0 0,0 0,0 0,0 0,0 0,0 0,0 0,0 0,0 0,0 0,0 0,0 0,0 0,0 0,1 0,1 0,0 0,0 0,0 0,0 1,0 1,0 0,0 0,0 0,0 0,0 1,0 1,0 0,0 0,1 0,1zm4 -2l-1 0 0 3 -1 0 0 -3 -2 0 0 -1 4 0 0 1zm5 3l-2 0 0 -1 -1 0 -1 1 -1 0 2 -4 1 0 2 4zm-2 -1l-1 -2 0 2 1 0zm4 1c0,0 -1,0 -1,0 0,0 0,0 0,0 -1,0 -1,-1 -1,-1 0,0 0,0 0,-1 0,0 0,0 0,-1 0,0 0,0 1,0 0,0 0,-1 0,-1 0,0 1,0 1,0 0,0 0,0 1,0 0,0 0,0 0,0 0,0 0,0 0,0 0,0 0,1 1,1l0 0 -1 0c0,0 0,0 0,0 0,0 0,0 0,0 0,0 0,0 0,0 -1,0 -1,0 -1,0 0,0 0,0 0,0 0,0 0,0 -1,0 0,0 0,0 0,1 0,0 0,0 0,0 0,0 0,1 0,1 0,0 0,0 0,0 1,0 1,0 1,0 0,0 0,0 0,0 0,0 0,0 1,0 0,0 0,0 0,0 0,0 0,0 0,0 0,0 0,0 0,0l1 0 0 1c-1,0 -1,0 -1,0 0,0 0,0 0,0 0,0 0,0 0,0 -1,0 -1,0 -1,0zm6 0l-1 0 -1 -1 -1 0 0 1 -1 0 0 -4 1 0 0 2 2 -2 1 0 -1 2 1 2z"/>
   <path class="fil2" d="M30 16c0,1 0,1 0,1 0,1 -1,1 -1,1 -1,0 -1,0 -1,0 0,0 -1,-1 -1,-1l0 -1 0 0c0,1 1,1 1,1 0,0 0,0 1,0 0,0 0,0 0,0 0,0 0,0 0,0 0,0 0,0 0,0 0,0 0,0 0,0 0,-1 0,-1 0,-1 0,0 0,0 0,0 0,0 0,0 -1,0 0,0 0,0 0,0 0,0 -1,0 -1,0 0,-1 0,-1 0,-1 0,0 0,-1 1,-1 0,0 0,0 1,0 0,0 0,0 1,0 0,0 0,0 0,0l0 1 0 0c0,0 0,0 -1,0 0,-1 0,-1 0,-1 0,0 0,0 0,0 -1,0 -1,0 -1,1 0,0 0,0 0,0 0,0 0,0 0,0 0,0 0,0 0,0 0,0 0,0 1,0 0,0 0,0 0,0 0,0 0,0 0,0 1,0 1,1 1,1 0,0 0,0 0,0zm5 0c0,0 -1,1 -1,1 0,0 -1,1 -1,1 -1,0 -1,-1 -2,-1 0,0 0,-1 0,-1 0,-1 0,-1 0,-2 1,0 1,0 2,0 0,0 1,0 1,0 0,1 1,1 1,2zm-2 1c0,0 1,-1 1,-1 0,0 0,0 0,0 0,-1 0,-1 0,-1 0,0 -1,0 -1,0 0,0 0,0 0,0 0,-1 0,-1 0,-1 0,0 -1,0 -1,1 0,0 0,0 0,0 0,0 0,0 0,0 0,0 0,0 0,1 0,0 0,0 0,0 0,0 0,1 0,1 0,0 0,0 0,0 0,0 1,0 1,0 0,0 0,0 0,0 0,0 0,0 0,0zm5 -2l-2 0 0 0 2 0 0 1 -2 0 0 2 -1 0 0 -4 3 0 0 1zm4 0l-1 0 0 3 -1 0 0 -3 -2 0 0 -1 4 0 0 1zm6 -1l-1 4 -2 0 0 -3 -1 3 -1 0 -1 -4 1 0 1 2 0 -2 1 0 1 2 1 -2 1 0zm4 4l-1 0 -1 -1 -1 0 0 1 -1 0 1 -4 1 0 2 4zm-2 -2l0 -1 -1 1 1 0zm4 -1c0,0 0,0 0,0 0,0 0,0 0,0 0,0 0,0 0,0 0,0 0,0 0,0l-1 0 0 1 1 0c0,0 0,0 0,-1 0,0 0,0 0,0 0,0 0,0 0,0 0,0 0,0 0,0zm2 3l-1 0 -1 -2 -1 0 0 2 -1 0 0 -4 2 0c0,0 0,0 0,0 1,0 1,0 1,0 0,0 0,0 0,0 0,0 0,1 0,1 0,0 0,0 0,1 0,0 0,0 0,0l1 2zm3 0l-3 0 0 -4 3 0 0 1 -2 0 0 0 2 0 0 1 -2 0 0 1 2 0 0 1zm6 -2c0,0 0,0 0,1 0,0 0,0 -1,0 0,0 0,0 0,1 0,0 -1,0 -1,0l-1 0 0 -4 1 0c0,0 1,0 1,0 0,0 0,0 0,0 1,0 1,0 1,1 0,0 0,0 0,1zm-1 0c0,-1 0,-1 0,-1 0,0 0,0 0,0 0,0 -1,0 -1,0 0,0 0,0 0,0l0 0 0 2 0 0c0,0 0,0 0,0 1,0 1,0 1,0 0,0 0,-1 0,-1 0,0 0,0 0,0zm5 2l-3 0 0 -4 3 0 0 1 -2 0 0 0 2 0 0 1 -2 0 0 1 2 0 0 1zm4 -4l-1 4 -1 0 -2 -4 1 0 1 2 1 -2 1 0zm3 4l-2 0 0 -4 2 0 0 1 -1 0 0 0 1 0 0 1 -1 0 0 1 1 0 0 1zm4 0l-3 0 0 -4 1 0 0 3 2 0 0 1zm4 -2c0,0 0,1 0,1 -1,0 -1,1 -2,1 0,0 -1,-1 -1,-1 -1,0 -1,-1 -1,-1 0,-1 0,-1 1,-2 0,0 1,0 1,0 1,0 1,0 2,0 0,1 0,1 0,2zm-1 1c0,0 0,-1 0,-1 0,0 0,0 0,0 0,-1 0,-1 0,-1 0,0 0,0 0,0 0,0 0,0 0,0 -1,-1 -1,-1 -1,-1 0,0 0,0 0,1 0,0 0,0 0,0 -1,0 -1,0 -1,0 0,0 0,0 0,1 0,0 0,0 0,0 0,0 0,1 0,1 1,0 1,0 1,0 0,0 0,0 0,0 0,0 0,0 1,0 0,0 0,0 0,0zm5 -2c0,0 0,0 0,1 0,0 0,0 0,0 -1,0 -1,0 -1,0 0,0 0,0 -1,0l0 0 0 2 -1 0 0 -4 1 0c1,0 1,0 1,0 0,0 0,0 1,0 0,0 0,0 0,0 0,1 0,1 0,1zm-1 0c0,0 0,0 0,0 0,0 0,0 0,0 0,0 -1,0 -1,0 0,0 0,0 0,0l0 0 0 1 0 0c0,0 0,0 1,0 0,0 0,0 0,-1 0,0 0,0 0,0 0,0 0,0 0,0zm4 3l-2 0 0 -4 2 0 0 1 -1 0 0 0 1 0 0 1 -1 0 0 1 1 0 0 1zm3 -3c0,0 0,0 0,0 0,0 0,0 0,0 0,0 0,0 0,0 0,0 0,0 0,0l-1 0 0 1 0 0c1,0 1,0 1,-1 0,0 0,0 0,0 0,0 0,0 0,0 0,0 0,0 0,0zm2 3l-1 0 -1 -2 -1 0 0 2 -1 0 0 -4 2 0c0,0 0,0 0,0 1,0 1,0 1,0 0,0 0,0 0,0 0,0 0,1 0,1 0,0 0,0 0,1 0,0 0,0 0,0l1 2z"/>
   <g>
    <path class="fil3" d="M28 21c0,0 0,0 0,0 -1,0 -1,-1 -1,-1 0,0 0,0 0,0 0,0 0,0 0,0 0,0 0,0 0,-1 0,0 0,0 0,0 0,0 0,0 1,0 0,0 0,0 0,0 0,0 0,0 0,0 0,0 0,0 0,0 0,0 0,0 0,0 0,0 1,0 1,0l0 1 -1 0c0,0 0,-1 0,-1 0,0 0,0 0,0 0,0 0,0 0,0 0,0 0,0 0,0 0,0 0,0 0,0 0,0 0,0 0,0 0,0 0,1 0,1 0,0 0,0 0,0 0,0 0,0 0,0 0,0 0,0 0,0 0,0 0,0 0,0 0,0 0,0 0,0 0,0 0,0 0,0 0,0 0,0 0,0 0,0 0,0 0,0 0,0 0,0 0,0l1 0 0 0c0,0 -1,1 -1,1 0,0 0,0 0,0 0,0 0,0 0,0 0,0 0,0 0,0zm2 -1l0 0c0,0 0,0 0,0 0,0 0,0 0,0 0,0 0,0 0,0 0,0 0,0 0,0l0 1 -1 0 0 -2 1 0 0 1c0,0 0,-1 0,-1 0,0 0,0 0,0 0,0 0,0 0,0 0,0 0,0 0,0l0 1zm2 0l-1 0c0,0 0,0 0,0 0,0 0,0 0,0 0,0 1,0 1,0 0,0 0,0 0,0l0 0 0 1c0,0 0,0 0,0 0,0 -1,0 -1,0 0,0 0,0 0,-1 0,0 0,0 0,0 0,0 0,0 0,0 0,-1 0,-1 0,-1 0,0 1,0 1,1 0,0 0,0 0,0l0 0zm-1 0c0,0 0,0 0,0 0,0 0,0 0,0 0,0 0,0 0,0 0,0 0,0 0,0l0 0zm2 0l0 0c0,0 0,0 0,0 0,0 0,0 0,0 0,0 0,0 0,0 0,0 0,0 0,0 0,0 0,0 0,0 0,0 0,0 0,0 0,0 0,0 0,0 0,0 0,0 0,0 0,0 0,0 0,0 0,0 0,0 0,0zm0 0c0,0 0,0 0,1 0,0 0,0 0,0 0,0 0,0 0,0 0,0 0,0 0,0 0,0 0,0 0,0 -1,-1 -1,-1 -1,-1 0,0 0,0 0,0 1,0 1,0 1,0 0,0 0,0 0,0 0,0 0,0 0,0l0 0c0,0 0,0 0,0 0,0 0,0 0,0 0,0 0,0 0,0 0,0 0,0 0,0l0 0 0 -1c0,0 0,0 0,0 0,0 0,0 0,0 0,0 0,0 1,0 0,1 0,1 0,1l0 1 -1 0 0 -1zm2 1c0,0 0,0 0,0 0,0 0,0 0,0 0,0 0,0 0,0 -1,-1 -1,-1 -1,-1l0 0 0 0 0 -1 0 0 0 0 1 0 0 0 0 0 0 1 0 0 0 0c0,0 0,0 0,0 0,0 0,0 0,0 0,0 0,0 0,0 0,0 0,0 0,0 0,0 0,0 0,0 0,0 0,0 0,0l0 0 0 1zm1 0l0 0 0 -2 0 0 0 2zm0 -2l0 0 0 0 0 0 0 0zm2 0l0 2 -1 0 0 -2 0 0 0 1 1 -1 0 0zm2 1l-1 0c0,0 0,0 0,0 0,0 0,0 0,0 1,0 1,0 1,0 0,0 0,0 0,0l0 0 0 1c0,0 0,0 0,0 0,0 -1,0 -1,0 0,0 0,0 0,-1 0,0 0,0 0,0 0,0 0,0 0,0 0,-1 0,-1 0,-1 1,0 1,0 1,1 0,0 0,0 0,0l0 0zm0 0c0,0 0,0 -1,0 0,0 0,0 0,0 0,0 0,0 0,0 0,0 0,0 0,0l1 0zm1 0l0 1 -1 0 1 -1 0 0zm2 1l-1 0 0 -1 0 0 0 -1 0 0 0 0 1 0 0 0 0 0 0 1 0 0 0 1zm2 0l0 0 0 -1c0,0 0,0 0,0 0,0 0,0 0,0 0,0 0,0 0,0 0,0 -1,0 -1,0 0,0 0,0 0,0 0,0 0,0 0,0l0 1 0 0 0 -2 0 0 0 1c0,0 0,-1 0,-1 0,0 1,0 1,0 0,0 0,0 0,1 0,0 0,0 0,0l0 1zm2 0c0,0 -1,0 -1,0 0,0 0,0 0,0 0,0 0,0 0,0 0,-1 0,-1 0,-1l0 0 0 0 0 -1 0 0 0 0 0 0 0 0 1 0 0 1 -1 0 0 0c0,0 0,0 0,0 0,0 0,0 0,0 0,0 0,0 0,0 0,0 0,0 0,0 0,0 0,0 0,0 1,0 1,0 1,0l0 0 0 1zm1 -1l-1 0c0,0 1,0 1,0 0,0 0,0 0,0 0,0 0,0 0,0 0,0 0,0 0,0l0 0 0 1c0,0 0,0 0,0 0,0 0,0 0,0 0,0 -1,0 -1,-1 0,0 0,0 0,0 0,0 0,0 0,0 0,-1 1,-1 1,-1 0,0 0,0 0,1 0,0 0,0 0,0l0 0zm0 0c0,0 0,0 0,0 0,0 0,0 0,0 0,0 0,0 0,0 0,0 -1,0 -1,0l1 0zm1 1l0 0 0 -2 0 0 0 2zm2 0l-1 0 0 -2 1 0 0 2zm1 0l-1 0 0 -2 1 0 0 2zm0 -2l-1 0 0 0 1 0 0 0zm2 1c0,1 0,1 0,1 0,0 -1,0 -1,0 0,0 0,0 0,0 0,0 0,0 0,0 0,0 0,0 0,0 0,0 -1,0 -1,0l0 0 0 0c0,0 1,0 1,0 0,0 0,0 0,0 0,0 0,0 0,0 0,0 0,0 0,0 0,0 0,0 0,0 0,0 0,0 0,-1l0 0c0,0 0,1 0,1 0,0 0,0 0,0 0,0 0,0 -1,-1 0,0 0,0 0,0 0,0 0,0 0,0 0,0 0,0 0,0 0,0 1,-1 1,-1 0,0 0,0 0,0 0,0 0,0 0,0 0,0 0,0 0,0l0 0 1 0 0 1zm-1 0l0 0c0,0 0,0 0,0 0,0 0,0 0,0 0,0 0,0 0,0 0,0 0,0 0,0 0,0 0,0 0,0 0,0 0,0 0,0 0,0 0,0 0,0 0,0 0,0 0,0zm3 0l-1 0c0,0 0,0 0,0 0,0 0,0 0,0 0,0 0,0 0,0 0,0 0,0 0,0l1 0 0 1c-1,0 -1,0 -1,0 0,0 0,0 0,0 0,0 0,0 -1,-1 0,0 0,0 0,0 0,0 0,0 0,0 1,-1 1,-1 1,-1 0,0 0,0 0,1 1,0 1,0 1,0l0 0zm-1 0c0,0 0,0 0,0 0,0 0,0 0,0 0,0 0,0 0,0 0,0 0,0 0,0l0 0zm2 1l0 0 0 -1c0,0 0,0 0,0 0,0 0,0 0,0 0,0 0,0 0,0 0,0 0,0 0,0 0,0 0,0 0,0 0,0 0,0 0,0l0 1 -1 0 0 -2 1 0 0 1c0,0 0,-1 0,-1 0,0 0,0 0,0 0,0 0,0 0,1 0,0 0,0 0,0l0 1zm2 0c0,0 0,0 0,0 0,0 0,0 0,0 -1,0 -1,0 -1,0 0,-1 0,-1 0,-1l0 0 0 0 0 -1 0 0 0 0 1 0 0 0 0 0 0 1 0 0 0 0c0,0 0,0 0,0 0,0 0,0 0,0 0,0 0,0 0,0 0,0 0,0 0,0 0,0 0,0 0,0 0,0 0,0 0,0l0 0 0 1zm1 -1l0 1 -1 0 1 -1 0 0zm3 0c0,0 -1,0 -1,0 0,1 0,1 0,1 0,0 -1,0 -1,0 0,0 0,0 0,-1l0 0 0 0c0,0 0,0 0,0 1,0 1,0 1,0 0,0 0,0 0,0 0,0 0,0 0,0 0,0 0,0 0,0 0,0 0,0 0,0 0,0 0,0 0,0 0,0 0,0 0,0 0,0 0,0 0,0 0,0 0,0 -1,0 0,0 0,0 0,0 0,0 0,0 0,0 0,-1 0,-1 0,-1 0,0 1,0 1,0 0,0 0,0 0,0 0,0 0,0 0,0l0 0 0 0c0,0 0,0 0,0 0,0 0,0 0,0 0,0 0,0 0,0 0,0 0,0 0,0 0,0 0,0 0,0 0,0 0,0 0,0 0,0 0,1 0,1 0,0 0,0 0,0 0,0 0,0 0,0 0,0 0,0 0,0 0,0 0,0 0,0 1,0 1,0 1,0zm1 1c0,0 0,0 -1,0 0,0 0,0 0,-1 0,0 0,0 0,0 0,0 0,0 0,0 0,0 0,0 0,0 0,0 0,0 0,0 0,-1 0,-1 1,-1 0,0 0,0 0,0 0,0 0,0 0,0 0,0 0,0 0,0l0 1 0 0c0,0 0,0 0,0 0,0 0,0 0,0 0,0 0,0 0,0 0,0 0,0 0,0 0,0 0,0 0,0 -1,0 -1,0 -1,0 0,0 0,0 1,0 0,0 0,0 0,0 0,0 0,0 0,0 0,0 0,0 0,0 0,0 0,0 0,0 0,0 0,0 0,0l0 0 0 1c0,0 0,0 0,0 0,0 0,0 0,0zm2 -1l0 0c0,0 -1,0 -1,0 0,0 0,0 0,0 0,0 0,0 0,0 0,0 0,0 0,0 0,0 0,0 0,0 0,0 0,0 0,0 0,0 0,0 0,0 0,0 0,0 0,0 0,0 0,0 0,0 1,0 1,0 1,0zm0 0c0,0 0,0 0,1 -1,0 -1,0 -1,0 0,0 0,0 0,0 0,0 0,0 0,0 0,0 0,0 0,0 0,-1 0,-1 0,-1 0,0 0,0 0,0 0,0 0,0 0,0 0,0 0,0 0,0 0,0 0,0 1,0l0 0c0,0 0,0 0,0 -1,0 -1,0 -1,0 0,0 0,0 0,0 0,0 0,0 0,0l0 0 0 -1c0,0 0,0 0,0 0,0 0,0 0,0 1,0 1,0 1,0 0,1 0,1 0,1l0 1 0 0 0 -1zm1 1l0 0 0 -2 0 0 0 2zm2 -1l0 0c0,0 -1,0 -1,0 0,0 0,0 0,0 0,0 0,0 0,0 0,0 0,0 0,0 0,0 0,0 0,0 0,0 0,0 0,0 0,0 0,0 0,0 0,0 0,0 0,0 0,0 0,0 0,0 1,0 1,0 1,0zm0 0c0,0 0,0 -1,1 0,0 0,0 0,0 0,0 0,0 0,0 0,0 0,0 0,0 0,0 0,0 0,0 0,-1 0,-1 0,-1 0,0 0,0 0,0 0,0 0,0 0,0 0,0 0,0 0,0 0,0 0,0 1,0l0 0c0,0 0,0 -1,0 0,0 0,0 0,0 0,0 0,0 0,0 0,0 0,0 0,0l0 0 0 -1c0,0 0,0 0,0 0,0 0,0 0,0 1,0 1,0 1,0 0,1 0,1 0,1l0 1 0 0 0 -1zm2 0c0,0 0,0 0,0 0,1 0,1 -1,1 0,0 0,0 0,0 0,0 0,0 0,0l0 0 0 0 0 -2 0 0 0 1c0,0 0,-1 0,-1 0,0 0,0 1,0 0,0 0,0 0,1 0,0 0,0 0,0zm0 0c0,0 0,0 0,0 -1,0 -1,0 -1,0 0,0 0,0 0,0 0,0 0,0 0,0l0 0c0,0 0,0 0,0 0,0 0,0 0,0 0,0 0,0 1,0 0,0 0,0 0,0zm1 1l0 0 0 -2 0 0 0 2zm2 -1l-1 0c0,0 0,0 0,0 0,0 0,0 0,0 1,0 1,0 1,0 0,0 0,0 0,0l0 0 0 1c0,0 0,0 0,0 0,0 0,0 -1,0 0,0 0,0 0,-1 0,0 0,0 0,0 0,0 0,0 0,0 0,-1 0,-1 0,-1 1,0 1,0 1,1 0,0 0,0 0,0l0 0zm0 0c0,0 0,0 0,0 -1,0 -1,0 -1,0 0,0 0,0 0,0 0,0 0,0 0,0l1 0zm2 0l0 0c0,0 0,0 0,0 0,0 0,0 0,0 -1,0 -1,0 -1,0 0,0 0,0 0,0 0,0 0,0 0,0 0,0 0,0 0,0 0,0 0,0 1,0 0,0 0,0 0,0 0,0 0,0 0,0 0,0 0,0 0,0zm0 0c0,0 0,0 0,1 0,0 0,0 0,0 0,0 0,0 0,0 0,0 -1,0 -1,0 0,0 0,0 0,0 0,-1 0,-1 0,-1 0,0 0,0 0,0 0,0 0,0 0,0 0,0 0,0 1,0 0,0 0,0 0,0l0 0c0,0 0,0 0,0 0,0 0,0 0,0 -1,0 -1,0 -1,0 0,0 0,0 0,0l0 0 0 -1c0,0 0,0 0,0 0,0 1,0 1,0 0,0 0,0 0,0 0,1 0,1 0,1l0 1 0 0 0 -1zm2 1l0 0 0 -1c0,0 0,0 0,0 0,0 0,0 0,0 0,0 0,0 0,0 0,0 0,0 0,0 0,0 0,0 -1,0 0,0 0,0 0,0l0 1 0 0 0 -2 0 0 0 1c0,0 1,-1 1,-1 0,0 0,0 0,0 0,0 0,0 0,1 0,0 0,0 0,0l0 1zm2 0l0 0 0 -1c0,1 0,1 0,1 0,0 -1,0 -1,0 0,0 0,0 0,-1 0,0 0,0 0,0 0,0 0,0 0,0 0,0 0,0 0,0 0,0 0,-1 0,-1 0,0 0,0 0,0 1,0 1,0 1,0 0,0 0,0 0,0l0 0 0 0 0 2zm0 -1l0 0c0,0 0,0 0,0 0,0 0,0 0,0 -1,0 -1,0 -1,0 0,0 0,0 0,0 0,0 0,0 0,0 0,0 0,0 1,0 0,0 0,0 0,0 0,0 0,0 0,0zm3 0c0,0 0,0 0,0 0,0 0,0 0,0 0,0 -1,1 -1,1 0,0 0,0 0,0l-1 0 0 -2 1 0c0,0 0,0 0,0 0,0 1,0 1,0 0,0 0,0 0,0 0,1 0,1 0,1zm0 0c0,0 0,0 -1,0 0,-1 0,-1 0,-1 0,0 0,0 0,0 0,0 0,0 0,0l0 0 0 1 0 0c0,0 0,0 0,0 0,0 0,0 0,0 0,0 0,0 0,0 1,0 1,0 1,0zm2 0l-1 0c0,0 0,0 0,0 0,0 0,0 0,0 0,0 1,0 1,0 0,0 0,0 0,0l0 0 0 1c0,0 0,0 0,0 -1,0 -1,0 -1,0 0,0 0,0 0,-1 0,0 0,0 0,0 0,0 0,0 0,0 0,-1 0,-1 0,-1 0,0 1,0 1,1 0,0 0,0 0,0l0 0zm-1 0c0,0 0,0 0,0 0,0 0,0 0,0 0,0 0,0 0,0 0,0 0,0 0,0l0 0zm2 1l-1 0 0 -2 1 0 0 2zm1 0l0 0 0 -2 0 0 0 2zm0 -2l0 0 0 0 0 0 0 0zm2 0l-1 2 0 0 0 -2 0 0 0 1 1 -1 0 0zm2 1l-1 0c0,0 0,0 0,0 0,0 0,0 0,0 0,0 0,0 1,0 0,0 0,0 0,0l0 0 0 1c0,0 0,0 0,0 -1,0 -1,0 -1,0 0,0 0,0 0,-1 0,0 -1,0 -1,0 0,0 1,0 1,0 0,-1 0,-1 0,-1 0,0 1,0 1,1 0,0 0,0 0,0l0 0zm-1 0c0,0 0,0 0,0 0,0 0,0 0,0 0,0 0,0 0,0 0,0 0,0 0,0l0 0zm2 0l0 0c0,0 0,0 0,0 0,0 0,0 0,0 0,0 0,0 0,0 0,0 0,0 0,0l0 1 -1 0 0 -2 1 0 0 1c0,0 0,-1 0,-1 0,0 0,0 0,0 0,0 0,0 0,0 0,0 0,0 0,0l0 1zm2 0l-1 0c0,0 0,0 0,0 0,0 0,0 1,0 0,0 0,0 0,0 0,0 0,0 0,0l0 0 0 1c0,0 0,0 0,0 0,0 0,0 0,0 -1,0 -1,0 -1,-1 0,0 0,0 0,0 0,0 0,0 0,0 0,-1 0,-1 1,-1 0,0 0,0 0,1 0,0 0,0 0,0l0 0zm0 0c0,0 0,0 0,0 0,0 0,0 -1,0 0,0 0,0 0,0 0,0 0,0 0,0l1 0z"/>
    <path class="fil3" d="M96 21l0 0 0 -1c-1,1 -1,1 -1,1 0,0 0,0 0,0 0,0 0,0 0,-1 0,0 0,0 0,0 0,0 0,0 0,0 0,0 0,0 0,0 0,0 0,-1 0,-1 0,0 0,0 0,0 0,0 0,0 0,0 0,0 1,0 1,0l0 0 0 0 0 2zm0 -1l0 0c0,0 0,0 -1,0 0,0 0,0 0,0 0,0 0,0 0,0 0,0 0,0 0,0 0,0 0,0 0,0 0,0 0,0 0,0 0,0 0,0 0,0 1,0 1,0 1,0z"/>
   </g>
  </g>
  <rect class="fil4 str1" x="1" y="1" width="20.125" height="20.125"/>
  <g id="_1981227304272">
   <rect class="fil5" x="1" y="1" width="6.52733" height="20.125"/>
   <path class="fil0" d="M1 16c1,0 2,0 2,0 0,0 0,-1 0,-2l0 -11 4 0 0 11c0,2 0,3 -1,4 -1,0 -2,1 -4,1l-1 -3z"/>
  </g>
  <g id="_1981227304336">
   <rect class="fil6" x="8" y="1" width="13.249" height="20.125"/>
   <polygon class="fil7" points="8,15 8,3 12,3 12,9 16,3 20,3 15,9 21,15 17,15 12,10 12,15 "/>
  </g>
 </g>
</svg>
