<?xml version="1.0" encoding="UTF-8"?>
<!DOCTYPE svg PUBLIC "-//W3C//DTD SVG 1.1//EN" "http://www.w3.org/Graphics/SVG/1.1/DTD/svg11.dtd">
<!-- Creator: CorelDRAW X7 -->
<svg xmlns="http://www.w3.org/2000/svg" xml:space="preserve" width="200px" height="44px" version="1.1" style="shape-rendering:geometricPrecision; text-rendering:geometricPrecision; image-rendering:optimizeQuality; fill-rule:evenodd; clip-rule:evenodd"
viewBox="0 0 200 44"
 xmlns:xlink="http://www.w3.org/1999/xlink">
 <defs>
  <style type="text/css">
   <![CDATA[
    .str1 {stroke:#46344E;stroke-width:0.694291}
    .str0 {stroke:#46344E;stroke-width:0.15}
    .fil4 {fill:#46344E}
    .fil6 {fill:#FEFFFF}
    .fil2 {fill:#5A5560;fill-rule:nonzero}
    .fil3 {fill:#9B786F;fill-rule:nonzero}
    .fil1 {fill:#9D8D8F;fill-rule:nonzero}
    .fil0 {fill:#FEFFFF;fill-rule:nonzero}
    .fil5 {fill:url(#id0)}
    .fil7 {fill:url(#id1);fill-rule:nonzero}
   ]]>
  </style>
  <linearGradient id="id0" gradientUnits="userSpaceOnUse" x1="1.84035" y1="21.875" x2="14.8949" y2="21.875">
   <stop offset="0" style="stop-opacity:1; stop-color:#5A5560"/>
   <stop offset="1" style="stop-opacity:1; stop-color:#46344E"/>
  </linearGradient>
  <linearGradient id="id1" gradientUnits="userSpaceOnUse" x1="16.6783" y1="18.4872" x2="41.5665" y2="18.4872">
   <stop offset="0" style="stop-opacity:1; stop-color:#9D8D8F"/>
   <stop offset="1" style="stop-opacity:1; stop-color:#46344E"/>
  </linearGradient>
 </defs>
 <g id="Layer_x0020_1">
  <metadata id="CorelCorpID_0Corel-Layer"/>
  <g id="_2584427400096">
   <path class="fil0 str0" d="M62 12c0,0 0,1 0,1 0,1 -1,1 -1,2 0,0 -1,0 -1,0 -1,1 -2,1 -3,1 0,0 -1,0 -1,0 -1,0 -1,0 -2,0l0 -3 0 0c1,0 1,0 1,0 1,0 1,0 2,0 0,0 1,0 1,0 0,0 1,0 1,-1 0,0 0,0 0,-1 0,0 0,0 0,-1l0 -5 -3 0 0 -3 6 0 0 10zm13 -1l-7 0c0,1 0,2 1,2 0,0 1,1 2,1 1,0 1,-1 2,-1 1,0 1,0 2,-1l0 0 0 3c-1,0 -2,1 -2,1 -1,0 -1,0 -2,0 -2,0 -4,-1 -5,-2 -1,0 -1,-2 -1,-3 0,-2 0,-3 1,-4 1,-1 2,-2 4,-2 2,0 3,1 4,2 1,0 1,2 1,3l0 1zm-3 -2c0,0 0,-1 -1,-1 0,0 0,-1 -1,-1 -1,0 -1,1 -2,1 0,0 0,1 0,1l4 0zm18 -5l0 0 0 0c-1,0 -1,0 -1,0 -1,0 -1,0 -1,0 -1,0 -1,1 -1,2l0 0 3 0 0 2 -3 0 0 8 -3 0 0 -8 -3 0 0 8 -3 0 0 -8 -2 0 0 -2 2 0 0 -1c0,-2 1,-3 3,-3 1,0 2,0 3,0l0 2 -1 0 0 0c0,0 -1,0 -1,0 0,0 -1,0 -1,0 0,0 0,1 0,2l0 0 3 0 0 -1c0,-2 2,-3 4,-3 1,0 2,0 2,0l0 2zm21 12l-4 0 -4 -6 -1 1 0 5 -3 0 0 -14 3 0 0 6 5 -6 4 0 -6 7 6 7zm4 0l-3 0 0 -10 3 0 0 10zm1 -12l-4 0 0 -2 4 0 0 2zm12 12l-3 0 0 -5c0,-1 0,-1 0,-2 0,0 0,0 0,0 0,-1 0,-1 -1,-1 0,0 0,0 -1,0 0,0 0,0 0,0 -1,0 -1,0 -1,1l0 7 -4 0 0 -10 4 0 0 1c0,-1 1,-1 1,-1 1,0 1,-1 2,-1 1,0 2,1 2,1 1,1 1,2 1,3l0 7zm13 -2c0,1 0,2 0,3 -1,0 -1,1 -2,1 0,1 -1,1 -1,1 -1,0 -2,0 -3,0 0,0 -1,0 -2,0 0,0 -1,0 -1,0l0 -3 0 0c0,1 1,1 1,1 1,0 2,0 2,0 1,0 1,0 1,0 1,0 1,0 1,-1 0,0 1,0 1,0 0,-1 0,-1 0,-1l0 -1c-1,1 -1,1 -2,1 0,0 0,0 -1,0 -1,0 -3,0 -3,-1 -1,-1 -1,-2 -1,-4 0,0 0,-1 0,-2 0,0 0,-1 1,-1 0,-1 1,-1 1,-1 1,0 1,-1 2,-1 1,0 1,0 2,1 0,0 0,0 1,0l0 0 3 0 0 8zm-3 -2l0 -4c0,0 -1,0 -1,0 0,0 0,0 -1,0 0,0 -1,0 -1,0 -1,1 -1,2 -1,2 0,1 0,2 0,2 1,1 1,1 2,1 0,0 1,0 1,0 0,0 1,0 1,-1z"/>
   <path class="fil1" d="M60 20l-4 0 0 2 4 0 0 1 -4 0 0 3 -2 0 0 -7 6 0 0 1zm9 3c0,1 0,2 -1,3 -1,0 -2,0 -3,0 -1,0 -2,0 -3,0 0,-1 0,-2 0,-3l0 -4 2 0 0 4c0,1 0,1 0,2 0,0 1,0 1,0 1,0 1,0 1,0 1,-1 1,-1 1,-2l0 -4 2 0 0 4zm8 3l-6 0 0 -7 2 0 0 6 4 0 0 1zm7 0l-6 0 0 -7 2 0 0 6 4 0 0 1zm12 -2c0,1 0,1 -1,2 -1,0 -2,0 -3,0 0,0 -1,0 -2,0 0,0 -1,0 -1,0l0 -2 0 0c1,0 1,1 2,1 0,0 1,0 1,0 0,0 1,0 1,0 0,0 0,0 0,0 1,0 1,0 1,0 0,0 0,-1 0,-1 0,0 0,0 0,0 0,0 -1,0 -1,-1 0,0 -1,0 -1,0 0,0 -1,0 -1,0 -1,0 -1,0 -1,-1 -1,0 -1,-1 -1,-1 0,-1 0,-1 1,-2 1,0 2,0 3,0 0,0 1,0 1,0 1,0 1,0 2,0l0 2 0 0c-1,0 -1,-1 -2,-1 0,0 -1,0 -1,0 0,0 -1,0 -1,0 0,0 0,0 0,0 0,0 0,0 -1,0 0,0 0,1 0,1 0,0 0,0 1,0 0,0 0,0 0,0 1,0 1,1 1,1 1,0 1,0 1,0 1,0 1,0 2,1 0,0 0,0 0,1zm8 -4l-2 0 0 6 -3 0 0 -6 -2 0 0 -1 7 0 0 1zm9 6l-2 0 -1 -1 -3 0 0 1 -2 0 3 -7 2 0 3 7zm-3 -3l-1 -2 -1 2 2 0zm8 3c-1,0 -1,0 -2,0 0,0 -1,0 -1,-1 0,0 -1,0 -1,-1 0,0 0,-1 0,-2 0,0 0,-1 0,-1 0,-1 1,-1 1,-1 0,-1 1,-1 1,-1 1,0 1,0 2,0 0,0 1,0 1,0 0,0 1,0 1,0 0,0 0,0 1,0 0,0 0,0 0,0l0 2 0 0c0,0 0,0 -1,0 0,0 0,-1 0,-1 0,0 -1,0 -1,0 0,0 0,0 -1,0 0,0 0,0 0,0 -1,0 -1,0 -1,1 0,0 -1,0 -1,0 0,1 0,1 0,1 0,1 0,1 0,2 0,0 1,0 1,0 0,1 0,1 1,1 0,0 0,0 0,0 1,0 1,0 1,0 0,0 1,0 1,0 0,-1 0,-1 0,-1 1,0 1,0 1,0l0 0 0 2c0,0 0,0 -1,0 0,0 0,0 0,0 0,0 -1,0 -1,0 0,0 0,0 -1,0zm12 0l-2 0 -3 -3 0 1 0 2 -2 0 0 -7 2 0 0 3 3 -3 2 0 -3 3 3 4z"/>
   <path class="fil2" d="M61 33c0,1 -1,1 -1,2 -1,0 -2,0 -3,0 -1,0 -1,0 -2,0 0,0 0,0 -1,0l0 -2 0 0c1,0 1,1 2,1 0,0 1,0 1,0 0,0 0,0 1,0 0,0 0,0 0,0 0,0 0,0 0,0 1,-1 1,-1 1,-1 0,0 0,0 -1,0 0,0 0,0 0,-1 0,0 -1,0 -1,0 0,0 -1,0 -1,0 -1,0 -1,0 -1,-1 -1,0 -1,-1 -1,-1 0,-1 1,-1 1,-2 1,0 2,-1 3,-1 0,0 1,1 1,1 1,0 1,0 1,0l0 2 0 0c0,-1 -1,-1 -1,-1 0,0 -1,0 -1,0 -1,0 -1,0 -1,0 0,0 0,0 0,0 0,0 -1,0 -1,0 0,0 0,0 0,1 0,0 0,0 0,0 1,0 1,0 1,0 1,0 1,0 1,1 0,0 1,0 1,0 1,0 1,0 1,1 0,0 1,0 1,1zm8 -2c0,2 0,3 -1,3 0,1 -1,1 -3,1 -1,0 -2,0 -2,-1 -1,0 -1,-1 -1,-3 0,-1 0,-2 1,-2 0,-1 1,-2 2,-2 2,0 3,1 3,2 1,0 1,1 1,2zm-2 2c0,0 0,0 0,0 0,-1 0,-1 0,-2 0,0 0,0 0,-1 0,0 0,0 0,-1 0,0 -1,0 -1,0 0,0 0,0 -1,0 0,0 0,0 0,0 0,0 -1,0 -1,0 0,1 0,1 0,1 0,1 0,1 0,1 0,1 0,1 0,2 0,0 0,0 0,0 0,1 0,1 1,1 0,0 0,0 0,0 1,0 1,0 1,0 0,0 1,0 1,-1zm9 -4l-3 0 0 1 3 0 0 2 -3 0 0 3 -2 0 0 -7 5 0 0 1zm8 0l-3 0 0 6 -2 0 0 -6 -2 0 0 -1 7 0 0 1zm11 -1l-2 7 -2 0 -1 -5 -2 5 -2 0 -2 -7 2 0 1 5 2 -5 2 0 1 5 1 -5 2 0zm8 7l-2 0 0 -1 -3 0 0 1 -2 0 2 -7 3 0 2 7zm-3 -3l0 -2 -1 2 1 0zm9 -2c0,0 0,0 0,-1 0,0 -1,0 -1,0 0,0 0,0 0,0 0,0 -1,0 -1,0l0 0 0 2 0 0c0,0 1,0 1,0 0,0 0,0 0,0 1,0 1,0 1,-1 0,0 0,0 0,0zm3 5l-3 0 -2 -3 0 0 0 3 -2 0 0 -7 3 0c0,0 1,0 1,0 0,0 1,0 1,0 0,0 0,0 1,1 0,0 0,0 0,1 0,0 0,1 -1,1 0,0 0,1 -1,1l3 3zm6 0l-5 0 0 -7 5 0 0 1 -3 0 0 1 3 0 0 2 -3 0 0 2 3 0 0 1zm13 -4c0,1 -1,2 -1,2 0,1 -1,1 -1,2 -1,0 -1,0 -1,0 -1,0 -1,0 -2,0l-3 0 0 -7 3 0c1,0 1,0 2,0 0,0 1,0 1,0 0,1 1,1 1,2 0,0 1,1 1,1zm-3 0c0,0 0,-1 0,-1 0,0 0,-1 -1,-1 0,0 0,0 0,0 0,0 -1,0 -1,0l-1 0 0 5 1 0c0,0 1,0 1,0 0,0 0,0 0,-1 1,0 1,0 1,0 0,-1 0,-1 0,-2zm9 4l-5 0 0 -7 5 0 0 1 -3 0 0 1 3 0 0 2 -3 0 0 2 3 0 0 1zm9 -7l-3 7 -2 0 -3 -7 2 0 2 5 2 -5 2 0zm7 7l-6 0 0 -7 6 0 0 1 -4 0 0 1 3 0 0 2 -3 0 0 2 4 0 0 1zm7 0l-6 0 0 -7 2 0 0 6 4 0 0 1zm8 -4c0,2 0,3 -1,3 -1,1 -1,1 -3,1 -1,0 -2,0 -3,-1 0,0 -1,-1 -1,-3 0,-1 1,-2 1,-2 1,-1 2,-2 3,-2 2,0 2,1 3,2 1,0 1,1 1,2zm-2 2c0,0 0,0 0,0 0,-1 0,-1 0,-2 0,0 0,0 0,-1 0,0 0,0 0,-1 -1,0 -1,0 -1,0 0,0 0,0 -1,0 0,0 0,0 0,0 -1,0 -1,0 -1,0 0,1 0,1 0,1 -1,1 -1,1 -1,1 0,1 0,1 1,2 0,0 0,0 0,0 0,1 0,1 1,1 0,0 0,0 0,0 1,0 1,0 1,0 0,0 0,0 1,-1zm10 -3c0,0 0,1 0,1 0,0 -1,1 -1,1 0,0 0,0 -1,0 0,1 -1,1 -1,1l-1 0 0 2 -2 0 0 -7 3 0c0,0 1,0 1,0 0,0 1,0 1,0 0,0 1,1 1,1 0,0 0,1 0,1zm-2 0c0,0 0,0 0,0 0,-1 -1,-1 -1,-1 0,0 0,0 0,0 0,0 -1,0 -1,0l0 0 0 2 0 0c1,0 1,0 1,0 0,0 0,0 1,0 0,0 0,0 0,0 0,-1 0,-1 0,-1zm9 5l-6 0 0 -7 6 0 0 1 -4 0 0 1 4 0 0 2 -4 0 0 2 4 0 0 1zm6 -5c0,0 0,0 0,-1 -1,0 -1,0 -1,0 0,0 0,0 0,0 0,0 -1,0 -1,0l-1 0 0 2 1 0c0,0 1,0 1,0 0,0 0,0 0,0 0,0 1,0 1,-1 0,0 0,0 0,0zm3 5l-3 0 -2 -3 -1 0 0 3 -2 0 0 -7 4 0c0,0 1,0 1,0 0,0 0,0 1,0 0,0 0,0 0,1 1,0 1,0 1,1 0,0 0,1 -1,1 0,0 0,1 -1,1l3 3z"/>
   <g>
    <path class="fil3" d="M56 41c0,0 -1,0 -1,0 0,0 0,0 0,0 -1,0 -1,0 -1,-1 0,0 0,0 0,0 0,-1 0,-1 0,-1 0,0 0,0 1,-1 0,0 0,0 0,0 0,0 1,0 1,0 0,0 0,0 0,0 0,0 0,0 1,0 0,0 0,0 0,0 0,0 0,0 0,0l0 1 0 0c0,0 0,0 0,0 0,0 0,0 0,0 0,0 -1,0 -1,0 0,0 0,0 0,0 0,0 0,0 0,0 0,0 -1,0 -1,0 0,0 0,0 0,0 0,0 0,0 0,1 0,0 0,0 0,0 0,0 0,0 0,0 0,0 1,1 1,1 0,0 0,0 0,0 0,0 0,0 0,0 0,0 1,0 1,-1 0,0 0,0 0,0 0,0 0,0 0,0l0 0 0 1c0,0 0,0 0,0 0,0 0,0 0,0 -1,0 -1,0 -1,0 0,0 0,0 0,0zm4 -1l0 0c0,0 0,0 0,0 0,0 0,0 0,0 0,0 0,0 -1,0 0,0 0,0 0,0l0 1 -1 0 0 -2 1 0 0 0c0,0 0,0 1,0 0,0 0,0 0,0 0,0 0,0 0,0 0,0 0,0 0,0l0 1zm4 0l-2 0c0,0 0,0 0,1 0,0 0,0 1,0 0,0 0,0 0,0 0,0 1,-1 1,-1l0 0 0 1c0,0 -1,0 -1,0 0,0 0,0 0,0 -1,0 -1,0 -2,0 0,0 0,-1 0,-1 0,0 0,-1 0,-1 1,0 1,0 2,0 0,0 0,0 0,0 1,0 1,1 1,1l0 0zm-1 0c0,0 0,-1 0,-1 0,0 0,0 -1,0 0,0 0,0 0,0 0,0 0,1 0,1l1 0zm4 1l0 -1c-1,0 -1,0 -1,0 0,0 0,0 0,0 0,0 0,0 0,0 0,0 0,0 0,0 0,0 0,1 0,1 0,0 0,0 0,0 0,0 0,0 0,0 0,0 0,0 0,0 0,0 0,0 0,0 0,0 0,0 1,0zm0 0c0,0 -1,0 -1,0 0,0 0,0 0,0 0,0 0,0 0,0 0,0 0,0 0,0 -1,0 -1,0 -1,0 0,0 0,0 0,-1 0,0 0,0 0,0 0,0 0,0 0,0 0,0 1,0 1,0 0,0 0,0 1,0l0 0c0,0 -1,-1 -1,-1 0,0 0,0 0,0 0,0 0,0 -1,0 0,0 0,0 0,0l0 0 0 0c0,0 0,0 0,0 1,0 1,0 1,0 1,0 1,0 1,0 0,0 0,0 0,1l0 1 0 0 0 0zm3 0c0,0 0,0 0,0 0,0 0,0 0,0 -1,0 -1,0 -1,0 0,0 0,0 0,-1l0 -1 -1 0 0 0 1 0 0 -1 1 0 0 1 0 0 0 0 0 0 0 1c0,0 0,0 0,0 0,0 0,0 0,1 0,0 0,0 0,0 0,0 0,0 0,0 0,0 0,0 0,0 0,0 0,0 0,0l0 0 0 0zm2 0l0 0 0 -2 0 0 0 2zm0 -2l-1 0 0 -1 1 0 0 1zm4 0l-1 2 -1 0 -1 -2 1 0 1 1 0 -1 1 0zm4 1l-2 0c0,0 0,0 0,1 0,0 1,0 1,0 0,0 0,0 0,0 1,0 1,-1 1,-1l0 0 0 1c0,0 0,0 -1,0 0,0 0,0 0,0 -1,0 -1,0 -1,0 -1,0 -1,-1 -1,-1 0,0 0,-1 1,-1 0,0 0,0 1,0 0,0 0,0 1,0 0,0 0,1 0,1l0 0zm-1 0c0,0 0,-1 0,-1 0,0 0,0 0,0 -1,0 -1,0 -1,0 0,0 0,1 0,1l1 0zm3 0l-1 2 0 0 0 -2 1 0zm4 1l-2 0 0 0 1 0 0 -2 -1 0 0 -1 2 0 0 1 0 0 0 2 0 0 0 0zm4 0l-1 0 0 -1c0,0 0,0 0,0 0,0 0,0 0,0 0,-1 0,-1 0,-1 0,0 0,0 0,0 0,0 0,0 0,0 0,0 -1,0 -1,1l0 1 0 0 0 -2 0 0 0 0c1,0 1,0 1,0 0,0 0,0 0,0 1,0 1,0 1,0 0,0 0,0 0,1l0 1zm3 0c0,0 0,0 0,0 0,0 0,0 0,0 -1,0 -1,0 -1,0 0,0 0,0 0,-1l0 -1 -1 0 0 0 1 0 0 -1 0 0 0 1 1 0 0 0 -1 0 0 1c0,0 0,0 0,0 0,0 0,0 0,1 0,0 0,0 1,0 0,0 0,0 0,0 0,0 0,0 0,0 0,0 0,0 0,0l0 0 0 0zm4 -1l-2 0c0,0 0,0 0,1 0,0 1,0 1,0 0,0 0,0 0,0 0,0 1,-1 1,-1l0 0 0 1c0,0 -1,0 -1,0 0,0 0,0 0,0 -1,0 -1,0 -1,0 -1,0 -1,-1 -1,-1 0,0 0,-1 0,-1 1,0 1,0 2,0 0,0 0,0 0,0 1,0 1,1 1,1l0 0zm-1 0c0,0 0,-1 0,-1 0,0 0,0 -1,0 0,0 0,0 0,0 0,0 0,1 0,1l1 0zm3 1l-1 0 0 -3 1 0 0 3zm2 0l-1 0 0 -3 1 0 0 3zm2 0l-1 0 0 -2 1 0 0 2zm0 -2l-1 0 0 -1 1 0 0 1zm4 2c0,0 0,0 0,0 0,1 0,1 0,1 0,0 0,0 -1,0 0,0 0,0 0,0 0,0 -1,0 -1,0 0,0 0,0 0,0l0 -1 0 0c0,0 0,0 0,0 0,0 1,0 1,0 0,0 0,0 0,0 0,0 0,0 0,0 0,0 0,0 0,0 0,0 0,0 0,0l0 0c0,0 0,0 0,0 0,0 0,0 0,0 -1,0 -1,0 -1,0 0,0 0,-1 0,-1 0,0 0,0 0,-1 0,0 0,0 0,0 0,0 0,0 0,0 0,0 1,0 1,0 0,0 0,0 0,0 0,0 0,0 0,0l0 0 1 0 0 2zm-1 -1l0 -1c0,0 0,0 0,0 0,0 0,0 0,0 0,0 0,0 0,0 -1,1 -1,1 -1,1 0,0 0,0 1,0 0,1 0,1 0,1 0,0 0,0 0,0 0,-1 0,-1 0,-1zm5 0l-2 0c0,0 0,0 0,1 1,0 1,0 1,0 0,0 0,0 1,0 0,0 0,-1 0,-1l0 0 0 1c0,0 0,0 0,0 -1,0 -1,0 -1,0 -1,0 -1,0 -1,0 0,0 -1,-1 -1,-1 0,0 1,-1 1,-1 0,0 0,0 1,0 0,0 1,0 1,0 0,0 0,1 0,1l0 0zm-1 0c0,0 0,-1 0,-1 0,0 0,0 0,0 0,0 0,0 -1,0 0,0 0,1 0,1l1 0zm5 1l-1 0 0 -1c0,0 0,0 0,0 0,0 0,0 0,0 0,-1 0,-1 0,-1 0,0 0,0 0,0 0,0 -1,0 -1,0 0,0 0,0 0,1l0 1 -1 0 0 -2 1 0 0 0c0,0 0,0 1,0 0,0 0,0 0,0 0,0 1,0 1,0 0,0 0,0 0,1l0 1zm3 0c0,0 0,0 0,0 0,0 -1,0 -1,0 0,0 0,0 0,0 -1,0 -1,0 -1,-1l0 -1 0 0 0 0 0 0 0 -1 1 0 0 1 1 0 0 0 -1 0 0 1c0,0 0,0 0,0 0,0 0,0 0,1 0,0 0,0 0,0 0,0 0,0 1,0 0,0 0,0 0,0 0,0 0,0 0,0l0 0 0 0zm2 -1l-1 2 0 0 0 -2 1 0zm5 0c0,0 0,1 0,1 -1,0 -1,0 -2,0 0,0 0,0 0,0 0,0 -1,0 -1,0l0 -1 0 0c0,0 1,0 1,1 0,0 0,0 1,0 0,0 0,0 0,0 0,0 0,0 0,0 0,0 0,0 0,-1 0,0 0,0 0,0 0,0 0,0 0,0 0,0 0,0 0,0 0,0 0,0 -1,0 0,0 0,0 0,0 0,0 0,0 -1,0 0,-1 0,-1 0,-1 0,0 0,0 1,-1 0,0 0,0 1,0 0,0 0,0 0,0 1,0 1,0 1,0l0 1 0 0c0,0 0,0 -1,0 0,0 0,0 0,0 0,0 0,0 0,0 -1,0 -1,0 -1,0 0,0 0,0 0,0 0,0 0,0 0,0 0,0 0,0 0,0 0,0 0,0 1,0 0,0 0,0 0,0 0,0 0,0 0,0 1,0 1,1 1,1 0,0 0,0 0,0zm3 1c-1,0 -1,0 -1,0 0,0 0,0 -1,0 0,0 0,0 0,0 0,-1 0,-1 0,-1 0,0 0,0 0,-1 0,0 0,0 1,0 0,0 0,0 0,0 0,0 0,0 1,0 0,0 0,0 0,0 0,0 0,0 0,0l0 1 0 0c0,0 0,0 0,0 0,-1 0,-1 0,-1 0,0 0,0 0,0 0,0 0,0 0,0 -1,0 -1,0 -1,1 0,0 0,0 0,0 0,0 0,0 0,1 0,0 0,0 1,0 0,0 0,0 0,0 0,0 0,0 0,0 0,0 0,0 0,-1 0,0 0,0 0,0l0 0 0 1c0,0 0,0 0,0 0,0 0,0 0,0zm3 0l0 -1c0,0 0,0 0,0 0,0 0,0 0,0 -1,0 -1,0 -1,0 0,0 0,0 0,0 0,0 0,1 0,1 0,0 0,0 0,0 0,0 0,0 0,0 1,0 1,0 1,0 0,0 0,0 0,0 0,0 0,0 0,0zm0 0c0,0 0,0 0,0 0,0 0,0 0,0 0,0 0,0 0,0 -1,0 -1,0 -1,0 0,0 0,0 0,0 0,0 -1,0 -1,-1 0,0 0,0 1,0 0,0 0,0 0,0 0,0 0,0 0,0 1,0 1,0 1,0l0 0c0,0 0,-1 0,-1 0,0 0,0 0,0 -1,0 -1,0 -1,0 0,0 0,0 0,0l0 0 0 0c0,0 0,0 0,0 0,0 0,0 1,0 0,0 0,0 1,0 0,0 0,0 0,1l0 1 -1 0 0 0zm3 0l-1 0 0 -3 1 0 0 3zm3 0l0 -1c0,0 0,0 0,0 0,0 0,0 0,0 -1,0 -1,0 -1,0 0,0 0,0 0,0 0,0 0,1 0,1 0,0 0,0 0,0 0,0 0,0 0,0 1,0 1,0 1,0 0,0 0,0 0,0 0,0 0,0 0,0zm0 0c0,0 0,0 0,0 0,0 0,0 0,0 0,0 0,0 0,0 -1,0 -1,0 -1,0 0,0 0,0 0,0 0,0 -1,0 -1,-1 0,0 0,0 1,0 0,0 0,0 0,0 0,0 0,0 0,0 1,0 1,0 1,0l0 0c0,0 0,-1 0,-1 0,0 0,0 -1,0 0,0 0,0 0,0 0,0 0,0 0,0l0 0 0 0c0,0 0,0 0,0 0,0 0,0 1,0 0,0 0,0 1,0 0,0 0,0 0,1l0 1 -1 0 0 0zm5 -1c0,0 0,1 0,1 -1,0 -1,0 -1,0 0,0 0,0 -1,0 0,0 0,0 0,0l0 0 -1 0 0 -3 1 0 0 1c0,0 0,0 1,0 0,0 0,0 0,0 0,0 1,0 1,0 0,0 0,1 0,1zm-1 0c0,0 0,0 0,0 0,-1 0,-1 0,-1 0,0 -1,0 -1,0 0,0 0,0 0,0l0 2c0,0 0,0 0,0 0,0 0,0 1,0 0,0 0,0 0,-1 0,0 0,0 0,0zm3 1l-1 0 0 -3 1 0 0 3zm4 -1l-2 0c0,0 0,0 0,1 0,0 1,0 1,0 0,0 0,0 0,0 1,0 1,-1 1,-1l0 0 0 1c0,0 0,0 -1,0 0,0 0,0 0,0 -1,0 -1,0 -1,0 -1,0 -1,-1 -1,-1 0,0 0,-1 1,-1 0,0 0,0 1,0 0,0 0,0 1,0 0,0 0,1 0,1l0 0zm-1 0c0,0 0,-1 0,-1 0,0 0,0 0,0 0,0 -1,0 -1,0 0,0 0,1 0,1l1 0zm5 1l0 -1c0,0 -1,0 -1,0 0,0 0,0 0,0 0,0 0,0 0,0 0,0 0,0 0,0 0,0 0,1 0,1 0,0 0,0 0,0 0,0 0,0 0,0 0,0 0,0 0,0 0,0 0,0 0,0 1,0 1,0 1,0zm0 0c0,0 0,0 0,0 -1,0 -1,0 -1,0 0,0 0,0 0,0 0,0 0,0 0,0 0,0 -1,0 -1,0 0,0 0,0 0,-1 0,0 0,0 0,0 0,0 0,0 0,0 1,0 1,0 1,0 0,0 0,0 1,0l0 0c0,0 0,-1 0,-1 -1,0 -1,0 -1,0 0,0 0,0 0,0 -1,0 -1,0 -1,0l0 0 0 0c0,0 0,0 1,0 0,0 0,0 0,0 1,0 1,0 1,0 0,0 1,0 1,1l0 1 -1 0 0 0zm4 0l0 0 0 -1c0,0 0,0 0,0 0,0 0,0 0,0 0,-1 0,-1 -1,-1 0,0 0,0 0,0 0,0 0,0 0,0 0,0 0,0 0,1l0 1 -1 0 0 -2 1 0 0 0c0,0 0,0 0,0 0,0 0,0 1,0 0,0 0,0 0,0 0,0 0,0 0,1l0 1zm4 0l0 0 0 0c-1,0 -1,0 -1,0 0,0 0,0 0,0 -1,0 -1,0 -1,0 0,0 0,-1 0,-1 0,0 0,0 0,0 0,-1 0,-1 0,-1 0,0 0,0 0,0 1,0 1,0 1,0 0,0 0,0 0,0 0,0 0,0 1,0l0 -1 0 0 0 3zm0 0l0 -2c-1,0 -1,0 -1,0 0,0 0,0 0,0 0,0 0,0 0,1 0,0 0,0 0,0 0,0 0,0 0,1 0,0 0,0 0,0 0,0 0,0 0,0 0,0 0,0 1,0zm6 -1c0,0 0,0 0,0 0,1 -1,1 -1,1 0,0 0,0 0,0 -1,0 -1,0 -1,0l-1 0 0 -3 1 0c0,0 1,0 1,0 0,0 0,0 0,0 0,0 1,1 1,1 0,0 0,0 0,1zm-1 0c0,-1 0,-1 0,-1 0,0 0,0 0,0 -1,0 -1,0 -1,0 0,0 0,0 0,0l0 0 0 2 0 0c0,0 0,0 0,0 0,0 1,0 1,-1 0,0 0,0 0,0 0,0 0,0 0,0zm5 0l-2 0c0,0 0,0 0,1 0,0 0,0 1,0 0,0 0,0 0,0 0,0 0,-1 1,-1l0 0 0 1c-1,0 -1,0 -1,0 0,0 0,0 0,0 -1,0 -1,0 -2,0 0,0 0,-1 0,-1 0,0 0,-1 0,-1 1,0 1,0 1,0 1,0 1,0 1,0 1,0 1,1 1,1l0 0zm-1 0c0,0 0,-1 0,-1 0,0 0,0 -1,0 0,0 0,0 0,0 0,0 0,1 0,1l1 0zm3 1l-1 0 0 -3 1 0 0 3zm2 0l-1 0 0 -2 1 0 0 2zm0 -2l-1 0 0 -1 1 0 0 1zm4 0l-1 2 -1 0 -1 -2 1 0 1 1 0 -1 1 0zm4 1l-2 0c0,0 0,0 0,1 0,0 0,0 1,0 0,0 0,0 0,0 0,0 0,-1 0,-1l1 0 0 1c-1,0 -1,0 -1,0 0,0 0,0 -1,0 0,0 0,0 -1,0 0,0 0,-1 0,-1 0,0 0,-1 0,-1 1,0 1,0 1,0 1,0 1,0 1,0 0,0 1,1 1,1l0 0zm-1 0c0,0 0,-1 0,-1 0,0 -1,0 -1,0 0,0 0,0 0,0 0,0 0,1 0,1l1 0zm4 0l0 0c0,0 -1,0 -1,0 0,0 0,0 0,0 0,0 0,0 0,0 0,0 0,0 0,0l0 1 -1 0 0 -2 1 0 0 0c0,0 0,0 0,0 0,0 0,0 0,0 0,0 1,0 1,0 0,0 0,0 0,0l0 1zm3 0l-2 0c0,0 0,0 1,1 0,0 0,0 0,0 0,0 1,0 1,0 0,0 0,-1 0,-1l0 0 0 1c0,0 0,0 0,0 0,0 -1,0 -1,0 0,0 -1,0 -1,0 0,0 0,-1 0,-1 0,0 0,-1 0,-1 0,0 1,0 1,0 0,0 1,0 1,0 0,0 0,1 0,1l0 0zm-1 0c0,0 0,-1 0,-1 0,0 0,0 0,0 0,0 0,0 0,0 -1,0 -1,1 -1,1l1 0z"/>
    <path class="fil3" d="M192 41l-1 0 0 0c0,0 0,0 0,0 0,0 -1,0 -1,0 0,0 0,0 0,0 -1,0 -1,-1 -1,-1 0,0 0,0 0,0 0,-1 1,-1 1,-1 0,0 0,0 0,0 0,0 0,0 0,0 1,0 1,0 1,0 0,0 0,0 0,0l0 -1 1 0 0 3zm-1 0l0 -2c0,0 0,0 0,0 0,0 0,0 0,0 0,0 -1,0 -1,1 0,0 0,0 0,0 0,0 0,0 0,1 0,0 0,0 1,0 0,0 0,0 0,0 0,0 0,0 0,0z"/>
   </g>
  </g>
  <rect class="fil4 str1" x="2" y="2" width="40.25" height="40.25"/>
  <g id="_2584427395552">
   <rect class="fil5" x="2" y="2" width="13.0547" height="40.25"/>
   <path class="fil0" d="M3 33c1,0 2,-1 3,-1 1,-1 1,-2 1,-4l0 -21 7 0 0 21c0,4 -1,6 -2,7 -2,2 -4,2 -7,2l-2 -4z"/>
  </g>
  <g id="_2584427384224">
   <rect class="fil6" x="16" y="2" width="26.498" height="40.25"/>
   <polygon class="fil7" points="17,30 17,7 23,7 23,17 32,7 39,7 30,18 42,30 33,30 23,19 23,30 "/>
  </g>
 </g>
</svg>
