<svg xmlns="http://www.w3.org/2000/svg" width="600" height="131" xmlns:xlink="http://www.w3.org/1999/xlink" shape-rendering="geometricPrecision" text-rendering="geometricPrecision" image-rendering="optimizeQuality" fill-rule="evenodd" clip-rule="evenodd"><defs><style>.fil0,.fil1{fill:#def2f1;fill-rule:nonzero}.fil0{fill:#feffff}</style><linearGradient id="id0" gradientUnits="userSpaceOnUse" x1="5.521" y1="65.625" x2="44.685" y2="65.625"><stop offset="0" stop-color="#4a5560"/><stop offset="1" stop-color="#16344e"/></linearGradient><linearGradient id="id1" gradientUnits="userSpaceOnUse" xlink:href="#id0" x1="50.035" y1="55.462" x2="124.7" y2="55.462"/></defs><g id="Layer_x0020_1"><g id="_1946646186176"><path class="fil0" d="M187 35c0 2 0 3-1 5-1 1-2 3-3 4s-3 2-4 2c-2 1-4 1-7 1h-10v-8h4c1 1 2 1 4 1 1 0 3 0 4-1 1 0 2-1 2-2s1-2 1-3V15h-9V7h19v28zm38-1h-22c1 2 1 4 3 5s4 2 7 2c2 0 4-1 6-1 2-1 3-2 5-3h1v8c-3 1-5 2-6 2h-7c-6 0-10-1-14-4-3-2-4-6-4-11s1-9 4-12c3-2 7-4 13-4 4 0 8 1 11 4 2 2 3 6 3 10v4zm-9-6c0-2-1-3-2-4s-2-2-4-2-3 1-5 1c-1 1-2 3-2 5h13zm55-15h0l-2-1h-2c-2 0-3 0-4 1-1 0-1 2-1 4h7v6h-7v24h-9V23h-11v24h-9V23h-4v-6h4v-1c0-7 3-11 11-11 3 0 5 0 7 1v7h-1l-1-1h-2c-2 0-4 0-4 1-1 0-1 2-1 4h11v-1c0-7 4-11 11-11 3 0 5 0 7 1v7zm61 34h-12l-12-16-2 3v13h-10V7h10v18l14-18h12l-16 19 16 21zm14 0h-9V17h9v30zm1-34h-10V6h10v7zm38 34h-9V32c0-1 0-2-1-4v-2l-2-2h-3-2c-1 1-2 1-3 2v21h-10V17h10v3c2-1 3-2 5-3 1 0 3-1 5-1 3 0 6 1 7 3 2 2 3 5 3 8v20zm38-4c0 3-1 5-1 7-1 2-2 4-4 5-1 1-3 2-5 2-2 1-4 1-7 1-2 0-4 0-6-1h-5v-8h1c1 1 3 1 4 1 2 1 4 1 5 1 2 0 3 0 4-1 1 0 2 0 3-1 0 0 1-1 1-2v-4c-1 1-2 2-4 2-1 1-2 1-4 1-4 0-8-1-10-4-2-2-3-6-3-11 0-2 0-4 1-6s1-4 3-5c1-1 2-2 4-3 2 0 3-1 5-1s3 0 5 1c1 0 2 1 3 1l1-1h9v26zm-10-6V24s-1-1-2-1h-2c-2 0-4 1-5 2-2 2-2 4-2 6 0 3 0 5 1 6s3 2 5 2c1 0 2 0 3-1 1 0 2 0 2-1z" stroke="#16344e" stroke-width=".45"/><path class="fil1" d="M180 60h-11v5h11v4h-11v10h-7V56h18v4zm27 10c0 3-1 5-3 7-2 1-5 2-8 2-4 0-7-1-9-2-2-2-2-4-2-7V56h6v14c0 2 0 3 1 4 1 0 2 1 4 1 1 0 2-1 3-1 1-1 1-2 1-4V56h7v14zm24 9h-18V56h6v18h12v5zm22 0h-18V56h6v18h12v5zm35-7c0 2-1 4-3 5s-5 2-8 2h-6c-1-1-3-1-4-2v-5h1c1 1 3 2 4 2 2 1 3 1 5 1h3l1-1c1 0 1-1 1-1 0-1 0-1-1-2 0 0-1 0-2-1h-3c-1 0-2 0-3-1-2 0-4-1-4-2-1-1-2-3-2-4 0-2 1-4 3-5 2-2 5-2 8-2h5c2 0 3 1 4 1v5c-1 0-3-1-4-2h-8s0 1-1 1v1c0 1 0 1 1 1 0 1 1 1 2 1s2 1 3 1h3c2 1 3 2 4 3s1 2 1 4zm24-12h-7v19h-7V60h-8v-4h22v4zm27 19h-6l-2-5h-9l-2 5h-6l9-23h7l9 23zm-10-9l-3-8-3 8h6zm25 9c-2 0-3 0-5-1-1 0-3-1-4-2s-2-2-2-4c-1-1-1-3-1-5v-5l3-3c1-1 2-2 4-3h11s1 1 2 1h1v6h-1s0-1-1-1l-1-1c-1 0-2-1-2-1h-5c-1 1-2 1-3 2 0 0-1 1-1 2-1 1-1 2-1 3 0 2 1 3 1 4s1 2 2 2c0 1 1 1 2 1 1 1 2 1 2 1 1 0 2 0 3-1h2c0-1 1-1 1-1 1-1 1-1 2-1v5s-1 1-2 1c0 0-1 0-1 1h-3-3zm37 0h-8l-7-9-2 1v8h-6V56h6v10l9-10h8l-10 10 10 13z"/><path d="M182 98c0 3-1 4-3 6-2 1-4 2-8 2-2 0-3 0-5-1-1 0-2 0-4-1v-5h1c1 1 3 2 4 2 2 1 3 1 4 1h2s1 0 1-1h1c1-1 1-1 1-2l-1-1s-1 0-2-1h-2c-1 0-2-1-3-1-2 0-3-1-4-2s-1-3-1-4c0-2 1-4 2-6 2-1 5-2 8-2 1 0 3 1 4 1 2 0 3 1 4 1v5h-1c-1-1-2-1-3-2h-6-1s-1 0-1 1v2c1 1 2 1 3 1s2 0 2 1h3c2 1 3 2 4 3 0 1 1 2 1 3zm26-4c0 4-1 7-3 9s-5 3-9 3c-3 0-6-1-8-3s-3-5-3-9c0-3 1-6 3-8 2-3 5-4 8-4 4 0 7 1 9 4 2 2 3 5 3 8zm-8 6c1-1 1-2 2-2v-4c0-1 0-2-1-3 0-1 0-2-1-3 0 0-1-1-2-1h-2-2s-1 1-2 1c0 1-1 2-1 3v7c0 1 1 1 1 2 1 1 1 1 2 1 1 1 2 1 2 1 1 0 2 0 2-1 1 0 2 0 2-1zm29-13h-11v4h10v5h-10v10h-6V83h17v4zm22 0h-7v19h-6V87h-7v-4h20v4zm34-4l-6 23h-6l-4-15-4 15h-7l-6-23h6l4 16 4-16h6l4 16 4-16h5zm25 23h-6l-1-5h-9l-1 5h-6l8-23h7l8 23zm-9-9l-2-8-3 8h5zm25-7v-2s-1 0-1-1h-2-3v6h4s1 0 1-1c1 0 1 0 1-1v-1zm10 16h-8l-6-9h-2v9h-6V83h13c1 0 2 1 3 1 0 1 1 1 2 2v3c0 2 0 3-1 4l-3 3 8 10zm19 0h-17V83h17v4h-11v4h10v5h-10v5h11v5zm37-12c0 2-1 4-2 6s-2 3-4 4c-1 0-2 1-3 1s-3 1-5 1h-8V83h13c1 1 3 1 4 2s2 2 3 4c1 1 2 3 2 5zm-7 0v-4c-1-1-2-2-3-2 0 0-1-1-2-1h-4v14h5s1 0 1-1c1 0 2-1 3-2v-4zm27 12h-16V83h16v4h-10v4h10v5h-10v5h10v5zm26-23l-8 23h-7l-8-23h6l6 16 5-16h6zm20 23h-17V83h17v4h-11v4h10v5h-10v5h11v5zm21 0h-16V83h5v18h11v5zm26-12c0 4-1 7-3 9-3 2-5 3-9 3s-7-1-9-3-3-5-3-9c0-3 1-6 3-8 2-3 5-4 9-4s6 1 8 4c3 2 4 5 4 8zm-8 6c0-1 1-2 1-2 0-1 1-3 1-4s-1-2-1-3-1-2-1-3c-1 0-1-1-2-1h-4c-1 0-1 1-2 1-1 1-1 2-1 3-1 1-1 2-1 3 0 2 0 3 1 4 0 1 0 1 1 2 0 1 1 1 2 1 0 1 1 1 2 1s1 0 2-1c1 0 1 0 2-1zm31-10c0 1 0 2-1 3 0 1-1 2-1 2-1 1-2 2-3 2-1 1-3 1-4 1h-4v8h-6V83h13c1 0 2 1 3 1 1 1 2 2 2 3 1 1 1 2 1 3zm-6 0s0-1-1-1c0-1-1-1-1-1-1-1-1-1-2-1h-3v7h4c1 0 1-1 2-1 0 0 0-1 1-1v-2zm26 16h-16V83h16v4h-10v4h10v5h-10v5h10v5zm18-16v-2c-1 0-1 0-2-1h-1-4v6h4c1 0 1 0 2-1 0 0 1 0 1-1v-1zm9 16h-7l-6-9h-3v9h-6V83h14c1 0 1 1 2 1 1 1 2 1 2 2 1 1 1 2 1 3 0 2 0 3-1 4l-3 3 7 10z" fill="#4a5560" fill-rule="nonzero"/><path class="fil1" d="M168 124c-1 0-2 0-2-1-1 0-2 0-2-1-1 0-1 0-1-1s-1-1-1-2 1-1 1-2 0-1 1-2c0 0 1 0 2-1h4s0 1 1 1v2h-1v-1h-1-1-1s-1 0-1 1l-1 1v2l1 1 1 1h2s1 0 1-1h1v2h-1c-1 0-1 1-1 1h-1zm13-5h-1-1-1-1v4h-2v-6h2v1c1-1 1-1 2-1h2v2zm10 1h-5v2h4l1-1v2h-1c-1 1-1 1-2 1-2 0-3-1-4-1 0-1-1-2-1-3s1-2 1-3c1 0 2-1 4-1 1 0 2 1 2 1 1 1 1 2 1 3zm-2-1v-1h-2-1v1h3zm11 3v-2h-2l-1 1v1h3zm0 1h-1c-1 0-1 1-1 1h-1c-1 0-1-1-2-1 0 0-1-1-1-2 0 0 1 0 1-1l1-1h4l-1-1h-3-1v-1s1 0 1-1h2c2 0 3 1 3 1 1 0 1 1 1 2v4h-2zm11 0l-1 1h-1c-1 0-1-1-2-1 0 0-1-1-1-2v-3h-1v-1h1v-2h3v2h2v1h-2v4h2v1zm6 0h-2v-6h2v6zm0-7h-3v-2h3v2zm12 1l-3 6h-3l-3-6h3l2 4 1-4h3zm11 3h-6c0 1 0 1 1 2h3c1 0 1-1 1-1h1v2h-2c0 1-1 1-2 1s-2-1-3-1c-1-1-1-2-1-3s0-2 1-3c1 0 2-1 3-1s2 1 3 1c0 1 1 2 1 3zm-3-1v-1h-2c-1 0-1 1-1 1h3zm9 2l-2 5h-2l2-5h2zm13 2h-6v-1h2v-6h-2v-2h6v2h-2v6h2v1zm11 0h-2v-3-1c0-1 0-1-1-1h-1s-1 0-1 1v4h-2v-6h3c1-1 1-1 2-1s1 1 2 1v6zm10 0c-1 0-1 0-1 1h-1c-1 0-2-1-3-1v-5h-1v-1h1v-2h2v2h3v1h-3v4h3v1zm10-3h-5v2h4l1-1v2h-1c-1 1-1 1-2 1s-3-1-3-1c-1-1-2-2-2-3s1-2 1-3c1 0 2-1 4-1 1 0 2 1 2 1 1 1 1 2 1 3zm-2-1v-1h-2-1v1h3zm9 4h-3v-9h3v9zm6 0h-2v-9h2v9zm7 0h-3v-6h3v6zm0-7h-3v-2h3v2zm12 7l-1 1c0 1 0 1-1 1 0 1 0 1-1 1h-2-3v-2h5v-1h-1-1c-1 0-2 0-3-1v-2-2l1-1h1c0-1 1-1 1-1s1 0 1 1h4v6zm-3-2v-3h-2c-1 1-1 1-1 2s0 1 1 1c0 1 0 1 1 1l1-1zm14-1h-5v2h4l1-1v2h-1c-1 1-1 1-2 1-2 0-3-1-4-1 0-1-1-2-1-3s1-2 1-3c1 0 2-1 4-1 1 0 2 1 2 1 1 1 1 2 1 3zm-2-1v-1h-2-1v1h3zm14 4h-3v-3-1-1h-1-1l-1 1v4h-2v-6h4c0-1 1-1 1-1 1 0 2 1 2 1s1 1 1 2v4zm9 0c-1 0-1 0-1 1h-1c-1 0-2-1-2-1-1 0-1-1-1-2v-3h-1v-1h1v-2h2v2h3v1h-3v3l1 1h2v1zm6-2l-2 5h-2l2-5h2zm15 0s0 1-1 2c-1 0-2 1-4 1 0 0-1 0-2-1h-1v-2s1 0 2 1h3v-1h1s-1 0-1-1h-1-1-1c-1-1-1-1-2-1v-2c0-1 0-1 1-2s2-1 3-1h2c1 0 1 1 2 1v2c-1 0-1-1-2-1h-3-1v1h1s0 1 1 1h2c1 0 1 1 2 1v2zm8 3c-1 0-2 0-2-1h-2v-1c-1-1-1-1-1-2s0-1 1-2l1-1h1c1-1 1-1 2-1 0 0 1 0 1 1h1v2c0-1-1-1-1-1h-1c-1 0-1 0-2 1v3h3s1 0 1-1v2h-1c0 1-1 1-1 1zm11-2v-2h-2l-1 1v1h3zm0 1h-1c-1 0-1 1-1 1h-1c-1 0-1-1-2-1 0 0-1-1-1-2l1-1 1-1h4l-1-1h-3-1v-1s1 0 1-1h2c1 0 2 1 3 1s1 1 1 2v4h-2zm9 0h-3v-9h3v9zm8-1v-2h-1l-1 1v1h2zm0 1h-1v1h-1c-1 0-1-1-2-1 0 0-1-1-1-2l1-1 1-1h3v-1h-2-1-1v-1s1 0 1-1h2c1 0 2 1 3 1s1 1 1 2v4h-3zm15-3c0 1 0 2-1 3-1 0-1 1-2 1s-1 0-2-1h-3v-9h3v3h1c0-1 1-1 1-1 1 0 2 1 2 1 1 1 1 2 1 3zm-2 0c0-1-1-1-1-1 0-1 0-1-1-1h-1v4h1s1 0 1-1c0 0 1 0 1-1zm8 3h-2v-9h2v9zm12-3h-6c0 1 1 1 1 2h3c1 0 1-1 2-1v2h-2c0 1-1 1-1 1-2 0-3-1-4-1-1-1-1-2-1-3s0-2 1-3c1 0 2-1 3-1s2 1 3 1c1 1 1 2 1 3zm-2-1l-1-1h-1-1l-1 1h4zm13 3v-2h-1-1v1h-1v1h3zm0 1h-1s0 1-1 1h-1l-1-1c-1 0-1-1-1-2v-1c1 0 1 0 1-1h4v-1h-2-2v-1l1-1h2c1 0 2 1 3 1 0 0 1 1 1 2v4h-3zm14 0h-2v-3-1c0-1 0-1-1-1h-1s-1 0-1 1v4h-2v-6h3c1-1 1-1 2-1s1 1 2 1v6zm12 0h-4c0 1 0 1-1 1s-2-1-2-1c-1-1-1-2-1-3v-1c1-1 1-1 1-2h1c1-1 1-1 2-1l1 1h1v-3h2v9zm-2-1v-4h-1c-1 0-2 0-2 1v3h3zm19-3c0 1 0 2-1 2 0 1-1 1-1 2h-8v-9h4c1 0 2 0 2 1h2s1 1 1 2c1 0 1 1 1 2zm-3 0v-2s-1 0-1-1h-1-2v6h2s1 0 1-1c0 0 1 0 1-1v-1zm14 1h-5v2h4s0-1 1-1v2h-2c0 1-1 1-1 1-2 0-3-1-4-1-1-1-1-2-1-3s0-2 1-3c1 0 2-1 3-1 2 0 3 1 3 1 1 1 1 2 1 3zm-2-1s0-1-1-1h-1-1v1h3zm8 4h-2v-9h2v9zm7 0h-2v-6h2v6zm0-7h-3v-2h3v2zm12 1l-3 6h-3l-3-6h3l2 4 1-4h3zm11 3h-6c0 1 0 1 1 2h3c1 0 1-1 1-1h1v2h-2c0 1-1 1-2 1s-2-1-3-1c-1-1-1-2-1-3s0-2 1-3c1 0 2-1 3-1s2 1 3 1c0 1 1 2 1 3zm-3-1v-1h-2c-1 0-1 1-1 1h3zm12 0h-3v4h-3v-6h3v1c0-1 1-1 1-1h2v2zm11 1h-6c0 1 0 1 1 2h3c1 0 1-1 1-1h1v2h-2c0 1-1 1-2 1s-2-1-3-1c-1-1-1-2-1-3s0-2 1-3c1 0 2-1 3-1s2 1 3 1c0 1 1 2 1 3zm-3-1v-1h-2c-1 0-1 1-1 1h3zM576 123h-3-1c0 1-1 1-1 1-1 0-2-1-2-1-1-1-1-2-1-3v-1c0-1 1-1 1-2h1c0-1 1-1 1-1 1 0 1 0 2 1v-3h3v9zm-3-1v-4h-1s-1 0-1 1c0 0-1 0-1 1s1 1 1 2h2z"/></g><path fill="#16344e" stroke="#46344e" stroke-width="2.083" d="M5 5h121v121H5z"/><g id="_1946646184480"><path fill="url(#id0)" d="M6 5h39.164v120.75H6z"/><path class="fil0" d="M8 98c5 0 8-1 10-3 2-1 3-5 3-11V20h20v65c0 10-2 17-6 21s-10 6-20 6L8 98z"/></g><g id="_1946646184640"><path fill="#feffff" d="M47 5h79.494v120.75H47z"/><path fill="url(#id1)" fill-rule="nonzero" d="M50 91V20h20v32l26-32h22L90 53l35 38H99L70 58v33z"/></g></g></svg>