<svg xmlns="http://www.w3.org/2000/svg" width="200" height="44" shape-rendering="geometricPrecision" text-rendering="geometricPrecision" image-rendering="optimizeQuality" fill-rule="evenodd" clip-rule="evenodd"><defs><style>.fil0,.fil3{fill:#9b786f;fill-rule:nonzero}.fil0{fill:#feffff}</style><linearGradient id="id0" gradientUnits="userSpaceOnUse" x1="1.84" y1="21.875" x2="14.895" y2="21.875"><stop offset="0" stop-color="#5a5560"/><stop offset="1" stop-color="#46344e"/></linearGradient><linearGradient id="id1" gradientUnits="userSpaceOnUse" x1="16.678" y1="18.487" x2="41.566" y2="18.487"><stop offset="0" stop-color="#9d8d8f"/><stop offset="1" stop-color="#46344e"/></linearGradient></defs><g id="Layer_x0020_1"><g id="_2584427400096"><path class="fil0" d="M62 12v1c0 1-1 1-1 2h-1c-1 1-2 1-3 1h-3v-3h4s1 0 1-1v-1-6h-3V2h6v10zm13-1h-7c0 1 0 2 1 2 0 0 1 1 2 1s1-1 2-1 1 0 2-1h0v3c-1 0-2 1-2 1h-2c-2 0-4-1-5-2-1 0-1-2-1-3 0-2 0-3 1-4s2-2 4-2 3 1 4 2c1 0 1 2 1 3v1zm-3-2s0-1-1-1c0 0 0-1-1-1s-1 1-2 1v1h4zm18-5h0-2c-1 0-1 1-1 2h3v2h-3v8h-3V8h-3v8h-3V8h-2V6h2V5c0-2 1-3 3-3h3v2h-1-1-1v2h3V5c0-2 2-3 4-3h2v2zm21 12h-4l-4-6-1 1v5h-3V2h3v6l5-6h4l-6 7 6 7zm4 0h-3V6h3v10zm1-12h-4V2h4v2zm12 12h-3v-5-2s0 0 0 0c0-1 0-1-1-1h-1s0 0 0 0c-1 0-1 0-1 1v7h-4V6h4v1c0-1 1-1 1-1 1 0 1-1 2-1s2 1 2 1c1 1 1 2 1 3v7zm13-2v3c-1 0-1 1-2 1 0 1-1 1-1 1h-3-2-1v-3h0c0 1 1 1 1 1h3c1 0 1 0 1-1h1v-2c-1 1-1 1-2 1h-1c-1 0-3 0-3-1-1-1-1-2-1-4V8s0-1 1-1c0-1 1-1 1-1 1 0 1-1 2-1s1 0 2 1h4v8zm-3-2V8h-1-1-1c-1 1-1 2-1 2v2c1 1 1 1 2 1h1s1 0 1-1z" stroke="#46344e" stroke-width=".15"/><path d="M60 20h-4v2h4v1h-4v3h-2v-7h6v1zm9 3c0 1 0 2-1 3h-6v-7h2v6h2c1-1 1-1 1-2v-4h2v4zm8 3h-6v-7h2v6h4v1zm7 0h-6v-7h2v6h4v1zm12-2c0 1 0 1-1 2h-3-2-1v-2c1 0 1 1 2 1h3v-1s-1 0-1-1h-1-1c-1 0-1 0-1-1-1 0-1-1-1-1 0-1 0-1 1-2h6v2c-1 0-1-1-2-1h-1-1-1v1h1c1 0 1 1 1 1h1c1 0 1 0 2 1v1zm8-4h-2v6h-3v-6h-2v-1h7v1zm9 6h-2l-1-1h-3v1h-2l3-7h2l3 7zm-3-3l-1-2-1 2h2zm8 3h-2s-1 0-1-1c0 0-1 0-1-1v-2-1c0-1 1-1 1-1 0-1 1-1 1-1h5v2h-1v-1h-1-1c-1 0-1 0-1 1h-1v3h1c0 1 0 1 1 1h2v-1h1v2h-1-1-1zm12 0h-2l-3-3v3h-2v-7h2v3l3-3h2l-3 3 3 4z" fill="#9d8d8f" fill-rule="nonzero"/><path d="M61 33c0 1-1 1-1 2h-5-1v-2c1 0 1 1 2 1h2l1-1h-1v-1h-1-1c-1 0-1 0-1-1-1 0-1-1-1-1 0-1 1-1 1-2 1 0 2-1 3-1l1 1h1v2c0-1-1-1-1-1h-2-1v1h1c1 0 1 0 1 1h1c1 0 1 0 1 1 0 0 1 0 1 1zm8-2c0 2 0 3-1 3 0 1-1 1-3 1-1 0-2 0-2-1-1 0-1-1-1-3 0-1 0-2 1-2 0-1 1-2 2-2 2 0 3 1 3 2 1 0 1 1 1 2zm-2 2v-2-1-1h-1-1-1v4c0 1 0 1 1 1h1s1 0 1-1zm9-4h-3v1h3v2h-3v3h-2v-7h5v1zm8 0h-3v6h-2v-6h-2v-1h7v1zm11-1l-2 7h-2l-1-5-2 5h-2l-2-7h2l1 5 2-5h2l1 5 1-5h2zm8 7h-2v-1h-3v1h-2l2-7h3l2 7zm-3-3v-2l-1 2h1zm9-2v-1h-1-1v2h1c1 0 1 0 1-1zm3 5h-3l-2-3v3h-2v-7h5l1 1v1s0 1-1 1c0 0 0 1-1 1l3 3zm6 0h-5v-7h5v1h-3v1h3v2h-3v2h3v1zm13-4c0 1-1 2-1 2 0 1-1 1-1 2h-6v-7h6c0 1 1 1 1 2l1 1zm-3 0v-1s0-1-1-1h-2v5h2v-1h1v-2zm9 4h-5v-7h5v1h-3v1h3v2h-3v2h3v1zm9-7l-3 7h-2l-3-7h2l2 5 2-5h2zm7 7h-6v-7h6v1h-4v1h3v2h-3v2h4v1zm7 0h-6v-7h2v6h4v1zm8-4c0 2 0 3-1 3-1 1-1 1-3 1-1 0-2 0-3-1 0 0-1-1-1-3 0-1 1-2 1-2 1-1 2-2 3-2 2 0 2 1 3 2 1 0 1 1 1 2zm-2 2v-2-1-1h-1-2v1l-1 1c0 1 0 1 1 2 0 1 0 1 1 1h1l1-1zm10-3v1l-1 1h-1c0 1-1 1-1 1h-1v2h-2v-7h5l1 1v1zm-2 0c0-1-1-1-1-1h-1v2h2v-1zm9 5h-6v-7h6v1h-4v1h4v2h-4v2h4v1zm6-5v-1h-1-2v2h2s1 0 1-1zm3 5h-3l-2-3h-1v3h-2v-7h6v1c1 0 1 0 1 1 0 0 0 1-1 1 0 0 0 1-1 1l3 3z" fill="#5a5560" fill-rule="nonzero"/><path class="fil3" d="M56 41h-1c-1 0-1 0-1-1v-1l1-1h2v1h-1-1v1l1 1s1 0 1-1v1h-1zm4-1h-1v1h-1v-2h2v1zm4 0h-2v1h1l1-1v1h-3v-1-1h2c1 0 1 1 1 1zm-1 0v-1h-1v1h1zm4 1v-1h-1v1h1zm0 0h-2v-1h2l-1-1h-1 2v2zm3 0h-1v-2h-1 1v-1h1v3zm2 0v-2 2zm0-2h-1v-1h1v1zm4 0l-1 2h-1l-1-2h1l1 1v-1h1zm4 1h-2v1h1c1 0 1-1 1-1v1h-2c-1 0-1-1-1-1s0-1 1-1h2v1zm-1 0v-1h-1v1h1zm3 0l-1 2v-2h1zm4 1h-2 1v-2h-1v-1h2v3zm4 0h-1v-1-1s-1 0-1 1v1-2h2v2zm3 0h-1v-2h-1 1v-1 1h1-1v2h1zm4-1h-2v1h1l1-1v1h-2c-1 0-1-1-1-1v-1h2c1 0 1 1 1 1zm-1 0v-1h-1v1h1zm3 1h-1v-3h1v3zm2 0h-1v-3h1v3zm2 0h-1v-2h1v2zm0-2h-1v-1h1v1zm4 2v1h-1-1v-1h1-1v-1-1h2v2zm-1-1v-1l-1 1h1v0zm5 0h-2v1h2v-1 1h-2l-1-1 1-1h2v1zm-1 0v-1h-1v1h1zm5 1h-1v-1-1h-1v2h-1v-2h3v2zm3 0h-1c-1 0-1 0-1-1v-2h1v1h1-1v2h1zm2-1l-1 2v-2h1zm5 0v1h-2-1v-1s1 0 1 1h1v-1h-1-1v-1l1-1h2v1h-2 1c1 0 1 1 1 1zm3 1h-1-1v-1-1h2v0c-1 0-1 0-1 1v1h1v-1 1zm3 0v-1h-1v1h1zm0 0h-1s-1 0-1-1h2v-1h-1 2v2h-1zm3 0h-1v-3h1v3zm3 0v-1h-1v1h1zm0 0h-1s-1 0-1-1h2v-1h-1 2v2h-1zm5-1v1h-1-2v-3h1v1h2v1zm-1 0v-1h-1v2h1v-1zm3 1h-1v-3h1v3zm4-1h-2v1h1c1 0 1-1 1-1v1h-2c-1 0-1-1-1-1s0-1 1-1h2v1zm-1 0v-1h-1v1h1zm5 1v-1h-1v1h1zm0 0h-1-1v-1h2v-1h-2 2s1 0 1 1v1h-1zm4 0v-1c0-1 0-1-1-1v2h-1v-2h2v2zm4 0h-2v-1-1h2v-1 3zm0 0v-2h-1v2h1zm6-1c0 1-1 1-1 1h-2v-3h2l1 1v1zm-1 0v-1h-1v2s1 0 1-1zm5 0h-2v1h1s0-1 1-1v1h-3v-1-1h2c1 0 1 1 1 1zm-1 0v-1h-1v1h1zm3 1h-1v-3h1v3zm2 0h-1v-2h1v2zm0-2h-1v-1h1v1zm4 0l-1 2h-1l-1-2h1l1 1v-1h1zm4 1h-2v1h1v-1h1v1h-1-1-1v-1-1h2l1 1zm-1 0v-1h-1v1h1zm4 0h-1v1h-1v-2h2v1zm3 0h-2l1 1h1v-1 1h-1-1v-1-1h2v1zm-1 0v-1c-1 0-1 1-1 1h1zM192 41h-1-1c-1 0-1-1-1-1 0-1 1-1 1-1h1v-1h1v3zm-1 0v-2s-1 0-1 1v1h1z"/></g><path fill="#46344e" stroke="#46344e" stroke-width=".694" d="M2 2h40.25v40.25H2z"/><g id="_2584427395552"><path fill="url(#id0)" d="M2 2h13.055v40.25H2z"/><path class="fil0" d="M3 33c1 0 2-1 3-1 1-1 1-2 1-4V7h7v21c0 4-1 6-2 7-2 2-4 2-7 2l-2-4z"/></g><g id="_2584427384224"><path fill="#feffff" d="M16 2h26.498v40.25H16z"/><path fill="url(#id1)" fill-rule="nonzero" d="M17 30V7h6v10l9-10h7l-9 11 12 12h-9L23 19v11z"/></g></g></svg>