<?xml version="1.0" encoding="UTF-8"?>
<!DOCTYPE svg PUBLIC "-//W3C//DTD SVG 1.1//EN" "http://www.w3.org/Graphics/SVG/1.1/DTD/svg11.dtd">
<!-- Creator: CorelDRAW X7 -->
<svg xmlns="http://www.w3.org/2000/svg" xml:space="preserve" width="600px" height="131px" version="1.1" style="shape-rendering:geometricPrecision; text-rendering:geometricPrecision; image-rendering:optimizeQuality; fill-rule:evenodd; clip-rule:evenodd"
viewBox="0 0 600 131"
 xmlns:xlink="http://www.w3.org/1999/xlink">
 <defs>
  <style type="text/css">
   <![CDATA[
    .str1 {stroke:#46344E;stroke-width:2.08287}
    .str0 {stroke:#16344E;stroke-width:0.45}
    .fil3 {fill:#16344E}
    .fil5 {fill:#FEFFFF}
    .fil2 {fill:#4A5560;fill-rule:nonzero}
    .fil1 {fill:#DEF2F1;fill-rule:nonzero}
    .fil0 {fill:#FEFFFF;fill-rule:nonzero}
    .fil4 {fill:url(#id0)}
    .fil6 {fill:url(#id1);fill-rule:nonzero}
   ]]>
  </style>
  <linearGradient id="id0" gradientUnits="userSpaceOnUse" x1="5.52106" y1="65.625" x2="44.6846" y2="65.625">
   <stop offset="0" style="stop-opacity:1; stop-color:#4A5560"/>
   <stop offset="1" style="stop-opacity:1; stop-color:#16344E"/>
  </linearGradient>
  <linearGradient id="id1" gradientUnits="userSpaceOnUse" xlink:href="#id0" x1="50.035" y1="55.4616" x2="124.7" y2="55.4616">
  </linearGradient>
 </defs>
 <g id="Layer_x0020_1">
  <metadata id="CorelCorpID_0Corel-Layer"/>
  <g id="_1946646186176">
   <path class="fil0 str0" d="M187 35c0,2 0,3 -1,5 -1,1 -2,3 -3,4 -1,1 -3,2 -4,2 -2,1 -4,1 -7,1 -2,0 -4,0 -5,0 -2,0 -3,0 -5,0l0 -8 1 0c1,0 2,0 3,0 1,1 2,1 4,1 1,0 3,0 4,-1 1,0 2,-1 2,-2 0,-1 1,-2 1,-3 0,-1 0,-2 0,-4l0 -15 -9 0 0 -8 19 0 0 28zm38 -1l-22 0c1,2 1,4 3,5 2,1 4,2 7,2 2,0 4,-1 6,-1 2,-1 3,-2 5,-3l1 0 0 8c-3,1 -5,2 -6,2 -2,0 -4,0 -7,0 -6,0 -10,-1 -14,-4 -3,-2 -4,-6 -4,-11 0,-5 1,-9 4,-12 3,-2 7,-4 13,-4 4,0 8,1 11,4 2,2 3,6 3,10l0 4zm-9 -6c0,-2 -1,-3 -2,-4 -1,-1 -2,-2 -4,-2 -2,0 -3,1 -5,1 -1,1 -2,3 -2,5l13 0zm55 -15l0 0 -2 -1c-1,0 -1,0 -2,0 -2,0 -3,0 -4,1 -1,0 -1,2 -1,4l0 0 7 0 0 6 -7 0 0 24 -9 0 0 -24 -11 0 0 24 -9 0 0 -24 -4 0 0 -6 4 0 0 -1c0,-7 3,-11 11,-11 3,0 5,0 7,1l0 7 -1 0 -1 -1c-1,0 -2,0 -2,0 -2,0 -4,0 -4,1 -1,0 -1,2 -1,4l0 0 11 0 0 -1c0,-7 4,-11 11,-11 3,0 5,0 7,1l0 7zm61 34l-12 0 -12 -16 -2 3 0 13 -10 0 0 -40 10 0 0 18 14 -18 12 0 -16 19 16 21zm14 0l-9 0 0 -30 9 0 0 30zm1 -34l-10 0 0 -7 10 0 0 7zm38 34l-9 0 0 -15c0,-1 0,-2 -1,-4 0,-1 0,-2 0,-2 -1,-1 -1,-1 -2,-2 0,0 -1,0 -3,0 0,0 -1,0 -2,0 -1,1 -2,1 -3,2l0 21 -10 0 0 -30 10 0 0 3c2,-1 3,-2 5,-3 1,0 3,-1 5,-1 3,0 6,1 7,3 2,2 3,5 3,8l0 20zm38 -4c0,3 -1,5 -1,7 -1,2 -2,4 -4,5 -1,1 -3,2 -5,2 -2,1 -4,1 -7,1 -2,0 -4,0 -6,-1 -2,0 -4,0 -5,0l0 -8 1 0c1,1 3,1 4,1 2,1 4,1 5,1 2,0 3,0 4,-1 1,0 2,0 3,-1 0,0 1,-1 1,-2 0,-1 0,-2 0,-3l0 -1c-1,1 -2,2 -4,2 -1,1 -2,1 -4,1 -4,0 -8,-1 -10,-4 -2,-2 -3,-6 -3,-11 0,-2 0,-4 1,-6 1,-2 1,-4 3,-5 1,-1 2,-2 4,-3 2,0 3,-1 5,-1 2,0 3,0 5,1 1,0 2,1 3,1l1 -1 9 0 0 26zm-10 -6l0 -13c0,0 -1,-1 -2,-1 -1,0 -1,0 -2,0 -2,0 -4,1 -5,2 -2,2 -2,4 -2,6 0,3 0,5 1,6 1,1 3,2 5,2 1,0 2,0 3,-1 1,0 2,0 2,-1z"/>
   <path class="fil1" d="M180 60l-11 0 0 5 11 0 0 4 -11 0 0 10 -7 0 0 -23 18 0 0 4zm27 10c0,3 -1,5 -3,7 -2,1 -5,2 -8,2 -4,0 -7,-1 -9,-2 -2,-2 -2,-4 -2,-7l0 -14 6 0 0 14c0,2 0,3 1,4 1,0 2,1 4,1 1,0 2,-1 3,-1 1,-1 1,-2 1,-4l0 -14 7 0 0 14zm24 9l-18 0 0 -23 6 0 0 18 12 0 0 5zm22 0l-18 0 0 -23 6 0 0 18 12 0 0 5zm35 -7c0,2 -1,4 -3,5 -2,1 -5,2 -8,2 -2,0 -4,0 -6,0 -1,-1 -3,-1 -4,-2l0 -5 1 0c1,1 3,2 4,2 2,1 3,1 5,1 0,0 1,0 2,0 0,0 1,0 1,0 1,-1 1,-1 1,-1 1,0 1,-1 1,-1 0,-1 0,-1 -1,-2 0,0 -1,0 -2,-1 -1,0 -2,0 -3,0 -1,0 -2,0 -3,-1 -2,0 -4,-1 -4,-2 -1,-1 -2,-3 -2,-4 0,-2 1,-4 3,-5 2,-2 5,-2 8,-2 2,0 4,0 5,0 2,0 3,1 4,1l0 5 0 0c-1,0 -3,-1 -4,-2 -1,0 -3,0 -4,0 -1,0 -2,0 -2,0 -1,0 -1,0 -2,0 0,0 0,1 -1,1 0,0 0,1 0,1 0,1 0,1 1,1 0,1 1,1 2,1 1,0 2,1 3,1 1,0 2,0 3,0 2,1 3,2 4,3 1,1 1,2 1,4zm24 -12l-7 0 0 19 -7 0 0 -19 -8 0 0 -4 22 0 0 4zm27 19l-6 0 -2 -5 -9 0 -2 5 -6 0 9 -23 7 0 9 23zm-10 -9l-3 -8 -3 8 6 0zm25 9c-2,0 -3,0 -5,-1 -1,0 -3,-1 -4,-2 -1,-1 -2,-2 -2,-4 -1,-1 -1,-3 -1,-5 0,-1 0,-3 0,-5 1,-1 2,-2 3,-3 1,-1 2,-2 4,-3 2,0 3,0 5,0 1,0 2,0 3,0 1,0 2,0 3,0 0,0 1,1 2,1 0,0 1,0 1,0l0 6 -1 0c0,0 0,-1 -1,-1 0,0 -1,-1 -1,-1 -1,0 -2,-1 -2,-1 -1,0 -2,0 -3,0 -1,0 -1,0 -2,0 -1,1 -2,1 -3,2 0,0 -1,1 -1,2 -1,1 -1,2 -1,3 0,2 1,3 1,4 0,1 1,2 2,2 0,1 1,1 2,1 1,1 2,1 2,1 1,0 2,0 3,-1 0,0 1,0 2,0 0,-1 1,-1 1,-1 1,-1 1,-1 2,-1l0 0 0 5c0,0 -1,1 -2,1 0,0 -1,0 -1,1 -1,0 -2,0 -3,0 0,0 -1,0 -3,0zm37 0l-8 0 -7 -9 -2 1 0 8 -6 0 0 -23 6 0 0 10 9 -10 8 0 -10 10 10 13z"/>
   <path class="fil2" d="M182 98c0,3 -1,4 -3,6 -2,1 -4,2 -8,2 -2,0 -3,0 -5,-1 -1,0 -2,0 -4,-1l0 -5 1 0c1,1 3,2 4,2 2,1 3,1 4,1 1,0 1,0 2,0 0,0 1,0 1,-1 1,0 1,0 1,0 1,-1 1,-1 1,-2 0,0 0,0 -1,-1 0,0 -1,0 -2,-1 0,0 -1,0 -2,0 -1,0 -2,-1 -3,-1 -2,0 -3,-1 -4,-2 -1,-1 -1,-3 -1,-4 0,-2 1,-4 2,-6 2,-1 5,-2 8,-2 1,0 3,1 4,1 2,0 3,1 4,1l0 5 -1 0c-1,-1 -2,-1 -3,-2 -1,0 -3,0 -4,0 -1,0 -1,0 -2,0 0,0 0,0 -1,0 0,0 -1,0 -1,1 0,0 0,0 0,1 0,0 0,1 0,1 1,1 2,1 3,1 1,0 2,0 2,1 1,0 2,0 3,0 2,1 3,2 4,3 0,1 1,2 1,3zm26 -4c0,4 -1,7 -3,9 -2,2 -5,3 -9,3 -3,0 -6,-1 -8,-3 -2,-2 -3,-5 -3,-9 0,-3 1,-6 3,-8 2,-3 5,-4 8,-4 4,0 7,1 9,4 2,2 3,5 3,8zm-8 6c1,-1 1,-2 2,-2 0,-1 0,-3 0,-4 0,-1 0,-2 -1,-3 0,-1 0,-2 -1,-3 0,0 -1,-1 -2,-1 0,0 -1,0 -2,0 0,0 -1,0 -2,0 0,0 -1,1 -2,1 0,1 -1,2 -1,3 0,1 0,2 0,3 0,2 0,3 0,4 0,1 1,1 1,2 1,1 1,1 2,1 1,1 2,1 2,1 1,0 2,0 2,-1 1,0 2,0 2,-1zm29 -13l-11 0 0 4 10 0 0 5 -10 0 0 10 -6 0 0 -23 17 0 0 4zm22 0l-7 0 0 19 -6 0 0 -19 -7 0 0 -4 20 0 0 4zm34 -4l-6 23 -6 0 -4 -15 -4 15 -7 0 -6 -23 6 0 4 16 4 -16 6 0 4 16 4 -16 5 0zm25 23l-6 0 -1 -5 -9 0 -1 5 -6 0 8 -23 7 0 8 23zm-9 -9l-2 -8 -3 8 5 0zm25 -7c0,-1 0,-1 0,-2 0,0 -1,0 -1,-1 -1,0 -1,0 -2,0 0,0 -1,0 -1,0l-2 0 0 6 1 0c1,0 2,0 3,0 0,0 1,0 1,-1 1,0 1,0 1,-1 0,0 0,-1 0,-1zm10 16l-8 0 -6 -9 -2 0 0 9 -6 0 0 -23 9 0c2,0 3,0 4,0 1,0 2,1 3,1 0,1 1,1 2,2 0,1 0,2 0,3 0,2 0,3 -1,4 -1,1 -2,2 -3,3l8 10zm19 0l-17 0 0 -23 17 0 0 4 -11 0 0 4 10 0 0 5 -10 0 0 5 11 0 0 5zm37 -12c0,2 -1,4 -2,6 -1,2 -2,3 -4,4 -1,0 -2,1 -3,1 -1,0 -3,1 -5,1l-8 0 0 -23 8 0c2,0 4,0 5,0 1,1 3,1 4,2 1,1 2,2 3,4 1,1 2,3 2,5zm-7 0c0,-1 0,-3 0,-4 -1,-1 -2,-2 -3,-2 0,0 -1,-1 -2,-1 0,0 -1,0 -3,0l-1 0 0 14 1 0c2,0 3,0 4,0 0,0 1,0 1,-1 1,0 2,-1 3,-2 0,-1 0,-2 0,-4zm27 12l-16 0 0 -23 16 0 0 4 -10 0 0 4 10 0 0 5 -10 0 0 5 10 0 0 5zm26 -23l-8 23 -7 0 -8 -23 6 0 6 16 5 -16 6 0zm20 23l-17 0 0 -23 17 0 0 4 -11 0 0 4 10 0 0 5 -10 0 0 5 11 0 0 5zm21 0l-16 0 0 -23 5 0 0 18 11 0 0 5zm26 -12c0,4 -1,7 -3,9 -3,2 -5,3 -9,3 -4,0 -7,-1 -9,-3 -2,-2 -3,-5 -3,-9 0,-3 1,-6 3,-8 2,-3 5,-4 9,-4 4,0 6,1 8,4 3,2 4,5 4,8zm-8 6c0,-1 1,-2 1,-2 0,-1 1,-3 1,-4 0,-1 -1,-2 -1,-3 0,-1 -1,-2 -1,-3 -1,0 -1,-1 -2,-1 -1,0 -1,0 -2,0 -1,0 -2,0 -2,0 -1,0 -1,1 -2,1 -1,1 -1,2 -1,3 -1,1 -1,2 -1,3 0,2 0,3 1,4 0,1 0,1 1,2 0,1 1,1 2,1 0,1 1,1 2,1 1,0 1,0 2,-1 1,0 1,0 2,-1zm31 -10c0,1 0,2 -1,3 0,1 -1,2 -1,2 -1,1 -2,2 -3,2 -1,1 -3,1 -4,1l-4 0 0 8 -6 0 0 -23 10 0c1,0 2,0 3,0 1,0 2,1 3,1 1,1 2,2 2,3 1,1 1,2 1,3zm-6 0c0,0 0,-1 -1,-1 0,-1 -1,-1 -1,-1 -1,-1 -1,-1 -2,-1 0,0 -1,0 -2,0l-1 0 0 7 2 0c1,0 1,0 2,0 1,0 1,-1 2,-1 0,0 0,-1 1,-1 0,-1 0,-1 0,-2zm26 16l-16 0 0 -23 16 0 0 4 -10 0 0 4 10 0 0 5 -10 0 0 5 10 0 0 5zm18 -16c0,-1 0,-1 0,-2 -1,0 -1,0 -2,-1 0,0 0,0 -1,0 0,0 -1,0 -2,0l-2 0 0 6 2 0c1,0 2,0 2,0 1,0 1,0 2,-1 0,0 1,0 1,-1 0,0 0,-1 0,-1zm9 16l-7 0 -6 -9 -3 0 0 9 -6 0 0 -23 10 0c2,0 3,0 4,0 1,0 1,1 2,1 1,1 2,1 2,2 1,1 1,2 1,3 0,2 0,3 -1,4 -1,1 -2,2 -3,3l7 10z"/>
   <g>
    <path class="fil1" d="M168 124c-1,0 -2,0 -2,-1 -1,0 -2,0 -2,-1 -1,0 -1,0 -1,-1 0,-1 -1,-1 -1,-2 0,-1 1,-1 1,-2 0,-1 0,-1 1,-2 0,0 1,0 2,-1 0,0 1,0 2,0 0,0 0,0 1,0 0,0 0,0 1,0 0,0 0,1 1,1 0,0 0,0 0,0l0 2 0 0c0,0 0,0 -1,0 0,0 0,0 0,-1 0,0 -1,0 -1,0 0,0 -1,0 -1,0 0,0 -1,0 -1,0 0,0 -1,0 -1,1 0,0 0,0 -1,1 0,0 0,0 0,1 0,0 0,1 0,1 1,1 1,1 1,1 0,0 1,1 1,1 0,0 1,0 1,0 0,0 1,0 1,0 0,0 1,0 1,-1 0,0 0,0 1,0 0,0 0,0 0,0l0 0 0 2c0,0 0,0 0,0 -1,0 -1,0 -1,0 -1,0 -1,1 -1,1 0,0 -1,0 -1,0zm13 -5l-1 0c0,0 0,0 0,0 0,0 -1,0 -1,0 0,0 0,0 -1,0 0,0 0,0 -1,0l0 4 -2 0 0 -6 2 0 0 1c1,-1 1,-1 2,-1 0,0 1,0 1,0 0,0 0,0 0,0 0,0 0,0 1,0l0 2zm10 1l-5 0c0,1 0,1 0,2 1,0 1,0 2,0 1,0 1,0 2,0 0,0 1,-1 1,-1l0 0 0 2c0,0 -1,0 -1,0 -1,1 -1,1 -2,1 -2,0 -3,-1 -4,-1 0,-1 -1,-2 -1,-3 0,-1 1,-2 1,-3 1,0 2,-1 4,-1 1,0 2,1 2,1 1,1 1,2 1,3l0 0zm-2 -1c0,0 0,-1 0,-1 -1,0 -1,0 -2,0 0,0 0,0 -1,0 0,0 0,1 0,1l3 0zm11 3l0 -2c-1,0 -1,0 -1,0 -1,0 -1,0 -1,0 -1,1 -1,1 -1,1 0,0 0,0 0,0 0,0 0,1 0,1 0,0 0,0 0,0 0,0 0,0 1,0 0,0 0,0 0,0 0,0 1,0 1,0 0,0 0,0 1,0zm0 1c0,0 -1,0 -1,0 0,0 0,0 0,0 -1,0 -1,1 -1,1 0,0 -1,0 -1,0 -1,0 -1,-1 -2,-1 0,0 -1,-1 -1,-2 0,0 1,0 1,-1 0,0 0,0 1,-1 0,0 1,0 2,0 0,0 1,0 2,0l0 0c0,0 -1,-1 -1,-1 0,0 -1,0 -1,0 -1,0 -1,0 -2,0 0,0 0,0 -1,0l0 0 0 -1c0,0 1,0 1,-1 1,0 2,0 2,0 2,0 3,1 3,1 1,0 1,1 1,2l0 4 -2 0 0 0zm11 0c0,0 0,0 -1,1 0,0 0,0 -1,0 -1,0 -1,-1 -2,-1 0,0 -1,-1 -1,-2l0 -3 -1 0 0 -1 1 0 0 -2 3 0 0 2 2 0 0 1 -2 0 0 3c0,0 0,0 0,0 0,0 0,0 0,1 0,0 0,0 0,0 0,0 1,0 1,0 0,0 0,0 1,0 0,0 0,0 0,0l0 0 0 1zm6 0l-2 0 0 -6 2 0 0 6zm0 -7l-3 0 0 -2 3 0 0 2zm12 1l-3 6 -3 0 -3 -6 3 0 2 4 1 -4 3 0zm11 3l-6 0c0,1 0,1 1,2 0,0 1,0 2,0 0,0 1,0 1,0 1,0 1,-1 1,-1l1 0 0 2c-1,0 -1,0 -2,0 0,1 -1,1 -2,1 -1,0 -2,-1 -3,-1 -1,-1 -1,-2 -1,-3 0,-1 0,-2 1,-3 1,0 2,-1 3,-1 1,0 2,1 3,1 0,1 1,2 1,3l0 0zm-3 -1c0,0 0,-1 0,-1 0,0 -1,0 -1,0 -1,0 -1,0 -1,0 -1,0 -1,1 -1,1l3 0zm9 2l-2 5 -2 0 2 -5 2 0zm13 2l-6 0 0 -1 2 0 0 -6 -2 0 0 -2 6 0 0 2 -2 0 0 6 2 0 0 1zm11 0l-2 0 0 -3c0,0 0,-1 0,-1 0,0 0,0 0,0 0,-1 0,-1 -1,-1 0,0 0,0 0,0 -1,0 -1,0 -1,0 0,0 -1,0 -1,1l0 4 -2 0 0 -6 2 0 0 0c1,0 1,0 1,0 1,-1 1,-1 2,-1 1,0 1,1 2,1 0,0 0,1 0,2l0 4zm10 0c-1,0 -1,0 -1,1 -1,0 -1,0 -1,0 -1,0 -2,-1 -3,-1 0,0 0,-1 0,-2l0 -3 -1 0 0 -1 1 0 0 -2 2 0 0 2 3 0 0 1 -3 0 0 3c0,0 0,0 0,0 0,0 0,0 0,1 0,0 0,0 1,0 0,0 0,0 0,0 0,0 1,0 1,0 0,0 0,0 0,0l1 0 0 1zm10 -3l-5 0c0,1 0,1 0,2 1,0 2,0 2,0 1,0 1,0 2,0 0,0 1,-1 1,-1l0 0 0 2c0,0 -1,0 -1,0 -1,1 -1,1 -2,1 -1,0 -3,-1 -3,-1 -1,-1 -2,-2 -2,-3 0,-1 1,-2 1,-3 1,0 2,-1 4,-1 1,0 2,1 2,1 1,1 1,2 1,3l0 0zm-2 -1c0,0 0,-1 0,-1 -1,0 -1,0 -2,0 0,0 0,0 -1,0 0,0 0,1 0,1l3 0zm9 4l-3 0 0 -9 3 0 0 9zm6 0l-2 0 0 -9 2 0 0 9zm7 0l-3 0 0 -6 3 0 0 6zm0 -7l-3 0 0 -2 3 0 0 2zm12 7c0,0 -1,1 -1,1 0,1 0,1 -1,1 0,1 0,1 -1,1 0,0 -1,0 -2,0 0,0 -1,0 -1,0 -1,0 -1,0 -2,0l0 -2 1 0c0,0 0,0 1,0 0,0 1,0 1,0 0,0 1,0 1,0 0,0 1,0 1,0 0,0 0,0 0,-1 0,0 0,0 0,0l0 0c0,0 -1,0 -1,0 0,0 -1,0 -1,0 -1,0 -2,0 -3,-1 0,0 0,-1 0,-2 0,-1 0,-1 0,-2 0,0 0,0 1,-1 0,0 0,0 1,0 0,-1 1,-1 1,-1 0,0 1,0 1,1 1,0 1,0 1,0l0 0 3 0 0 6zm-3 -2l0 -3c0,0 0,0 0,0 -1,0 -1,0 -1,0 -1,0 -1,0 -1,0 -1,1 -1,1 -1,2 0,1 0,1 1,1 0,1 0,1 1,1 0,0 0,0 0,0 1,-1 1,-1 1,-1zm14 -1l-5 0c0,1 0,1 0,2 1,0 1,0 2,0 1,0 1,0 2,0 0,0 1,-1 1,-1l0 0 0 2c0,0 -1,0 -1,0 -1,1 -1,1 -2,1 -2,0 -3,-1 -4,-1 0,-1 -1,-2 -1,-3 0,-1 1,-2 1,-3 1,0 2,-1 4,-1 1,0 2,1 2,1 1,1 1,2 1,3l0 0zm-2 -1c0,0 0,-1 0,-1 -1,0 -1,0 -2,0 0,0 0,0 -1,0 0,0 0,1 0,1l3 0zm14 4l-3 0 0 -3c0,0 0,-1 0,-1 0,0 0,0 0,0 0,-1 0,-1 0,-1 -1,0 -1,0 -1,0 0,0 -1,0 -1,0 0,0 0,0 -1,1l0 4 -2 0 0 -6 2 0 0 0c1,0 1,0 2,0 0,-1 1,-1 1,-1 1,0 2,1 2,1 0,0 1,1 1,2l0 4zm9 0c-1,0 -1,0 -1,1 0,0 -1,0 -1,0 -1,0 -2,-1 -2,-1 -1,0 -1,-1 -1,-2l0 -3 -1 0 0 -1 1 0 0 -2 2 0 0 2 3 0 0 1 -3 0 0 3c0,0 0,0 0,0 0,0 0,0 1,1 0,0 0,0 0,0 0,0 0,0 1,0 0,0 0,0 0,0 0,0 0,0 1,0l0 0 0 1zm6 -2l-2 5 -2 0 2 -5 2 0zm15 0c0,0 0,1 -1,2 -1,0 -2,1 -4,1 0,0 -1,0 -2,-1 0,0 -1,0 -1,0l0 -2 0 0c0,0 1,0 2,1 0,0 1,0 2,0 0,0 0,0 0,0 0,0 1,0 1,0 0,0 0,0 0,-1 0,0 1,0 1,0 0,0 -1,0 -1,-1 0,0 0,0 -1,0 0,0 0,0 -1,0 0,0 -1,0 -1,0 -1,-1 -1,-1 -2,-1 0,-1 0,-1 0,-2 0,-1 0,-1 1,-2 1,-1 2,-1 3,-1 1,0 1,0 2,0 1,0 1,1 2,1l0 2 0 0c-1,0 -1,-1 -2,-1 -1,0 -1,0 -2,0 0,0 0,0 0,0 -1,0 -1,0 -1,0 0,0 0,0 -1,0 0,0 0,1 0,1 0,0 0,0 1,0 0,0 0,1 1,1 0,0 0,0 1,0 0,0 1,0 1,0 1,0 1,1 2,1 0,0 0,1 0,2zm8 3c-1,0 -2,0 -2,-1 -1,0 -1,0 -2,0 0,-1 0,-1 0,-1 -1,-1 -1,-1 -1,-2 0,-1 0,-1 1,-2 0,0 0,0 1,-1 0,0 0,0 1,0 1,-1 1,-1 2,-1 0,0 1,0 1,1 1,0 1,0 1,0l0 2 0 0c0,0 0,0 0,0 0,-1 -1,-1 -1,-1 0,0 0,0 0,0 -1,0 -1,0 -1,0 -1,0 -1,0 -2,1 0,0 0,0 0,1 0,1 0,1 0,2 1,0 1,0 2,0 0,0 0,0 1,0 0,0 0,0 0,0 0,0 1,0 1,-1 0,0 0,0 0,0l0 0 0 2c0,0 0,0 -1,0 0,1 -1,1 -1,1zm11 -2l0 -2c-1,0 -1,0 -2,0 0,0 0,0 0,0 -1,1 -1,1 -1,1 0,0 0,0 0,0 0,0 0,1 0,1 0,0 0,0 0,0 0,0 0,0 0,0 1,0 1,0 1,0 0,0 1,0 1,0 0,0 0,0 1,0zm0 1c-1,0 -1,0 -1,0 0,0 0,0 0,0 -1,0 -1,1 -1,1 -1,0 -1,0 -1,0 -1,0 -1,-1 -2,-1 0,0 -1,-1 -1,-2 0,0 0,0 1,-1 0,0 0,0 1,-1 0,0 1,0 1,0 1,0 2,0 3,0l0 0c0,0 -1,-1 -1,-1 0,0 -1,0 -1,0 -1,0 -1,0 -2,0 0,0 -1,0 -1,0l0 0 0 -1c0,0 1,0 1,-1 1,0 1,0 2,0 1,0 2,1 3,1 1,0 1,1 1,2l0 4 -2 0 0 0zm9 0l-3 0 0 -9 3 0 0 9zm8 -1l0 -2c0,0 0,0 -1,0 0,0 0,0 0,0 -1,1 -1,1 -1,1 0,0 0,0 0,0 0,0 0,1 0,1 0,0 0,0 0,0 0,0 0,0 0,0 1,0 1,0 1,0 0,0 1,0 1,0 0,0 0,0 0,0zm0 1c0,0 0,0 0,0 0,0 0,0 -1,0 0,0 0,1 0,1 -1,0 -1,0 -1,0 -1,0 -1,-1 -2,-1 0,0 -1,-1 -1,-2 0,0 0,0 1,-1 0,0 0,0 1,-1 0,0 1,0 1,0 1,0 2,0 2,0l0 0c0,0 0,-1 0,-1 0,0 -1,0 -2,0 0,0 0,0 -1,0 0,0 -1,0 -1,0l0 0 0 -1c0,0 1,0 1,-1 1,0 1,0 2,0 1,0 2,1 3,1 1,0 1,1 1,2l0 4 -3 0 0 0zm15 -3c0,1 0,2 -1,3 -1,0 -1,1 -2,1 -1,0 -1,0 -2,-1 0,0 0,0 0,0l-1 0 -2 0 0 -9 3 0 0 3c0,0 0,0 1,0 0,-1 1,-1 1,-1 1,0 2,1 2,1 1,1 1,2 1,3zm-2 0c0,-1 -1,-1 -1,-1 0,-1 0,-1 -1,-1 0,0 -1,0 -1,0 0,0 0,0 0,0l0 4c0,0 0,0 0,0 0,0 0,0 1,0 0,0 1,0 1,-1 0,0 1,0 1,-1zm8 3l-2 0 0 -9 2 0 0 9zm12 -3l-6 0c0,1 1,1 1,2 0,0 1,0 2,0 0,0 1,0 1,0 1,0 1,-1 2,-1l0 0 0 2c-1,0 -1,0 -2,0 0,1 -1,1 -1,1 -2,0 -3,-1 -4,-1 -1,-1 -1,-2 -1,-3 0,-1 0,-2 1,-3 1,0 2,-1 3,-1 1,0 2,1 3,1 1,1 1,2 1,3l0 0zm-2 -1c0,0 -1,-1 -1,-1 0,0 0,0 -1,0 0,0 -1,0 -1,0 0,0 -1,1 -1,1l4 0zm13 3l0 -2c0,0 -1,0 -1,0 0,0 -1,0 -1,0 0,1 0,1 0,1 0,0 -1,0 -1,0 0,0 0,1 0,1 1,0 1,0 1,0 0,0 0,0 0,0 0,0 0,0 1,0 0,0 0,0 0,0 1,0 1,0 1,0zm0 1c0,0 0,0 0,0 -1,0 -1,0 -1,0 0,0 0,1 -1,1 0,0 0,0 -1,0 0,0 -1,-1 -1,-1 -1,0 -1,-1 -1,-2 0,0 0,0 0,-1 1,0 1,0 1,-1 1,0 1,0 2,0 1,0 1,0 2,0l0 0c0,0 0,-1 0,-1 -1,0 -1,0 -2,0 0,0 -1,0 -1,0 -1,0 -1,0 -1,0l0 0 0 -1c0,0 0,0 1,-1 0,0 1,0 2,0 1,0 2,1 3,1 0,0 1,1 1,2l0 4 -3 0 0 0zm14 0l-2 0 0 -3c0,0 0,-1 0,-1 0,0 0,0 0,0 0,-1 0,-1 -1,-1 0,0 0,0 0,0 -1,0 -1,0 -1,0 0,0 -1,0 -1,1l0 4 -2 0 0 -6 2 0 0 0c1,0 1,0 1,0 1,-1 1,-1 2,-1 1,0 1,1 2,1 0,0 0,1 0,2l0 4zm12 0l-2 0 0 0c-1,0 -1,0 -2,0 0,1 0,1 -1,1 -1,0 -2,-1 -2,-1 -1,-1 -1,-2 -1,-3 0,-1 0,-1 0,-1 1,-1 1,-1 1,-2 0,0 1,0 1,0 1,-1 1,-1 2,-1 0,0 0,0 1,1 0,0 0,0 1,0l0 -3 2 0 0 9zm-2 -1l0 -4c-1,0 -1,0 -1,0 0,0 0,0 0,0 -1,0 -2,0 -2,1 0,0 0,0 0,1 0,1 0,1 0,2 0,0 1,0 1,0 0,0 1,0 1,0 0,0 0,0 1,0zm19 -3c0,1 0,2 -1,2 0,1 -1,1 -1,2 -1,0 -1,0 -2,0 -1,0 -1,0 -2,0l-4 0 0 -9 4 0c1,0 2,0 2,1 1,0 1,0 2,0 0,0 1,1 1,2 1,0 1,1 1,2zm-3 0c0,-1 0,-1 0,-2 0,0 -1,0 -1,-1 -1,0 -1,0 -1,0 0,0 -1,0 -1,0l-1 0 0 6 1 0c0,0 1,0 1,0 0,0 1,0 1,-1 0,0 1,0 1,-1 0,0 0,-1 0,-1zm14 1l-5 0c0,1 0,1 0,2 1,0 1,0 2,0 1,0 1,0 2,0 0,0 0,-1 1,-1l0 0 0 2c-1,0 -1,0 -2,0 0,1 -1,1 -1,1 -2,0 -3,-1 -4,-1 -1,-1 -1,-2 -1,-3 0,-1 0,-2 1,-3 1,0 2,-1 3,-1 2,0 3,1 3,1 1,1 1,2 1,3l0 0zm-2 -1c0,0 0,-1 -1,-1 0,0 0,0 -1,0 0,0 -1,0 -1,0 0,0 0,1 0,1l3 0zm8 4l-2 0 0 -9 2 0 0 9zm7 0l-2 0 0 -6 2 0 0 6zm0 -7l-3 0 0 -2 3 0 0 2zm12 1l-3 6 -3 0 -3 -6 3 0 2 4 1 -4 3 0zm11 3l-6 0c0,1 0,1 1,2 0,0 1,0 2,0 0,0 1,0 1,0 1,0 1,-1 1,-1l1 0 0 2c-1,0 -1,0 -2,0 0,1 -1,1 -2,1 -1,0 -2,-1 -3,-1 -1,-1 -1,-2 -1,-3 0,-1 0,-2 1,-3 1,0 2,-1 3,-1 1,0 2,1 3,1 0,1 1,2 1,3l0 0zm-3 -1c0,0 0,-1 0,-1 0,0 -1,0 -1,0 -1,0 -1,0 -1,0 -1,0 -1,1 -1,1l3 0zm12 0l0 0c0,0 -1,0 -1,0 0,0 0,0 0,0 -1,0 -1,0 -1,0 -1,0 -1,0 -1,0l0 4 -3 0 0 -6 3 0 0 1c0,-1 1,-1 1,-1 1,0 1,0 1,0 0,0 1,0 1,0 0,0 0,0 0,0l0 2zm11 1l-6 0c0,1 0,1 1,2 0,0 1,0 2,0 0,0 1,0 1,0 1,0 1,-1 1,-1l1 0 0 2c-1,0 -1,0 -2,0 0,1 -1,1 -2,1 -1,0 -2,-1 -3,-1 -1,-1 -1,-2 -1,-3 0,-1 0,-2 1,-3 1,0 2,-1 3,-1 1,0 2,1 3,1 0,1 1,2 1,3l0 0zm-3 -1c0,0 0,-1 0,-1 0,0 -1,0 -1,0 -1,0 -1,0 -1,0 -1,0 -1,1 -1,1l3 0z"/>
    <path class="fil1" d="M576 123l-3 0 0 0c0,0 0,0 -1,0 0,1 -1,1 -1,1 -1,0 -2,-1 -2,-1 -1,-1 -1,-2 -1,-3 0,-1 0,-1 0,-1 0,-1 1,-1 1,-2 0,0 1,0 1,0 0,-1 1,-1 1,-1 1,0 1,0 2,1 0,0 0,0 0,0l0 -3 3 0 0 9zm-3 -1l0 -4c0,0 0,0 0,0 0,0 -1,0 -1,0 0,0 -1,0 -1,1 0,0 -1,0 -1,1 0,1 1,1 1,2 0,0 0,0 1,0 0,0 0,0 1,0 0,0 0,0 0,0z"/>
   </g>
  </g>
  <rect class="fil3 str1" x="5" y="5" width="121" height="121"/>
  <g id="_1946646184480">
   <rect class="fil4" x="6" y="5" width="39.164" height="120.75"/>
   <path class="fil0" d="M8 98c5,0 8,-1 10,-3 2,-1 3,-5 3,-11l0 -64 20 0 0 65c0,10 -2,17 -6,21 -4,4 -10,6 -20,6l-7 -14z"/>
  </g>
  <g id="_1946646184640">
   <rect class="fil5" x="47" y="5" width="79.4939" height="120.75"/>
   <polygon class="fil6" points="50,91 50,20 70,20 70,52 96,20 118,20 90,53 125,91 99,91 70,58 70,91 "/>
  </g>
 </g>
</svg>
