<svg xmlns="http://www.w3.org/2000/svg" width="1200" height="263" shape-rendering="geometricPrecision" text-rendering="geometricPrecision" image-rendering="optimizeQuality" fill-rule="evenodd" clip-rule="evenodd"><defs><style>.fil2,.fil3{fill:#5a5560;fill-rule:nonzero}.fil3{fill:#9b786f}</style></defs><g id="Layer_x0020_1"><g id="_2918614130240"><path d="M374 70c0 4-1 7-2 10s-3 5-5 8c-3 2-6 4-10 5-3 1-8 2-13 2-4 0-7-1-10-1-4 0-6 0-9-1V77h2c2 1 3 1 5 2 2 0 4 1 7 1 4 0 7-1 9-2s3-2 4-4 1-4 1-6c1-2 1-4 1-8V29h-18V15h38v55zm76-3h-43c0 5 2 8 5 11 3 2 8 4 15 4 4 0 8-1 11-3 4-1 7-3 9-4h2v15c-4 2-8 3-12 4s-8 1-12 1c-12 0-21-3-28-8-6-5-9-13-9-23s3-18 9-23c6-6 14-9 24-9s17 3 22 7c5 5 7 12 7 22v6zm-18-11c-1-4-2-7-3-9-2-2-5-3-9-3s-7 1-9 3c-3 2-4 5-4 9h25zm111-31h-2l-2-1h-5c-4 0-6 0-8 2-1 1-2 4-2 8h15v13h-14v46h-19V47h-22v46h-19V47h-8V34h8v-2c0-14 8-22 24-22 5 0 9 1 13 2v13h-1l-3-1h-5c-3 0-6 0-7 2-2 1-2 4-2 8h22v-2c0-14 8-22 23-22 5 0 10 1 14 2v13zm122 68h-25l-24-31-4 6v25h-21V15h21v35l28-35h23l-30 36 32 42zm28 0h-19V34h19v59zm0-68h-20V11h20v14zm77 68h-19V64v-7c0-3-1-4-1-6-1-1-2-2-3-2-2-1-4-1-6-1s-3 0-5 1c-2 0-4 1-6 2v42h-19V34h19v7c3-3 7-5 10-7 3-1 6-2 10-2 6 0 11 2 15 6s5 9 5 17v38zm76-6c0 5-1 10-3 14-1 3-3 6-6 8-3 3-7 4-11 5s-8 2-13 2c-4 0-8-1-12-1-5-1-8-1-11-2V98h2l9 3c3 1 6 1 9 1s6 0 9-1c2-1 3-2 5-3 1-1 1-2 2-4 0-2 1-4 1-6v-2c-3 2-5 4-8 5s-6 1-9 1c-9 0-15-2-20-7-4-5-6-13-6-23 0-5 0-9 2-13 1-3 3-6 6-9 2-2 5-4 8-6 4-1 7-2 11-2 3 0 6 1 8 1 3 1 5 2 8 4v-3h19v53zm-19-12V48c-1-1-3-1-4-1-2-1-3-1-5-1-5 0-8 2-11 5-2 2-4 6-4 12 0 5 1 9 4 11 2 3 5 4 9 4 2 0 4 0 6-1s3-1 5-2z" fill="#fff" fill-rule="nonzero"/><path d="M361 121h-23v8h21v9h-21v19h-13v-45h36v9zm53 20c0 6-2 10-6 13s-9 4-17 4c-7 0-12-1-16-4s-6-7-6-13v-29h13v28c0 3 1 6 2 7 2 2 4 3 7 3 4 0 6-1 7-3 2-1 3-3 3-7v-28h13v29zm48 16h-36v-45h13v37h23v8zm44 0h-36v-45h13v37h23v8zm71-14c0 5-2 8-6 11s-10 4-17 4c-4 0-8 0-11-1-3 0-6-1-9-2v-11h2c2 2 5 3 9 4 3 1 6 2 9 2h3c1 0 3-1 3-1 1 0 2-1 3-1 0-1 1-2 1-3s-1-2-2-2c-1-1-2-2-4-2s-4-1-6-1c-2-1-4-1-6-2-4-1-7-2-9-5-2-2-2-4-2-7 0-5 2-8 6-11s9-4 16-4c3 0 6 0 10 1 3 1 6 1 8 2v11h-1c-2-2-5-3-8-4s-6-1-9-1h-6c-1 1-2 1-2 2-1 0-1 1-1 2s0 2 1 3c1 0 3 1 6 1 2 1 4 1 5 1 2 1 4 1 6 2 4 1 6 3 8 4 2 2 3 5 3 8zm48-22h-16v36h-13v-36h-15v-9h44v9zm54 36h-13l-4-9h-18l-4 9h-13l19-45h15l18 45zm-20-17l-6-16-6 16h12zm50 18c-4 0-7 0-10-1-4-1-6-3-9-5-2-2-4-4-5-7s-2-6-2-10 1-7 2-10 3-6 5-8 5-3 8-4c4-1 7-2 11-2h6c1 1 3 1 4 1 2 1 3 1 4 1 2 1 3 1 4 2v11h-2l-2-2c-1-1-2-1-4-2-1-1-2-1-4-1-1-1-2-1-4-1s-4 0-5 1c-2 0-3 1-5 2-1 1-2 3-3 5s-1 4-1 7 0 5 1 7 2 3 3 4c2 2 3 2 5 3 2 0 3 1 5 1s3-1 5-1c1-1 3-1 4-2 1 0 2-1 3-2 1 0 2-1 2-1h2v10c-2 1-3 1-4 2-1 0-2 1-4 1-1 0-3 1-4 1h-6zm74-1h-16l-15-18-3 4v14h-13v-45h13v21l18-21h15l-20 21 21 24z" fill="#9d8d8f" fill-rule="nonzero"/><path class="fil2" d="M364 197c0 4-2 8-6 11s-9 4-15 4c-4 0-7 0-10-1s-5-2-8-3v-10h1c3 2 6 3 8 4 3 1 6 2 9 2 1 0 2 0 3-1h3l2-2c1 0 1-1 1-2s-1-2-1-3c-1 0-2-1-4-1-2-1-4-1-6-1-1-1-3-1-5-2-4-1-6-3-8-5s-3-5-3-8c0-4 2-7 6-10s9-4 15-4c3 0 6 0 9 1 2 0 5 1 7 2v10h-1c-2-1-4-2-7-3s-5-2-8-2h-3c-1 1-2 1-3 1 0 1-1 1-2 2 0 0-1 1-1 2s1 2 2 2c1 1 2 2 5 2 2 1 3 1 5 1 1 1 3 1 5 2 3 1 6 2 7 4 2 2 3 5 3 8zm52-9c0 8-2 13-6 18-4 4-10 6-17 6-8 0-13-2-17-6-5-5-7-10-7-18 0-7 2-13 7-17 4-4 9-6 17-6 7 0 13 2 17 6s6 10 6 17zm-15 12c1-1 2-3 2-5 1-2 1-4 1-7 0-2 0-5-1-7-1-1-1-3-2-4s-3-2-4-3c-1 0-3-1-4-1-2 0-3 1-4 1-2 1-3 2-4 3s-2 2-3 4v14c1 2 2 4 3 5l3 3c2 0 3 1 5 1 1 0 3-1 4-1 1-1 3-2 4-3zm57-25h-21v8h19v9h-19v19h-12v-45h33v9zm43 0h-14v36h-12v-36h-14v-9h40v9zm70-9l-12 45h-13l-8-29-8 29h-13l-12-45h12l7 31 8-31h12l8 31 7-31h12zm50 45h-12l-3-9h-17l-3 9h-12l17-45h13l17 45zm-18-17l-6-16-5 16h11zm50-14c0-2 0-2-1-3 0-1-1-2-2-2-1-1-2-1-3-1h-8v12h8c2 0 3-1 4-1 0-1 1-2 1-2 1-1 1-2 1-3zm18 31h-14l-13-17h-5v17h-12v-45h27c2 0 4 1 5 2 2 1 3 2 4 4 2 2 2 4 2 6 0 4-1 6-2 8-2 3-4 4-7 6l15 19zm38 0h-33v-45h33v9h-21v7h20v9h-20v11h21v9zm74-23c0 5-1 9-3 12s-4 6-7 8c-2 1-5 2-7 2-3 1-6 1-10 1h-16v-45h17c4 0 7 0 9 1 3 0 5 1 7 2 3 2 6 5 8 8 1 3 2 7 2 11zm-12 0c0-3 0-5-1-7-2-2-3-4-6-5-1-1-2-1-3-1-2-1-3-1-6-1h-3v29h3c3 0 5-1 6-1s3-1 4-1c2-1 4-3 5-5s1-5 1-8zm54 23h-33v-45h33v9h-21v7h20v9h-20v11h21v9zm51-45l-16 45h-14l-16-45h12l11 32 11-32h12zm40 45h-33v-45h33v9h-22v7h20v9h-20v11h22v9zm42 0h-33v-45h12v36h21v9zm51-23c0 8-2 13-6 18-4 4-10 6-17 6s-13-2-17-6c-4-5-6-10-6-18 0-7 2-13 6-17s10-6 17-6 13 2 17 6 6 10 6 17zm-15 12c1-1 2-3 2-5 1-2 1-4 1-7 0-2 0-5-1-7 0-1-1-3-2-4s-2-2-4-3c-1 0-3-1-4-1-2 0-3 1-4 1-2 1-3 2-4 3s-2 2-2 4c-1 2-1 5-1 7 0 3 0 5 1 7 0 2 1 4 2 5s2 2 4 3c1 0 2 1 4 1 1 0 3-1 4-1 2-1 3-2 4-3zm62-20c0 2-1 4-1 6-1 2-2 4-3 5-2 2-4 3-6 4-3 1-5 1-9 1h-7v15h-12v-45h27c2 1 4 2 5 3 2 1 3 2 4 4s2 4 2 7zm-12 0c0-1-1-2-1-3-1-1-2-2-3-2s-2-1-3-1h-7v14h3c2 0 4 0 5-1 2 0 3 0 4-1 0-1 1-1 1-2s1-2 1-4zm53 31h-33v-45h33v9h-21v7h20v9h-20v11h21v9zm35-31v-3c-1-1-2-2-3-2-1-1-2-1-3-1h-7v12h8c1 0 2-1 3-1 1-1 1-2 2-2v-3zm19 31h-15l-12-17h-5v17h-12v-45h26c2 0 4 1 6 2s3 2 4 4 1 4 1 6c0 4 0 6-2 8-1 3-4 4-7 6l16 19z"/><path class="fil3" d="M335 247h-4c-1-1-2-1-3-2s-2-2-2-3c-1-1-1-3-1-4 0-2 0-3 1-4 0-1 1-2 2-3s2-2 3-2c2 0 3-1 4-1h3c0 1 1 1 2 1h1c1 0 1 1 2 1v4h-1-1c0-1-1-1-1-1-1 0-1-1-2-1h-2-2s-1 1-2 1c0 1-1 1-1 2v6l1 1c1 1 2 1 2 1 1 1 2 1 2 1 1 0 2 0 2-1h2l1-1c1 0 1 0 1-1h1v5h-2l-1 1h-5zm26-10h-4c-1 0-1 1-2 1v9h-5v-14h5v2c1-1 2-1 3-1 1-1 1-1 2-1h1v4zm22 4h-11c0 1 0 2 1 2 1 1 2 1 4 1h3c1-1 1-1 2-1h1v3c-2 1-3 1-4 1h-3c-3 0-5 0-7-2-2-1-2-3-2-5s0-4 2-5c2-2 4-2 6-2 3 0 5 0 6 1 1 2 2 3 2 5v2zm-5-3c0-1 0-1-1-2 0 0-1-1-2-1s-2 1-2 1c-1 1-1 1-1 2h6zm21 5v-3s-1 1-2 1h-1c-1 0-1 0-2 1v1s0 1 1 1h3c1 0 1 0 1-1zm0 2c0 1 0 1-1 1 0 0 0 1-1 1h-3c-1 0-3 0-3-1-1-1-2-2-2-3s0-2 1-3c0 0 1-1 2-1s2-1 3-1h4c0-1 0-2-1-2h-3-2c-1 0-2 1-2 1h-1v-4h6c3 0 5 0 6 1 2 1 2 2 2 4v9h-5v-2zm23 2h-3c-2 0-4 0-5-1s-1-2-1-3v-7h-2v-3h2v-4h5v4h4v3h-4v7c0 1 0 1 1 1h3v3zm12 0h-5v-14h5v14zm0-16h-5v-3h5v3zm24 2l-6 14h-5l-6-14h5l3 10 4-10h5zm22 8h-12c0 1 1 2 2 2 1 1 2 1 3 1h3c1-1 2-1 3-1v3c-1 1-2 1-3 1h-3c-3 0-5 0-7-2-2-1-3-3-3-5s1-4 3-5c1-2 3-2 6-2s4 0 6 1c1 2 2 3 2 5v2zm-5-3c0-1-1-1-1-2-1 0-1-1-2-1s-2 1-3 1c0 1-1 1-1 2h7zm18 4l-5 9h-3l3-9h5zm25 5h-12v-3h3v-12h-3v-3h12v3h-4v12h4v3zm23 0h-5v-7-2-1h-1c0-1-1-1-2-1 0 0-1 0-1 1h-1v10h-5v-14h5v2c0-1 1-1 2-2h3c1 0 3 0 4 1s1 2 1 4v9zm18 0h-2-2c-2 0-3 0-4-1s-1-2-1-3v-7h-2v-3h2v-4h5v4h4v3h-4v8h4v3zm22-6h-11c0 1 0 2 1 2 1 1 2 1 4 1h3c1-1 2-1 2-1h1v3c-1 1-2 1-3 1h-4c-3 0-5 0-7-2-1-1-2-3-2-5s1-4 2-5c2-2 4-2 6-2 3 0 5 0 6 1 1 2 2 3 2 5v2zm-5-3c0-1 0-1-1-2 0 0-1-1-2-1s-2 1-2 1c-1 1-1 1-1 2h6zm17 9h-5v-19h5v19zm14 0h-5v-19h5v19zm13 0h-5v-14h5v14zm0-16h-5v-3h5v3zm23 14v4c-1 0-1 1-2 2-1 0-2 0-3 1h-6c-1 0-2 0-3-1v-3h1s1 0 2 1h4c1-1 1-1 2-1v-1-2c0 1-1 1-2 1 0 1-1 1-2 1-2 0-4-1-5-2s-2-3-2-5c0-1 0-2 1-3 0-1 1-2 1-2 1-1 2-1 3-2h4c1 0 2 0 2 1l1-1h4v12zm-5-2v-7h-1-1c-1 0-2 0-3 1 0 1-1 2-1 3s1 2 1 3h5zm29-2h-11c0 1 0 2 1 2 1 1 2 1 4 1h3c1-1 1-1 2-1h1v3c-2 1-3 1-4 1h-3c-3 0-5 0-7-2-2-1-2-3-2-5s0-4 2-5c1-2 4-2 6-2 3 0 5 0 6 1 1 2 2 3 2 5v2zm-5-3c0-1 0-1-1-2 0 0-1-1-2-1s-2 1-2 1c-1 1-1 1-1 2h6zm27 9h-4v-7s0-1-1-2v-1h-1c0-1 0-1-1-1s-1 0-1 1h-2v10h-5v-14h5v2c1-1 2-1 3-2h2c2 0 3 0 4 1s1 2 1 4v9zm19 0h-4c-2 0-4 0-4-1-1-1-2-2-2-3v-7h-2v-3h2v-4h5v4h5v3h-5v7c0 1 1 1 1 1h4v3zm13-5l-5 9h-3l2-9h6zm30-1c0 2-1 3-3 5-2 1-4 1-7 1h-4c-2 0-3-1-4-1v-5h1c1 1 2 2 3 2 2 1 3 1 4 1h3c0-1 1-1 1-1v-1-1c-1 0-1-1-2-1h-2c-1 0-2 0-3-1-2 0-3-1-4-2 0-1-1-2-1-3 0-2 1-3 3-4s4-2 6-2 3 0 4 1c2 0 3 0 4 1v4h-1c-1-1-2-1-3-2h-5-1s-1 0-1 1v2h3s1 1 2 1h2c2 1 3 1 3 2 1 1 2 2 2 3zm15 6h-4c-1 0-2-1-3-1-1-1-1-2-2-3v-3-3c1-1 1-2 2-3 1 0 2-1 3-1h6c1 0 2 1 3 1v4h-1v-1h-1c-1-1-1-1-2-1h-1c-2 0-3 0-3 1-1 1-1 2-1 3s0 2 1 3c0 1 2 1 3 1h1c1 0 1 0 2-1h1v-1h1v4c-1 1-2 1-3 1h-2zm21-4v-3s-1 1-2 1h-2s-1 0-1 1v2h4s1 0 1-1zm0 2c0 1 0 1-1 1 0 0 0 1-1 1h-3c-1 0-3 0-4-1s-1-2-1-3 0-2 1-3c0 0 1-1 2-1s2-1 3-1h4c0-1 0-2-1-2h-5c-1 0-2 1-2 1h-1v-4h6c3 0 5 0 6 1s2 2 2 4v9h-5v-2zm18 2h-5v-19h5v19zm18-4v-3c-1 0-1 1-2 1h-2s-1 0-1 1v2h4s1 0 1-1zm0 2c0 1 0 1-1 1l-1 1h-3c-2 0-3 0-4-1s-1-2-1-3v-3c1 0 2-1 3-1 0 0 2-1 3-1h4c0-1 0-2-1-2h-6s-1 1-2 1v-4h6c3 0 5 0 6 1s2 2 2 4v9h-5v-2zm29-5c0 2 0 4-2 5-1 1-3 2-5 2h-2c-1 0-1-1-2-1v1h-5v-19h5v7c1-1 2-1 3-2h2c2 0 4 0 5 2 1 1 1 3 1 5zm-5 0v-3c-1-1-2-1-3-1h-1c-1 0-1 1-2 1v7h2c2 0 3 0 3-1 1-1 1-2 1-3zm18 7h-5v-19h5v19zm23-6h-11c0 1 0 2 1 2 1 1 2 1 4 1h3c1-1 2-1 2-1h1v3c-1 1-2 1-3 1h-4c-3 0-5 0-7-2-1-1-2-3-2-5s1-4 2-5c2-2 4-2 7-2 2 0 4 0 5 1 1 2 2 3 2 5v2zm-5-3c0-1 0-1-1-2 0 0-1-1-2-1s-1 1-2 1c-1 1-1 1-1 2h6zm27 5v-3s-1 1-2 1h-1c-1 0-1 0-2 1v1s0 1 1 1h3c1 0 1 0 1-1zm0 2c0 1 0 1-1 1 0 0 0 1-1 1h-3c-1 0-3 0-4-1 0-1-1-2-1-3s0-2 1-3c0 0 1-1 2-1s2-1 3-1h4c0-1 0-2-1-2h-3-2c-1 0-2 1-2 1h-1v-4h6c3 0 5 0 6 1 2 1 2 2 2 4v9h-5v-2zm29 2h-5v-7-2-1h-1c0-1-1-1-2-1 0 0-1 0-1 1h-1v10h-5v-14h5v2c0-1 1-1 2-2h3c1 0 3 0 4 1s1 2 1 4v9zm23 0h-5v-2c-1 1-1 2-2 2h-3c-1 0-3 0-4-2-1-1-2-3-2-5 0-1 0-2 1-3 0-1 1-2 1-2 1-1 2-1 3-2h5s1 0 1 1v-6h5v19zm-5-4v-7h-1-1c-1 0-2 0-3 1 0 1-1 2-1 3s1 2 1 3c1 1 1 1 3 1h1c1 0 1-1 1-1zm39-5c0 1-1 3-1 4-1 2-2 3-4 3-1 1-2 1-3 2h-11v-18h11c2 0 3 1 3 1 2 1 3 2 4 3 1 2 1 3 1 5zm-6 0v-3c-1-1-2-2-3-2 0-1-1-1-1-1h-4v11h6l2-2v-3zm29 3h-12c0 1 1 2 2 2 1 1 2 1 3 1h3c1-1 2-1 3-1v3c-1 1-2 1-3 1h-3c-3 0-6 0-7-2-2-1-3-3-3-5s1-4 3-5c1-2 3-2 6-2s4 0 6 1c1 2 2 3 2 5v2zm-5-3c0-1-1-1-1-2-1 0-1-1-2-1s-2 1-3 1c0 1-1 1-1 2h7zm17 9h-5v-19h5v19zm13 0h-5v-14h5v14zm0-16h-5v-3h5v3zm24 2l-6 14h-5l-6-14h5l3 10 4-10h5zm22 8h-12c0 1 1 2 2 2 1 1 2 1 3 1h3c1-1 2-1 3-1v3c-1 1-2 1-3 1h-3c-3 0-5 0-7-2-2-1-3-3-3-5s1-4 3-5c1-2 3-2 6-2s4 0 6 1c1 2 2 3 2 5v2zm-5-3c0-1-1-1-1-2-1 0-1-1-2-1s-2 1-3 1c0 1-1 1-1 2h7zm23-1h-3-1c-1 0-2 1-2 1v9h-5v-14h5v2c1-1 2-1 3-1 0-1 1-1 2-1h1v4zm22 4h-12c1 1 1 2 2 2 1 1 2 1 4 1h3c1-1 1-1 2-1v3c-1 1-2 1-3 1h-3c-3 0-5 0-7-2-2-1-2-3-2-5s0-4 2-5c1-2 4-2 6-2 3 0 5 0 6 1 1 2 2 3 2 5v2zm-5-3c0-1 0-1-1-2 0 0-1-1-2-1s-2 1-3 1c0 1 0 1-1 2h7zM1152 247h-5v-2l-2 2h-3c-2 0-3 0-4-2-2-1-2-3-2-5v-3c1-1 1-2 2-2l2-2h5c1 0 1 0 2 1v-6h5v19zm-5-4v-7h-2c-1 0-2 0-3 1s-1 2-1 3 0 2 1 3c0 1 1 1 2 1h2l1-1z"/><path fill="#9d8d8f" d="M11 10h242v242H11z"/><g><path fill="#5a5560" d="M11 10h78.328v241.5H11z"/><path d="M15 196c11 0 17-2 21-5 3-4 5-11 5-23V39h42v130c0 20-4 35-12 43s-22 12-41 13l-15-29z" fill="#faed26" fill-rule="nonzero"/></g><g><path fill="#faed26" d="M94 10h159v242H94z"/><path class="fil2" d="M100 183V39h39v64l53-64h44l-55 66 69 78h-51l-60-68v68z"/></g></g></g></svg>